<svg width="2560" height="1708" viewBox="0 0 2560 1708" fill="none" xmlns="http://www.w3.org/2000/svg">
<rect y="0.334961" width="2560" height="1706.67" fill="white"/>
<path d="M987.463 814.912H1036.28V776.154H1105.17V735.572H853.328V776.154H987.463V814.912Z" fill="black"/>
<path d="M1169.51 814.907V777.061H1270.33C1284.02 777.061 1294.52 779.797 1301.36 785.269C1308.66 790.74 1312.31 798.948 1312.31 809.891C1312.31 811.715 1312.31 813.083 1311.85 814.907H1360.21C1360.67 812.171 1360.67 809.891 1360.67 807.155C1360.67 790.74 1357.02 777.061 1349.26 766.574C1341.51 756.086 1331.01 748.335 1317.78 743.319C1304.1 738.303 1288.58 736.023 1270.33 736.023H1120.69V815.363H1169.51V814.907Z" fill="black"/>
<path d="M1434.56 735.572H1386.2V814.912H1434.56V735.572Z" fill="black"/>
<path d="M1514.42 814.912V777.066H1616.61C1629.39 777.066 1639.88 780.258 1647.18 787.097C1654.48 793.481 1658.13 802.6 1658.59 814.912H1706.95C1706.95 801.232 1704.21 789.833 1699.65 779.802C1694.63 769.77 1688.24 761.107 1679.58 754.723C1670.91 748.34 1660.87 743.324 1649.46 740.132C1638.06 736.94 1625.74 735.572 1612.51 735.572H1466.05V814.912H1514.42Z" fill="black"/>
<path d="M853.328 878.747H987.463V1074.36H1036.28V878.747H1105.17V838.621H853.328V878.747Z" fill="black"/>
<path d="M1338.31 957.174C1345.16 952.158 1350.63 945.775 1354.74 938.023C1358.39 930.272 1360.67 920.696 1360.67 909.753C1360.67 893.338 1357.02 879.659 1349.26 869.171C1341.51 858.684 1331.01 850.932 1317.78 845.917C1304.1 840.901 1288.58 838.621 1270.33 838.621H1120.69V1074.36H1169.05V987.268H1249.8C1265.32 987.268 1276.72 988.18 1284.93 990.004C1293.15 991.828 1298.62 995.476 1301.82 1000.49C1305.01 1005.51 1306.38 1012.35 1306.38 1021.47V1074.36H1355.2V1018.27C1355.2 1005.05 1352.46 995.02 1346.98 988.636C1341.51 981.797 1333.3 977.237 1322.35 974.957C1316.41 973.589 1309.11 972.677 1300.9 971.765C1305.47 970.853 1310.03 969.941 1314.13 968.573C1323.71 965.838 1331.47 962.19 1338.31 957.174ZM1301.36 939.391C1294.06 945.775 1283.57 949.423 1270.33 949.423H1169.51V880.115H1270.33C1284.02 880.115 1294.52 882.851 1301.36 888.322C1308.2 893.794 1312.31 902.001 1312.31 912.945C1311.85 923.888 1308.2 933.008 1301.36 939.391Z" fill="black"/>
<path d="M1434.56 838.621H1386.2V1074.36H1434.56V838.621Z" fill="black"/>
<path d="M1699.65 882.851C1694.63 872.819 1688.24 864.156 1679.58 857.772C1670.91 851.388 1660.87 846.373 1649.46 843.181C1638.06 839.989 1625.74 838.621 1612.51 838.621H1466.05V1074.36H1514.42V997.756H1612.05C1625.28 997.756 1637.6 996.388 1649.01 993.652C1660.41 990.916 1670.45 986.356 1679.12 979.973C1687.79 973.589 1694.63 965.838 1699.19 955.806C1704.21 945.775 1706.49 933.92 1706.49 919.784C1706.95 905.193 1704.67 893.338 1699.65 882.851ZM1647.18 948.511C1639.43 955.35 1629.39 958.998 1616.61 958.998H1514.42V880.115H1616.61C1629.39 880.115 1639.88 883.306 1647.18 890.146C1654.94 896.986 1658.59 907.017 1658.59 919.784C1658.59 932.096 1654.48 941.671 1647.18 948.511Z" fill="black"/>
<path d="M987.463 712.318H1036.28V673.56H1105.17V632.979H853.328V673.56H987.463V712.318Z" fill="black"/>
<path d="M1169.51 712.317V674.471H1270.33C1284.02 674.471 1294.52 677.207 1301.36 682.679C1308.66 688.15 1312.31 696.358 1312.31 707.301C1312.31 709.125 1312.31 710.493 1311.85 712.317H1360.21C1360.67 709.581 1360.67 707.301 1360.67 704.565C1360.67 688.15 1357.02 674.471 1349.26 663.984C1341.51 653.496 1331.01 645.745 1317.78 640.729C1304.1 635.713 1288.58 633.434 1270.33 633.434H1120.69V712.773H1169.51V712.317Z" fill="black"/>
<path d="M1434.56 632.979H1386.2V712.318H1434.56V632.979Z" fill="black"/>
<path d="M1514.42 712.318V674.472H1616.61C1629.39 674.472 1639.88 677.664 1647.18 684.503C1654.48 690.887 1658.13 700.007 1658.59 712.318H1706.95C1706.95 698.639 1704.21 687.239 1699.65 677.208C1694.63 667.177 1688.24 658.513 1679.58 652.129C1670.91 645.746 1660.87 640.73 1649.46 637.538C1638.06 634.346 1625.74 632.979 1612.51 632.979H1466.05V712.318H1514.42Z" fill="black"/>
</svg>
