<svg width="2560" height="1707" viewBox="0 0 2560 1707" fill="none" xmlns="http://www.w3.org/2000/svg">
<rect y="0.333984" width="2560" height="1706.67" fill="white"/>
<g clip-path="url(#clip0_717_2481)">
<path d="M1085.56 1099.34C1085.85 1099.29 1086.14 1099.29 1086.36 1099.46C1086.59 1099.57 1086.82 1099.74 1087 1099.97C1087.17 1100.2 1087.28 1100.48 1087.34 1100.76C1087.4 1101.16 1087.28 1101.56 1087.05 1101.96C1086.77 1102.3 1086.42 1102.53 1086.02 1102.58C1082.75 1102.98 1078.74 1103.72 1073.93 1104.75L1069.97 1105.54C1067.68 1107.7 1064.12 1109.52 1059.19 1111.12C1056.27 1112.03 1053.92 1112.26 1052.14 1111.86C1051.11 1111.63 1050.48 1111.06 1050.25 1110.15C1050.02 1109.24 1050.31 1108.44 1051.17 1107.7C1052.54 1106.51 1055.47 1105.43 1059.82 1104.46C1063.32 1103.67 1066.13 1103.04 1068.31 1102.58C1068.42 1102.53 1068.54 1102.36 1068.65 1102.13C1068.88 1101.73 1069 1101.45 1068.94 1101.39C1068.82 1101.16 1068.31 1101.05 1067.39 1101.05C1062.92 1100.82 1056.44 1103.49 1047.96 1109.13C1047.61 1109.35 1047.21 1109.41 1046.75 1109.35C1046.35 1109.24 1045.95 1109.01 1045.66 1108.67C1045.32 1108.05 1045.32 1107.48 1045.66 1106.85L1062.29 1080.86C1067.39 1072.83 1071.69 1068.06 1075.13 1066.41C1077.77 1065.1 1079.49 1065.61 1080.29 1067.94C1080.8 1069.48 1080.57 1071.7 1079.49 1074.48C1078.11 1078.18 1075.47 1082.39 1071.63 1087.06C1067.79 1091.72 1062.86 1096.21 1056.84 1100.48C1061.26 1098.55 1064.81 1097.69 1067.5 1097.81C1069.57 1097.92 1070.94 1098.55 1071.63 1099.63C1072.03 1100.37 1072.26 1101.11 1072.15 1101.85L1073.24 1101.56C1077.88 1100.65 1081.95 1099.91 1085.56 1099.34ZM1065.1 1082.68L1055.64 1097.47C1061.26 1093.48 1065.79 1089.27 1069.34 1084.95C1072.84 1080.63 1075.3 1076.76 1076.62 1073.46C1077.48 1071.36 1077.71 1069.88 1077.42 1069.08C1077.42 1069.02 1077.19 1069.14 1076.68 1069.36C1073.75 1070.73 1069.91 1075.17 1065.1 1082.68Z" fill="black"/>
<path d="M1111.76 1098.38C1112.1 1099.34 1111.99 1100.42 1111.3 1101.68C1110.84 1102.59 1110.1 1102.81 1109.12 1102.41C1108.78 1102.24 1108.49 1101.9 1108.38 1101.45C1108.2 1100.99 1108.26 1100.59 1108.43 1100.25C1108.49 1100.2 1108.55 1100.08 1108.61 1099.97L1108.72 1099.8C1108.26 1099.74 1107.63 1099.8 1106.94 1099.97C1105.11 1100.42 1103.1 1101.45 1100.87 1102.98C1098.63 1104.52 1096.57 1106.45 1094.73 1108.79C1094.33 1109.3 1093.87 1109.7 1093.47 1109.98C1091.47 1110.83 1090.66 1110.15 1091.01 1107.93C1091.06 1107.42 1091.24 1106.85 1091.47 1106.34C1092.84 1102.59 1094.39 1099.51 1096.17 1097.18C1096.4 1096.84 1096.74 1096.61 1097.2 1096.56C1097.66 1096.5 1098.06 1096.61 1098.4 1096.84C1098.75 1097.12 1098.97 1097.52 1099.03 1097.92C1099.09 1098.32 1098.98 1098.72 1098.75 1099.12C1098.34 1099.63 1097.71 1100.59 1096.97 1101.96C1100.18 1099.4 1103.22 1097.69 1106.08 1096.95C1107.23 1096.67 1108.26 1096.56 1109.24 1096.67C1110.44 1096.84 1111.3 1097.41 1111.76 1098.38Z" fill="black"/>
<path d="M1139.16 1098.26C1139.5 1098.37 1139.79 1098.66 1139.96 1099.06C1140.13 1099.46 1140.13 1099.91 1140.02 1100.31C1139.84 1100.71 1139.56 1101.05 1139.16 1101.22C1138.75 1101.39 1138.3 1101.39 1137.9 1101.22C1137.72 1101.16 1137.55 1101.11 1137.44 1101.05C1137.44 1101.11 1137.38 1101.22 1137.32 1101.33C1136.58 1102.81 1136.29 1103.89 1136.4 1104.57C1136.52 1104.92 1136.92 1105.2 1137.61 1105.37C1138.7 1105.54 1140.13 1105.49 1141.97 1105.09C1143.86 1104.75 1145.98 1104.12 1148.33 1103.32C1150.74 1102.47 1152.63 1101.73 1154.12 1101.11C1155.61 1100.42 1156.47 1100.02 1156.75 1099.74C1157.1 1099.46 1157.5 1099.34 1157.96 1099.4C1158.36 1099.46 1158.76 1099.63 1159.05 1099.91C1159.33 1100.25 1159.45 1100.65 1159.39 1101.11C1159.33 1101.56 1159.11 1101.9 1158.76 1102.24C1158.19 1102.7 1156.01 1103.66 1152.4 1105.14C1148.73 1106.62 1145.46 1107.65 1142.6 1108.22C1140.25 1108.61 1138.41 1108.73 1137.09 1108.5C1134.97 1108.1 1133.77 1106.96 1133.37 1105.2C1133.25 1104.92 1133.19 1104.69 1133.19 1104.46L1132.85 1104.63C1131.13 1105.54 1128.95 1106.34 1126.43 1107.13C1123.28 1108.04 1121.16 1108.33 1120.01 1108.04C1117.77 1107.53 1117.37 1106.22 1118.75 1104.29C1119.38 1103.44 1120.41 1102.58 1121.9 1101.62C1123.39 1100.65 1125.11 1099.85 1127.06 1099.17C1129.01 1098.49 1131.07 1097.98 1133.25 1097.69C1135.43 1097.35 1137.38 1097.58 1139.16 1098.26ZM1133.19 1100.82C1130.04 1101.16 1126.89 1102.36 1123.62 1104.29L1122.99 1104.75C1123.56 1104.63 1124.42 1104.4 1125.51 1104.12C1127.63 1103.49 1129.58 1102.75 1131.36 1101.9C1132.22 1101.39 1132.85 1101.05 1133.19 1100.82Z" fill="black"/>
<path d="M1203.82 1100.08C1204.11 1100.42 1204.22 1100.82 1204.16 1101.22C1204.05 1101.62 1203.82 1101.96 1203.48 1102.19C1197.11 1106.62 1191.09 1110.83 1185.48 1114.93C1187.37 1117.94 1187.65 1121.24 1186.45 1125C1185.36 1128.18 1183.18 1131.31 1179.86 1134.5C1176.53 1137.68 1172.81 1140.47 1168.68 1142.86C1164.5 1145.25 1160.71 1146.84 1157.27 1147.58C1153.83 1148.32 1151.54 1148.04 1150.57 1146.61C1150.34 1146.16 1150.16 1145.59 1150.16 1144.91C1150.16 1144.23 1150.39 1143.43 1151.02 1142.35C1151.6 1141.32 1152.4 1140.13 1153.37 1138.88C1154.35 1137.63 1155.67 1136.15 1157.33 1134.38C1158.99 1132.68 1160.94 1130.8 1163.12 1128.87C1165.3 1126.93 1167.88 1124.71 1170.92 1122.27C1173.95 1119.82 1177.22 1117.26 1180.83 1114.53C1178.54 1112.31 1175.04 1110.44 1170.29 1108.79C1169.02 1108.44 1168.57 1107.71 1168.91 1106.57C1169.08 1106.11 1169.54 1105.71 1170.23 1105.43C1170.92 1105.15 1172 1104.86 1173.44 1104.58C1176.93 1103.78 1179.46 1103.1 1181 1102.53C1182.95 1101.73 1184.27 1101.11 1184.96 1100.65C1184.67 1100.59 1184.16 1100.54 1183.41 1100.48C1180.95 1100.25 1178.02 1100.31 1174.76 1100.77C1171.43 1101.16 1169.08 1101.79 1167.59 1102.53C1167.19 1102.76 1166.73 1102.81 1166.33 1102.7C1165.93 1102.59 1165.58 1102.3 1165.36 1101.9C1165.18 1101.56 1165.13 1101.16 1165.24 1100.71C1165.36 1100.25 1165.64 1099.97 1166.04 1099.74C1167.65 1098.77 1170.34 1098.09 1174.01 1097.58C1177.74 1097.12 1180.95 1096.95 1183.64 1097.24C1185.3 1097.41 1186.57 1097.69 1187.37 1098.15H1187.54C1189.2 1099.12 1189.49 1100.31 1188.34 1101.85C1187.54 1102.98 1185.48 1104.24 1182.09 1105.54C1180.55 1106.17 1178.31 1106.8 1175.39 1107.42C1178.83 1108.96 1181.46 1110.66 1183.36 1112.54C1189.09 1108.33 1195.16 1104.06 1201.58 1099.63C1202.56 1099.06 1203.3 1099.17 1203.82 1100.08ZM1183.41 1123.92C1184.27 1121.47 1184.04 1119.14 1182.78 1116.92C1175.1 1122.61 1168.85 1127.5 1164.09 1131.6C1159.34 1135.69 1156.18 1138.71 1154.64 1140.76C1153.09 1142.75 1152.63 1144.11 1153.14 1144.85C1153.49 1145.25 1154.35 1145.36 1155.67 1145.08C1156.99 1144.79 1158.65 1144.23 1160.65 1143.37C1162.66 1142.52 1164.78 1141.44 1167.02 1140.19C1170.86 1137.91 1174.3 1135.35 1177.34 1132.45C1180.43 1129.55 1182.44 1126.7 1183.41 1123.92Z" fill="black"/>
<path d="M1212.08 1098.21C1212.36 1097.86 1212.76 1097.64 1213.22 1097.64C1213.68 1097.64 1214.08 1097.75 1214.43 1098.03C1214.77 1098.32 1214.94 1098.72 1214.94 1099.17C1214.94 1099.63 1214.83 1100.03 1214.54 1100.37C1214.2 1100.71 1213.28 1101.96 1211.85 1104.06C1211.68 1104.29 1211.39 1104.63 1211.1 1105.14C1210.76 1105.6 1210.53 1106 1210.36 1106.28C1210.18 1106.57 1209.96 1106.85 1209.67 1107.25C1209.38 1107.59 1209.15 1107.93 1208.92 1108.22C1208.69 1108.5 1208.52 1108.73 1208.35 1108.96C1208.06 1109.24 1207.66 1109.41 1207.2 1109.47C1206.75 1109.47 1206.34 1109.35 1206 1109.07C1205.2 1108.33 1205.2 1107.59 1205.89 1106.85C1206.29 1106.45 1207.38 1104.92 1209.15 1102.36C1210.64 1100.03 1211.62 1098.66 1212.08 1098.21ZM1215.69 1093.26C1215.86 1093.2 1216.09 1093.2 1216.26 1093.31C1216.49 1093.43 1216.66 1093.48 1216.78 1093.65C1216.95 1093.77 1217.06 1093.94 1217.18 1094.17C1217.29 1094.39 1217.35 1094.62 1217.35 1094.85V1095.13C1217.41 1095.53 1217.29 1095.93 1217.01 1096.33C1216.72 1096.67 1216.32 1096.84 1215.92 1096.84C1215.46 1096.9 1215 1096.78 1214.71 1096.5C1214.43 1096.21 1214.2 1095.82 1214.14 1095.42V1094.96C1214.14 1094.51 1214.25 1094.05 1214.54 1093.77C1214.83 1093.43 1215.17 1093.26 1215.69 1093.26Z" fill="black"/>
<path d="M1258.39 1072.04C1257.07 1075.34 1254.26 1079.6 1249.97 1084.84C1245.67 1090.07 1239.93 1095.87 1232.6 1102.24C1232.54 1102.24 1232.42 1102.3 1232.31 1102.41C1232.25 1103.32 1232.31 1104.06 1232.48 1104.75C1232.65 1105.26 1232.88 1105.66 1233.11 1105.94C1233.34 1106.23 1233.69 1106.4 1234.09 1106.45C1234.6 1106.62 1235.29 1106.62 1236.15 1106.34C1238.67 1105.66 1242 1103.5 1246.07 1099.8C1246.41 1099.51 1246.81 1099.34 1247.27 1099.4C1247.67 1099.4 1248.07 1099.57 1248.36 1099.91C1249.11 1100.71 1249.05 1101.45 1248.25 1102.13C1243.77 1106.11 1240.05 1108.56 1237.01 1109.41C1235.69 1109.75 1234.49 1109.87 1233.4 1109.64C1232.31 1109.41 1231.39 1108.96 1230.7 1108.16C1230.02 1107.42 1229.61 1106.57 1229.33 1105.54C1229.1 1104.86 1228.98 1104.18 1228.98 1103.38C1228.98 1102.59 1229.04 1101.85 1229.1 1101.11C1229.21 1100.37 1229.39 1099.51 1229.67 1098.6C1229.96 1097.69 1230.25 1096.84 1230.53 1096.16C1230.82 1095.42 1231.22 1094.56 1231.68 1093.54C1232.19 1092.52 1232.6 1091.72 1232.94 1091.09C1233.28 1090.47 1233.74 1089.62 1234.37 1088.59C1234.95 1087.57 1235.46 1086.77 1235.75 1086.26C1236.09 1085.75 1236.55 1085.01 1237.12 1083.98L1237.41 1083.53C1240.45 1078.75 1243.26 1074.88 1246.01 1071.87C1248.76 1068.85 1251.05 1066.86 1252.95 1065.84C1255.41 1064.53 1257.25 1064.64 1258.39 1066.12C1259.48 1067.43 1259.42 1069.36 1258.39 1072.04ZM1240.05 1085.63C1236.95 1090.58 1234.95 1094.28 1233.91 1096.78C1237.98 1093.09 1241.6 1089.5 1244.75 1086.03C1247.9 1082.56 1250.25 1079.6 1251.91 1077.21C1253.52 1074.83 1254.67 1072.72 1255.35 1070.9C1256.04 1069.36 1256.21 1068.4 1255.98 1068.11C1255.7 1068.23 1255.24 1068.4 1254.72 1068.63C1253.06 1069.59 1250.94 1071.47 1248.42 1074.26C1245.9 1077.04 1243.2 1080.68 1240.39 1085.18L1240.05 1085.63Z" fill="black"/>
<path d="M1256.68 1098.21C1256.96 1097.86 1257.37 1097.64 1257.82 1097.64C1258.28 1097.64 1258.68 1097.75 1259.03 1098.03C1259.37 1098.32 1259.54 1098.72 1259.54 1099.17C1259.54 1099.63 1259.43 1100.03 1259.14 1100.37C1258.8 1100.71 1257.88 1101.96 1256.45 1104.06C1256.28 1104.29 1255.99 1104.63 1255.7 1105.14C1255.36 1105.6 1255.13 1106 1254.96 1106.28C1254.79 1106.57 1254.56 1106.85 1254.27 1107.25C1253.98 1107.59 1253.75 1107.93 1253.53 1108.22C1253.3 1108.5 1253.12 1108.73 1252.95 1108.96C1252.67 1109.24 1252.26 1109.41 1251.81 1109.47C1251.35 1109.47 1250.95 1109.35 1250.6 1109.07C1249.8 1108.33 1249.8 1107.59 1250.49 1106.85C1250.89 1106.45 1251.98 1104.92 1253.75 1102.36C1255.24 1100.03 1256.28 1098.66 1256.68 1098.21ZM1260.29 1093.26C1260.46 1093.2 1260.69 1093.2 1260.86 1093.31C1261.09 1093.43 1261.26 1093.48 1261.38 1093.65C1261.55 1093.77 1261.67 1093.94 1261.78 1094.17C1261.89 1094.39 1261.95 1094.62 1261.95 1094.85V1095.13C1262.01 1095.53 1261.89 1095.93 1261.61 1096.33C1261.32 1096.67 1260.92 1096.84 1260.52 1096.84C1260.06 1096.9 1259.6 1096.78 1259.31 1096.5C1259.03 1096.21 1258.8 1095.82 1258.74 1095.42V1094.96C1258.74 1094.51 1258.86 1094.05 1259.14 1093.77C1259.43 1093.43 1259.83 1093.26 1260.29 1093.26Z" fill="black"/>
<path d="M1288.32 1098.26C1288.66 1098.38 1288.95 1098.66 1289.12 1099.06C1289.29 1099.46 1289.29 1099.91 1289.18 1100.31C1289.01 1100.71 1288.72 1101.05 1288.32 1101.22C1287.92 1101.39 1287.46 1101.39 1287.06 1101.22C1286.89 1101.16 1286.72 1101.11 1286.6 1101.05C1286.6 1101.11 1286.54 1101.22 1286.49 1101.33C1285.74 1102.81 1285.45 1103.89 1285.57 1104.58C1285.68 1104.92 1286.08 1105.2 1286.77 1105.37C1287.86 1105.54 1289.29 1105.49 1291.13 1105.09C1293.02 1104.75 1295.14 1104.12 1297.49 1103.33C1299.9 1102.47 1301.79 1101.73 1303.28 1101.11C1304.77 1100.42 1305.63 1100.03 1305.92 1099.74C1306.26 1099.46 1306.66 1099.34 1307.12 1099.4C1307.52 1099.46 1307.93 1099.63 1308.21 1099.91C1308.5 1100.25 1308.61 1100.65 1308.56 1101.11C1308.5 1101.56 1308.27 1101.9 1307.93 1102.24C1307.35 1102.7 1305.17 1103.67 1301.56 1105.15C1297.89 1106.62 1294.63 1107.65 1291.76 1108.22C1289.41 1108.62 1287.58 1108.73 1286.26 1108.5C1284.14 1108.1 1282.93 1106.97 1282.53 1105.2C1282.42 1104.92 1282.36 1104.69 1282.36 1104.46L1282.01 1104.63C1280.29 1105.54 1278.12 1106.34 1275.59 1107.14C1272.44 1108.05 1270.32 1108.33 1269.17 1108.05C1266.94 1107.53 1266.54 1106.23 1267.91 1104.29C1268.54 1103.44 1269.58 1102.59 1271.07 1101.62C1272.56 1100.65 1274.28 1099.86 1276.22 1099.17C1278.17 1098.49 1280.24 1097.98 1282.42 1097.69C1284.59 1097.35 1286.54 1097.58 1288.32 1098.26ZM1282.36 1100.82C1279.21 1101.16 1276.05 1102.36 1272.79 1104.29L1272.15 1104.75C1272.73 1104.63 1273.59 1104.41 1274.68 1104.12C1276.8 1103.5 1278.75 1102.76 1280.52 1101.9C1281.38 1101.39 1281.96 1101.05 1282.36 1100.82Z" fill="black"/>
<path d="M1350.11 1100.25C1350.28 1100.59 1350.34 1100.99 1350.23 1101.45C1350.11 1101.9 1349.82 1102.19 1349.42 1102.41C1341.45 1106.34 1335.61 1108.73 1331.88 1109.53C1324.77 1111 1323.11 1108.5 1326.89 1102.02L1327.01 1101.9C1326.72 1101.9 1326.32 1101.96 1325.81 1102.07C1321.96 1102.93 1317.21 1105.37 1311.53 1109.41C1311.24 1109.64 1310.9 1109.75 1310.5 1109.75C1310.1 1109.75 1309.75 1109.64 1309.47 1109.41C1309.18 1109.18 1309.01 1108.84 1308.95 1108.39C1308.89 1107.93 1309.01 1107.53 1309.3 1107.19C1310.67 1105.54 1312.39 1103.61 1314.46 1101.39C1314.68 1101.16 1314.97 1100.88 1315.26 1100.54C1315.54 1100.2 1315.83 1099.91 1316.06 1099.63C1316.29 1099.34 1316.58 1099 1316.98 1098.66C1317.32 1098.26 1317.67 1097.92 1317.95 1097.52C1318.7 1096.73 1319.44 1096.73 1320.19 1097.41C1320.53 1097.69 1320.76 1098.09 1320.76 1098.49C1320.76 1098.89 1320.65 1099.29 1320.36 1099.68L1318.81 1101.39C1321.28 1100.2 1323.4 1099.4 1325.12 1098.94C1326.26 1098.66 1327.24 1098.6 1328.1 1098.77C1329.42 1099 1330.16 1099.74 1330.33 1100.94C1330.45 1101.73 1330.22 1102.59 1329.7 1103.61C1328.96 1104.86 1328.73 1105.71 1329.02 1106.11C1329.3 1106.51 1329.99 1106.62 1331.14 1106.4C1334.63 1105.6 1340.19 1103.32 1347.88 1099.57C1348.28 1099.34 1348.74 1099.29 1349.14 1099.46C1349.6 1099.57 1349.88 1099.85 1350.11 1100.25Z" fill="black"/>
<path d="M1435.02 1100.25C1435.19 1100.65 1435.19 1101.05 1435.07 1101.45C1434.9 1101.84 1434.62 1102.13 1434.21 1102.41C1420.86 1108.78 1413.41 1110.38 1411.8 1107.08C1411.4 1106.23 1411.34 1105.14 1411.69 1103.78C1411.69 1103.72 1411.86 1103.67 1412.2 1103.67H1412.32C1411.8 1103.49 1409.68 1104.4 1406.07 1106.34C1405.26 1106.74 1404.69 1107.08 1404.29 1107.31C1403.89 1107.53 1403.43 1107.7 1402.91 1107.93C1402.4 1108.16 1401.94 1108.22 1401.54 1108.22C1401.19 1108.22 1400.85 1108.05 1400.56 1107.7C1399.59 1106.85 1400.28 1105.09 1402.57 1102.41C1400.56 1103.04 1398.33 1104.01 1395.81 1105.49C1393.28 1106.96 1391.11 1108.56 1389.33 1110.32C1388.64 1111 1387.95 1111.06 1387.15 1110.61C1386.29 1109.92 1386.18 1109.18 1386.81 1108.27C1388.3 1106.11 1389.96 1103.95 1391.79 1101.73C1392.77 1100.54 1393.86 1099.17 1395.06 1097.64C1395.35 1097.35 1395.75 1097.12 1396.15 1097.07C1396.55 1097.01 1396.95 1097.07 1397.35 1097.35C1397.7 1097.64 1397.93 1097.98 1397.98 1098.43C1398.04 1098.89 1397.93 1099.29 1397.64 1099.63C1396.9 1100.54 1396.32 1101.28 1395.92 1101.84C1398.16 1100.65 1400.22 1099.8 1402.05 1099.34C1403.09 1099.06 1404 1098.94 1404.75 1099C1406.3 1099.06 1407.16 1099.8 1407.21 1101.16C1407.21 1101.56 1407.04 1102.02 1406.76 1102.53C1409.85 1100.93 1411.97 1100.31 1413.23 1100.65C1414.9 1101.11 1415.47 1102.47 1414.84 1104.69C1414.72 1105.31 1414.67 1105.66 1414.72 1105.77C1415.35 1107.14 1421.37 1105.09 1432.9 1099.68C1433.76 1099.06 1434.5 1099.29 1435.02 1100.25Z" fill="black"/>
<path d="M1455.54 1098.26C1455.88 1098.38 1456.17 1098.66 1456.34 1099.06C1456.51 1099.46 1456.51 1099.91 1456.4 1100.31C1456.23 1100.71 1455.94 1101.05 1455.54 1101.22C1455.14 1101.39 1454.68 1101.39 1454.28 1101.22C1454.11 1101.16 1453.93 1101.11 1453.82 1101.05C1453.82 1101.11 1453.76 1101.22 1453.7 1101.33C1452.96 1102.81 1452.67 1103.89 1452.79 1104.58C1452.9 1104.92 1453.3 1105.2 1453.99 1105.37C1455.08 1105.54 1456.51 1105.49 1458.35 1105.09C1460.24 1104.75 1462.36 1104.12 1464.71 1103.33C1467.12 1102.47 1469.01 1101.73 1470.5 1101.11C1471.99 1100.42 1472.85 1100.03 1473.14 1099.74C1473.48 1099.46 1473.88 1099.34 1474.34 1099.4C1474.74 1099.46 1475.14 1099.63 1475.43 1099.91C1475.72 1100.25 1475.83 1100.65 1475.77 1101.11C1475.72 1101.56 1475.49 1101.9 1475.14 1102.24C1474.57 1102.7 1472.39 1103.67 1468.78 1105.15C1465.11 1106.62 1461.84 1107.65 1458.98 1108.22C1456.63 1108.62 1454.79 1108.73 1453.48 1108.5C1451.35 1108.1 1450.15 1106.97 1449.75 1105.2C1449.63 1104.92 1449.58 1104.69 1449.58 1104.46L1449.23 1104.63C1447.51 1105.54 1445.34 1106.34 1442.81 1107.14C1439.66 1108.05 1437.54 1108.33 1436.39 1108.05C1434.16 1107.53 1433.76 1106.23 1435.13 1104.29C1435.76 1103.44 1436.79 1102.59 1438.28 1101.62C1439.77 1100.65 1441.49 1099.86 1443.44 1099.17C1445.39 1098.49 1447.46 1097.98 1449.63 1097.69C1451.81 1097.35 1453.76 1097.58 1455.54 1098.26ZM1449.58 1100.82C1446.42 1101.16 1443.27 1102.36 1440 1104.29L1439.37 1104.75C1439.95 1104.63 1440.81 1104.41 1441.9 1104.12C1444.02 1103.5 1445.97 1102.76 1447.74 1101.9C1448.6 1101.39 1449.18 1101.05 1449.58 1100.82Z" fill="black"/>
<path d="M1523.12 1065.5C1524.84 1066.92 1525.3 1069.54 1524.5 1073.29C1523.98 1075.85 1522.89 1078.58 1521.29 1081.42C1519.68 1084.27 1517.28 1087.45 1514.01 1090.92C1510.74 1094.39 1506.96 1097.58 1502.6 1100.37C1501.11 1105.03 1499.56 1110.09 1498.02 1115.5C1497.96 1115.78 1497.84 1116.07 1497.61 1116.24C1497.39 1116.47 1497.16 1116.58 1496.93 1116.64C1496.7 1116.69 1496.41 1116.69 1496.12 1116.64C1495.72 1116.52 1495.38 1116.24 1495.15 1115.9C1494.92 1115.56 1494.86 1115.1 1495.04 1114.7C1495.95 1111.17 1497.1 1107.25 1498.47 1102.87L1497.67 1103.21C1496.47 1103.84 1494.69 1104.52 1492.46 1105.26C1485.63 1107.53 1481.05 1108.5 1478.7 1108.1C1475.89 1107.71 1475.09 1106.4 1476.46 1104.18C1477.21 1103.1 1478.53 1102.02 1480.42 1100.88C1482.08 1099.85 1483.97 1099.06 1486.09 1098.43C1488.21 1097.81 1490.39 1097.47 1492.8 1097.35C1495.21 1097.24 1497.27 1097.75 1499.11 1098.77L1499.28 1098.89L1500.08 1098.38C1505.3 1083.07 1510.51 1072.83 1515.61 1067.72C1518.6 1064.59 1521.12 1063.85 1523.12 1065.5ZM1491.37 1102.24C1492.74 1101.79 1494.06 1101.28 1495.26 1100.82C1493.2 1100.37 1490.97 1100.42 1488.56 1101.05C1486.15 1101.68 1483.91 1102.59 1482.02 1103.67C1481.22 1104.06 1480.59 1104.52 1480.02 1105.03C1482.14 1104.97 1485.92 1104.01 1491.37 1102.24ZM1521.29 1072.66C1521.81 1070.1 1521.75 1068.51 1521 1068C1520.54 1067.54 1519.46 1068.17 1517.74 1069.88C1513.38 1074.2 1508.97 1082.62 1504.44 1095.13C1509.31 1091.49 1513.15 1087.62 1515.96 1083.59C1518.82 1079.6 1520.54 1075.91 1521.29 1072.66Z" fill="black"/>
<path d="M1551.72 1100.42C1551.78 1100.71 1551.78 1100.99 1551.72 1101.28C1551.67 1101.56 1551.55 1101.79 1551.32 1102.02C1551.09 1102.24 1550.86 1102.36 1550.64 1102.41C1535.33 1107.08 1524.78 1108.79 1518.99 1107.59C1516.93 1107.19 1515.67 1106.28 1515.09 1104.97C1514.64 1103.61 1515.09 1102.3 1516.47 1101.05C1517.44 1100.08 1518.88 1099.29 1520.83 1098.6C1522.78 1097.92 1524.9 1097.58 1527.25 1097.47C1529.25 1097.41 1530.63 1097.64 1531.49 1098.2C1532.98 1099.29 1533.04 1100.42 1531.6 1101.67C1531.09 1102.3 1530.17 1102.76 1528.97 1103.1C1527.82 1103.61 1526.39 1103.84 1524.61 1103.78C1522.83 1103.67 1521.34 1103.21 1520.25 1102.41C1519.57 1102.7 1519.05 1103.04 1518.71 1103.38C1518.42 1103.67 1518.25 1103.84 1518.25 1103.89C1518.3 1104.01 1518.76 1104.18 1519.68 1104.41C1524.95 1105.43 1534.99 1103.72 1549.66 1099.29C1549.89 1099.23 1550.12 1099.23 1550.35 1099.23C1550.58 1099.29 1550.75 1099.34 1550.92 1099.4C1551.09 1099.51 1551.27 1099.63 1551.44 1099.74C1551.55 1100.03 1551.67 1100.2 1551.72 1100.42Z" fill="black"/>
<path d="M857.006 873.285H809.598L792.802 833.978H626.045L609.65 873.285H584.828L696.611 609.512L680.216 570.66H728.197L857.006 873.285ZM634.471 814.068H784.433L708.707 638.182L634.471 814.068Z" fill="black"/>
<path d="M960.768 718.161C960.768 738.639 964.15 757.184 970.914 773.851C977.678 790.461 987.366 804.682 999.92 816.514C1012.47 828.346 1027.84 837.391 1045.95 843.762C1064.07 850.133 1084.42 853.318 1106.95 853.318H1151.89V677.261H1196.83V873.285H1088.54C1072.26 873.285 1056.61 871.863 1041.6 869.018C1026.58 866.174 1012.47 861.908 999.347 856.219C986.22 850.531 974.296 843.42 963.634 834.831C952.971 826.298 943.8 816.23 936.118 804.682C928.436 793.135 922.532 780.165 918.405 765.83C914.22 751.438 912.156 735.568 912.156 718.218C912.156 703.713 914.105 689.776 918.003 676.465C921.901 663.154 927.347 650.81 934.398 639.433C941.449 628.056 949.933 617.703 959.85 608.488C969.768 599.273 980.774 591.366 992.869 584.767C1004.97 578.169 1017.98 573.106 1031.96 569.579C1045.89 566.052 1060.46 564.289 1075.65 564.289C1099.32 564.289 1121.33 568.157 1141.68 575.893C1162.03 583.63 1180.09 594.21 1195.86 607.635L1184.39 622.709C1178.09 617.419 1171.15 612.47 1163.58 607.862C1156.02 603.255 1147.93 599.273 1139.39 595.86C1130.85 592.447 1121.96 589.83 1112.85 587.896C1103.68 586.019 1094.45 585.052 1085.16 585.052C1065.9 585.166 1048.59 588.636 1033.28 595.348C1017.98 602.06 1004.97 611.332 994.188 623.221C983.468 635.11 975.213 649.104 969.481 665.259C963.634 681.414 960.768 699.048 960.768 718.161Z" fill="black"/>
<path d="M1332.8 718.161C1332.8 738.639 1336.18 757.184 1342.95 773.851C1349.71 790.461 1359.4 804.682 1371.95 816.514C1384.51 828.346 1399.87 837.391 1417.98 843.762C1436.1 850.133 1456.45 853.318 1478.98 853.318H1523.92V677.261H1568.86V873.285H1460.58C1444.3 873.285 1428.65 871.863 1413.63 869.018C1398.61 866.174 1384.51 861.908 1371.38 856.219C1358.25 850.531 1346.38 843.42 1335.67 834.831C1325 826.298 1315.83 816.23 1308.21 804.682C1300.53 793.135 1294.62 780.165 1290.44 765.83C1286.25 751.438 1284.19 735.568 1284.19 718.218C1284.19 703.713 1286.14 689.776 1290.03 676.465C1293.93 663.154 1299.38 650.81 1306.43 639.433C1313.48 628.056 1321.96 617.703 1331.88 608.488C1341.8 599.273 1352.81 591.366 1364.9 584.767C1377 578.169 1390.01 573.106 1404 569.579C1417.93 566.052 1432.49 564.289 1447.68 564.289C1471.35 564.289 1493.37 568.157 1513.72 575.893C1534.07 583.63 1552.12 594.21 1567.89 607.635L1556.42 622.709C1550.12 617.419 1543.18 612.47 1535.61 607.862C1528.05 603.255 1519.96 599.273 1511.42 595.86C1502.88 592.447 1494 589.83 1484.88 587.896C1475.71 586.019 1466.48 585.052 1457.19 585.052C1437.93 585.166 1420.62 588.636 1405.31 595.348C1390.01 602.06 1377 611.332 1366.22 623.221C1355.5 635.11 1347.24 649.104 1341.51 665.259C1335.67 681.414 1332.8 699.048 1332.8 718.161Z" fill="black"/>
<path d="M1816.4 879.2C1801.38 879.2 1786.87 877.323 1773 873.512C1759.13 869.7 1746.12 864.41 1734.02 857.527C1721.93 850.701 1710.92 842.453 1701 832.782C1691.08 823.169 1682.6 812.475 1675.43 800.7C1668.33 788.982 1662.82 776.353 1658.93 762.815C1655.03 749.333 1653.08 735.226 1653.08 720.607C1653.08 706.215 1655.03 692.335 1658.93 678.854C1662.82 665.429 1668.33 652.857 1675.43 641.196C1682.54 629.535 1691.08 618.897 1701 609.227C1710.92 599.614 1721.93 591.365 1734.02 584.596C1746.12 577.827 1759.13 572.537 1773 568.726C1786.87 564.914 1801.32 563.037 1816.4 563.037C1831.3 563.037 1845.63 564.914 1859.45 568.612C1873.26 572.366 1886.16 577.656 1898.2 584.482C1910.24 591.309 1921.19 599.557 1931.1 609.227C1941.02 618.841 1949.5 629.535 1956.56 641.196C1963.61 652.857 1969.05 665.429 1972.95 678.854C1976.85 692.278 1978.8 706.215 1978.8 720.607C1978.8 735.283 1976.85 749.333 1972.95 762.815C1969.05 776.296 1963.61 788.925 1956.56 800.7C1949.5 812.418 1941.02 823.112 1931.1 832.782C1921.19 842.396 1910.24 850.644 1898.2 857.527C1886.16 864.41 1873.26 869.7 1859.45 873.512C1845.63 877.266 1831.3 879.2 1816.4 879.2ZM1816.4 859.461C1834.97 859.461 1851.42 855.878 1865.7 848.653C1879.97 841.486 1892.01 831.645 1901.7 819.13C1911.38 806.673 1918.78 791.94 1923.77 775.045C1928.75 758.15 1931.28 740.004 1931.28 720.607C1931.28 701.323 1928.81 683.291 1923.88 666.453C1918.95 649.615 1911.67 635.053 1902.04 622.709C1892.41 610.365 1880.37 600.638 1866.04 593.527C1851.71 586.417 1835.14 582.833 1816.4 582.833C1797.36 582.833 1780.74 586.417 1766.47 593.527C1752.19 600.638 1740.21 610.365 1730.58 622.709C1720.95 635.053 1713.67 649.672 1708.86 666.453C1703.98 683.291 1701.57 701.323 1701.57 720.607C1701.57 740.004 1704.04 758.15 1708.97 775.045C1713.9 791.94 1721.18 806.616 1730.81 819.13C1740.44 831.588 1752.48 841.429 1766.81 848.653C1781.08 855.821 1797.65 859.461 1816.4 859.461Z" fill="black"/>
<path d="M919.657 1024.48H949.581V1029.26H908.938V957.018H919.657V1024.48Z" fill="black"/>
<path d="M974.692 982.559C978.017 982.559 980.826 983.184 983.119 984.379C985.412 985.573 987.304 987.223 988.737 989.328C990.17 991.376 991.259 993.765 991.89 996.495C992.52 999.226 992.864 1002.07 992.864 1005.08V1007.36H962.711C962.711 1009.18 962.998 1011.11 963.571 1013.22C964.144 1015.32 965.119 1017.26 966.437 1019.02C967.756 1020.78 969.476 1022.26 971.597 1023.46C973.718 1024.65 976.297 1025.22 979.335 1025.22H989.539V1029.2H979.221C974.635 1029.2 970.737 1028.69 967.412 1027.67C964.087 1026.64 961.393 1025.11 959.214 1023.17C957.093 1021.18 955.488 1018.79 954.514 1015.95C953.482 1013.11 953.023 1009.86 953.023 1006.17C953.023 1003.15 953.482 1000.19 954.457 997.349C955.431 994.504 956.807 992.001 958.641 989.783C960.476 987.621 962.769 985.858 965.463 984.55C968.1 983.241 971.195 982.559 974.692 982.559ZM974.176 986.996C972.17 986.996 970.45 987.451 969.017 988.361C967.584 989.271 966.38 990.466 965.463 992.001C964.546 993.537 963.858 995.244 963.399 997.235C962.941 999.226 962.711 1001.27 962.711 1003.44H983.406V1001.33C983.348 999.453 983.176 997.633 982.89 995.926C982.603 994.22 982.144 992.684 981.457 991.376C980.769 990.067 979.851 988.987 978.705 988.19C977.501 987.394 976.011 986.996 974.176 986.996Z" fill="black"/>
<path d="M1018.48 986.768C1016.94 986.768 1015.56 986.825 1014.41 986.939C1013.27 987.052 1012.18 987.166 1011.26 987.337C1010.29 987.508 1009.43 987.678 1008.62 987.906C1007.82 988.133 1007.02 988.361 1006.16 988.588L1005.01 985.403C1007.76 984.379 1010.63 983.696 1013.61 983.241C1016.59 982.786 1019.4 982.559 1022.09 982.559C1025.53 982.559 1028.34 982.729 1030.52 983.071C1032.7 983.412 1034.42 984.038 1035.68 984.834C1036.94 985.63 1037.8 986.768 1038.26 988.133C1038.72 989.498 1038.95 991.205 1038.95 993.31V1029.2H1022.9C1018.54 1029.2 1014.81 1028.75 1011.72 1027.84C1008.62 1026.93 1006.1 1025.73 1004.15 1024.2C1002.2 1022.66 1000.77 1020.9 999.852 1018.91C998.935 1016.92 998.477 1014.81 998.477 1012.59C998.477 1009.86 998.935 1007.47 999.795 1005.43C1000.65 1003.38 1001.92 1001.61 1003.52 1000.19C1005.13 998.771 1007.13 997.69 1009.48 997.007C1011.83 996.268 1014.53 995.926 1017.51 995.926C1019.11 995.926 1021.01 996.211 1023.07 996.78C1025.13 997.349 1027.14 998.145 1029.03 999.283V993.139C1029.03 992.4 1028.97 991.66 1028.8 990.864C1028.63 990.124 1028.23 989.442 1027.54 988.816C1026.85 988.19 1025.82 987.735 1024.39 987.337C1022.9 986.939 1020.95 986.768 1018.48 986.768ZM1029.03 1025.22V1002.75C1027.48 1001.79 1025.82 1001.1 1024.16 1000.65C1022.44 1000.19 1020.6 999.965 1018.54 999.965C1016.94 999.965 1015.44 1000.25 1014.18 1000.82C1012.92 1001.39 1011.89 1002.24 1011.03 1003.32C1010.17 1004.4 1009.54 1005.65 1009.08 1007.13C1008.62 1008.61 1008.39 1010.26 1008.39 1012.08C1008.39 1012.59 1008.39 1013.28 1008.45 1014.13C1008.51 1014.98 1008.68 1015.89 1008.97 1016.86C1009.25 1017.83 1009.65 1018.79 1010.23 1019.82C1010.8 1020.78 1011.6 1021.7 1012.64 1022.49C1013.67 1023.29 1014.99 1023.97 1016.59 1024.48C1018.2 1024.99 1020.15 1025.22 1022.44 1025.22H1029.03Z" fill="black"/>
<path d="M1069.85 987.849H1063.26V1029.2H1053.86V987.849H1047.49V983.469H1053.86V968.565L1063.26 965.721V983.469H1069.85V987.849Z" fill="black"/>
<path d="M1088.48 987.28C1090.55 986.37 1092.49 985.63 1094.27 985.005C1096.05 984.436 1097.65 983.924 1099.2 983.526C1100.75 983.127 1102.18 982.9 1103.5 982.729C1104.82 982.559 1106.08 982.502 1107.34 982.502C1110.44 982.502 1112.73 983.298 1114.39 984.891C1116 986.484 1116.8 989.043 1116.8 992.57V1029.2H1106.88V994.106C1106.88 993.367 1106.83 992.684 1106.65 991.945C1106.48 991.205 1106.25 990.522 1105.85 989.954C1105.45 989.385 1104.93 988.873 1104.3 988.531C1103.67 988.19 1102.81 987.963 1101.78 987.963C1100.12 987.963 1098.17 988.19 1095.99 988.588C1093.81 988.987 1091.29 989.84 1088.54 991.091V1029.26H1078.68V957.018H1088.54V987.28H1088.48Z" fill="black"/>
<path d="M1148.44 982.559C1151.77 982.559 1154.58 983.184 1156.87 984.379C1159.16 985.573 1161.05 987.223 1162.49 989.328C1163.92 991.376 1165.01 993.765 1165.64 996.495C1166.27 999.226 1166.61 1002.07 1166.61 1005.08V1007.36H1136.46C1136.46 1009.18 1136.75 1011.11 1137.32 1013.22C1137.89 1015.32 1138.87 1017.26 1140.19 1019.02C1141.51 1020.78 1143.23 1022.26 1145.35 1023.46C1147.47 1024.65 1150.05 1025.22 1153.09 1025.22H1163.29V1029.2H1152.97C1148.38 1029.2 1144.49 1028.69 1141.16 1027.67C1137.84 1026.64 1135.14 1025.11 1132.96 1023.17C1130.84 1021.18 1129.24 1018.79 1128.26 1015.95C1127.23 1013.11 1126.77 1009.86 1126.77 1006.17C1126.77 1003.15 1127.23 1000.19 1128.21 997.349C1129.18 994.504 1130.56 992.001 1132.39 989.783C1134.23 987.621 1136.52 985.858 1139.21 984.55C1141.85 983.241 1144.95 982.559 1148.44 982.559ZM1147.93 986.996C1145.92 986.996 1144.2 987.451 1142.77 988.361C1141.33 989.271 1140.13 990.466 1139.21 992.001C1138.3 993.537 1137.61 995.244 1137.15 997.235C1136.69 999.226 1136.46 1001.27 1136.46 1003.44H1157.16V1001.33C1157.1 999.453 1156.93 997.633 1156.64 995.926C1156.35 994.22 1155.89 992.684 1155.21 991.376C1154.52 990.067 1153.6 988.987 1152.45 988.19C1151.25 987.394 1149.76 986.996 1147.93 986.996Z" fill="black"/>
<path d="M1186.22 987.111C1187.54 986.201 1188.69 985.461 1189.66 984.892C1190.64 984.323 1191.55 983.868 1192.3 983.527C1193.1 983.186 1193.79 982.958 1194.48 982.844C1195.16 982.731 1195.8 982.674 1196.48 982.674C1199.01 982.674 1200.9 983.527 1202.16 985.291C1203.42 987.054 1204.11 989.5 1204.34 992.742L1195.8 995.245C1195.45 992.913 1195.05 991.263 1194.48 990.296C1193.9 989.329 1193.04 988.817 1191.9 988.817C1191.21 988.817 1190.41 988.988 1189.49 989.272C1188.57 989.557 1187.48 990.069 1186.22 990.751V1029.38H1176.3V983.47H1186.22V987.111Z" fill="black"/>
<path d="M1293.81 1029.2H1282.52L1278.51 1019.82H1238.72L1234.83 1029.2H1228.92L1255.52 966.29L1251.62 957.018H1263.09L1293.81 1029.2ZM1240.73 1015.1H1276.5L1258.44 973.173L1240.73 1015.1Z" fill="black"/>
<path d="M1332.39 991.148C1330.67 989.783 1329.01 988.759 1327.23 988.076C1325.51 987.394 1323.51 987.052 1321.27 987.052C1318.81 987.052 1316.69 987.508 1314.79 988.475C1312.9 989.442 1311.35 990.693 1310.09 992.286C1308.83 993.879 1307.86 995.756 1307.17 997.86C1306.48 999.965 1306.2 1002.18 1306.2 1004.57C1306.2 1005.65 1306.25 1006.96 1306.43 1008.38C1306.6 1009.81 1306.88 1011.29 1307.34 1012.88C1307.8 1014.41 1308.43 1015.89 1309.35 1017.37C1310.21 1018.85 1311.35 1020.16 1312.79 1021.35C1314.22 1022.55 1315.94 1023.46 1318.06 1024.2C1320.18 1024.94 1322.65 1025.28 1325.57 1025.28H1332.85V1029.26H1325.57C1321.67 1029.26 1318.29 1028.98 1315.31 1028.35C1312.33 1027.72 1309.81 1026.93 1307.63 1025.85C1305.45 1024.77 1303.67 1023.52 1302.18 1021.98C1300.75 1020.5 1299.55 1018.79 1298.69 1016.97C1297.83 1015.15 1297.2 1013.22 1296.85 1011.11C1296.51 1009.07 1296.34 1006.91 1296.34 1004.69C1296.34 1001.73 1296.85 998.941 1297.94 996.268C1298.97 993.594 1300.58 991.262 1302.7 989.214C1304.82 987.166 1307.4 985.573 1310.55 984.379C1313.65 983.184 1317.32 982.559 1321.44 982.559C1322.48 982.559 1323.51 982.672 1324.65 982.9C1325.8 983.127 1326.95 983.469 1328.09 983.867C1329.24 984.322 1330.39 984.834 1331.48 985.517C1332.57 986.199 1333.65 986.939 1334.63 987.849L1332.39 991.148Z" fill="black"/>
<path d="M1374.7 991.148C1372.98 989.783 1371.32 988.759 1369.54 988.076C1367.82 987.394 1365.81 987.052 1363.58 987.052C1361.11 987.052 1358.99 987.508 1357.1 988.475C1355.21 989.442 1353.66 990.693 1352.4 992.286C1351.14 993.879 1350.16 995.756 1349.47 997.86C1348.79 999.965 1348.5 1002.18 1348.5 1004.57C1348.5 1005.65 1348.56 1006.96 1348.73 1008.38C1348.9 1009.81 1349.19 1011.29 1349.65 1012.88C1350.11 1014.41 1350.74 1015.89 1351.65 1017.37C1352.51 1018.85 1353.66 1020.16 1355.09 1021.35C1356.53 1022.55 1358.25 1023.46 1360.37 1024.2C1362.49 1024.94 1364.95 1025.28 1367.88 1025.28H1375.16V1029.26H1367.88C1363.98 1029.26 1360.6 1028.98 1357.62 1028.35C1354.69 1027.72 1352.11 1026.93 1349.93 1025.85C1347.76 1024.77 1345.98 1023.52 1344.49 1021.98C1343 1020.44 1341.85 1018.79 1340.99 1016.97C1340.13 1015.15 1339.5 1013.22 1339.16 1011.11C1338.81 1009.07 1338.64 1006.91 1338.64 1004.69C1338.64 1001.73 1339.16 998.941 1340.25 996.268C1341.28 993.594 1342.88 991.262 1345 989.214C1347.12 987.166 1349.7 985.573 1352.86 984.379C1355.95 983.184 1359.62 982.559 1363.75 982.559C1364.78 982.559 1365.81 982.672 1366.96 982.9C1368.11 983.127 1369.25 983.469 1370.4 983.867C1371.54 984.322 1372.69 984.834 1373.78 985.517C1374.87 986.199 1375.96 986.939 1376.93 987.849L1374.7 991.148Z" fill="black"/>
<path d="M1402.67 982.559C1406 982.559 1408.81 983.184 1411.1 984.379C1413.39 985.573 1415.29 987.223 1416.72 989.328C1418.15 991.376 1419.24 993.765 1419.87 996.495C1420.5 999.226 1420.85 1002.07 1420.85 1005.08V1007.36H1390.69C1390.69 1009.18 1390.98 1011.11 1391.55 1013.22C1392.13 1015.32 1393.1 1017.26 1394.42 1019.02C1395.74 1020.78 1397.46 1022.26 1399.58 1023.46C1401.7 1024.65 1404.28 1025.22 1407.32 1025.22H1417.52V1029.2H1407.2C1402.62 1029.2 1398.72 1028.69 1395.39 1027.67C1392.07 1026.64 1389.37 1025.11 1387.25 1023.17C1385.13 1021.18 1383.53 1018.79 1382.55 1015.95C1381.52 1013.11 1381.06 1009.86 1381.06 1006.17C1381.06 1003.15 1381.52 1000.19 1382.5 997.349C1383.47 994.504 1384.85 992.001 1386.68 989.783C1388.51 987.621 1390.81 985.858 1393.5 984.55C1396.08 983.241 1399.18 982.559 1402.67 982.559ZM1402.16 986.996C1400.15 986.996 1398.43 987.451 1397 988.361C1395.57 989.271 1394.36 990.466 1393.44 992.001C1392.53 993.537 1391.84 995.244 1391.38 997.235C1390.92 999.226 1390.69 1001.27 1390.69 1003.44H1411.39V1001.33C1411.33 999.453 1411.16 997.633 1410.87 995.926C1410.58 994.22 1410.13 992.684 1409.44 991.376C1408.75 990.067 1407.83 988.987 1406.69 988.19C1405.48 987.394 1403.99 986.996 1402.16 986.996Z" fill="black"/>
<path d="M1442.63 982.559C1444 982.559 1445.21 982.615 1446.18 982.729C1447.21 982.843 1448.13 983.014 1449.05 983.241C1449.96 983.469 1450.82 983.753 1451.68 984.038C1452.54 984.322 1453.52 984.663 1454.61 985.005L1454.49 989.271C1452.94 988.702 1451.34 988.247 1449.62 987.792C1447.9 987.394 1445.89 987.166 1443.6 987.166C1443.14 987.166 1442.51 987.223 1441.82 987.337C1441.14 987.451 1440.51 987.678 1439.87 988.019C1439.24 988.304 1438.73 988.759 1438.33 989.271C1437.93 989.783 1437.7 990.409 1437.7 991.148C1437.7 992.001 1438.1 993.025 1438.84 994.22C1439.59 995.414 1440.85 996.893 1442.51 998.714L1447.73 1004.57C1448.82 1005.82 1449.96 1007.08 1451.05 1008.21C1452.14 1009.41 1453.12 1010.55 1453.98 1011.68C1454.84 1012.82 1455.52 1013.96 1456.04 1015.04C1456.56 1016.18 1456.84 1017.26 1456.84 1018.34C1456.84 1020.5 1456.33 1022.26 1455.35 1023.8C1454.38 1025.28 1453.12 1026.53 1451.51 1027.44C1449.96 1028.41 1448.19 1029.09 1446.18 1029.49C1444.23 1029.89 1442.23 1030.11 1440.22 1030.11C1437.47 1030.11 1435 1029.83 1432.82 1029.2C1430.7 1028.63 1428.7 1027.78 1426.8 1026.64L1427.21 1022.26C1428.7 1023.06 1430.36 1023.74 1432.08 1024.43C1433.86 1025.11 1435.63 1025.45 1437.52 1025.45C1440.62 1025.45 1442.91 1024.94 1444.4 1023.86C1445.95 1022.78 1446.7 1021.24 1446.7 1019.19C1446.7 1017.77 1446.12 1016.29 1444.92 1014.7C1443.72 1013.16 1442.28 1011.46 1440.51 1009.58L1435.35 1003.78C1433.97 1002.07 1432.82 1000.65 1431.85 999.453C1430.87 998.316 1430.13 997.235 1429.5 996.325C1428.87 995.414 1428.47 994.561 1428.18 993.765C1427.89 992.968 1427.78 992.058 1427.78 991.034C1427.78 989.385 1428.18 988.019 1428.93 986.882C1429.67 985.744 1430.76 984.891 1432.08 984.208C1433.4 983.526 1434.94 983.071 1436.72 982.786C1438.67 982.729 1440.56 982.559 1442.63 982.559Z" fill="black"/>
<path d="M1478.35 982.559C1479.72 982.559 1480.92 982.615 1481.9 982.729C1482.93 982.843 1483.85 983.014 1484.77 983.241C1485.68 983.469 1486.54 983.753 1487.4 984.038C1488.26 984.322 1489.24 984.663 1490.33 985.005L1490.21 989.271C1488.66 988.702 1487.06 988.247 1485.34 987.792C1483.62 987.394 1481.61 987.166 1479.32 987.166C1478.86 987.166 1478.23 987.223 1477.54 987.337C1476.85 987.451 1476.22 987.678 1475.59 988.019C1474.96 988.304 1474.45 988.759 1474.05 989.271C1473.64 989.783 1473.42 990.409 1473.42 991.148C1473.42 992.001 1473.82 993.025 1474.56 994.22C1475.31 995.414 1476.57 996.893 1478.23 998.714L1483.45 1004.57C1484.54 1005.82 1485.68 1007.08 1486.77 1008.21C1487.86 1009.41 1488.84 1010.55 1489.7 1011.68C1490.56 1012.82 1491.24 1013.96 1491.76 1015.04C1492.28 1016.18 1492.56 1017.26 1492.56 1018.34C1492.56 1020.5 1492.05 1022.26 1491.07 1023.8C1490.1 1025.28 1488.84 1026.53 1487.23 1027.44C1485.68 1028.41 1483.91 1029.09 1481.9 1029.49C1479.95 1029.89 1477.94 1030.11 1475.94 1030.11C1473.19 1030.11 1470.72 1029.83 1468.54 1029.2C1466.42 1028.63 1464.42 1027.78 1462.52 1026.64L1462.92 1022.26C1464.42 1023.06 1466.08 1023.74 1467.8 1024.43C1469.57 1025.11 1471.35 1025.45 1473.24 1025.45C1476.34 1025.45 1478.63 1024.94 1480.12 1023.86C1481.67 1022.78 1482.42 1021.24 1482.42 1019.19C1482.42 1017.77 1481.84 1016.29 1480.64 1014.7C1479.43 1013.16 1478 1011.46 1476.22 1009.58L1471.06 1003.78C1469.69 1002.07 1468.54 1000.65 1467.57 999.453C1466.59 998.316 1465.85 997.235 1465.22 996.325C1464.59 995.414 1464.19 994.561 1463.9 993.765C1463.61 992.968 1463.5 992.058 1463.5 991.034C1463.5 989.385 1463.9 988.019 1464.64 986.882C1465.39 985.744 1466.48 984.891 1467.8 984.208C1469.12 983.526 1470.66 983.071 1472.44 982.786C1474.39 982.729 1476.28 982.559 1478.35 982.559Z" fill="black"/>
<path d="M1522.54 982.559C1525.92 982.559 1529.08 983.184 1532 984.436C1534.92 985.687 1537.5 987.394 1539.68 989.555C1541.86 991.717 1543.52 994.22 1544.78 997.121C1546.05 1000.02 1546.62 1003.09 1546.62 1006.39C1546.62 1009.69 1545.99 1012.82 1544.78 1015.67C1543.52 1018.57 1541.86 1021.07 1539.68 1023.23C1537.5 1025.39 1534.98 1027.1 1532 1028.35C1529.08 1029.6 1525.92 1030.23 1522.54 1030.23C1519.27 1030.23 1516.18 1029.6 1513.26 1028.35C1510.39 1027.1 1507.87 1025.39 1505.69 1023.23C1503.51 1021.07 1501.85 1018.57 1500.59 1015.67C1499.33 1012.76 1498.7 1009.69 1498.7 1006.39C1498.7 1003.15 1499.33 1000.02 1500.59 997.121C1501.85 994.22 1503.57 991.717 1505.69 989.555C1507.87 987.394 1510.33 985.687 1513.26 984.436C1516.18 983.184 1519.27 982.559 1522.54 982.559ZM1522.49 986.996C1519.96 986.996 1517.78 987.508 1516.06 988.475C1514.34 989.442 1512.91 990.807 1511.82 992.57C1510.73 994.334 1509.99 996.381 1509.47 998.771C1509.01 1001.16 1508.78 1003.78 1508.78 1006.56C1508.78 1009.35 1509.01 1011.91 1509.53 1014.3C1509.99 1016.69 1510.79 1018.74 1511.88 1020.44C1512.97 1022.15 1514.35 1023.52 1516.12 1024.48C1517.9 1025.45 1520.02 1025.96 1522.49 1025.96C1525.01 1025.96 1527.13 1025.51 1528.91 1024.48C1530.68 1023.52 1532.12 1022.15 1533.2 1020.44C1534.35 1018.74 1535.15 1016.69 1535.67 1014.3C1536.19 1011.91 1536.42 1009.35 1536.42 1006.56C1536.42 1003.72 1536.19 1001.16 1535.67 998.771C1535.15 996.381 1534.35 994.277 1533.2 992.57C1532.06 990.864 1530.63 989.442 1528.91 988.475C1527.13 987.451 1525.01 986.996 1522.49 986.996Z" fill="black"/>
<path d="M1566.51 987.109C1567.83 986.199 1568.97 985.459 1569.95 984.89C1570.92 984.322 1571.84 983.866 1572.64 983.525C1573.44 983.184 1574.13 982.956 1574.82 982.843C1575.51 982.729 1576.14 982.672 1576.83 982.672C1579.35 982.672 1581.24 983.525 1582.5 985.289C1583.76 987.052 1584.45 989.498 1584.68 992.74L1576.14 995.243C1575.79 992.911 1575.39 991.261 1574.82 990.294C1574.25 989.327 1573.39 988.815 1572.24 988.815C1571.55 988.815 1570.75 988.986 1569.83 989.27C1568.92 989.555 1567.83 990.067 1566.57 990.749V1029.37H1556.65V983.468H1566.57V987.109H1566.51Z" fill="black"/>
<path d="M1602.1 975.847H1592.19V970.045H1602.1V975.847ZM1602.1 1029.2H1592.19V983.47H1602.1V1029.2Z" fill="black"/>
<path d="M1634.1 982.559C1637.42 982.559 1640.23 983.184 1642.52 984.379C1644.82 985.573 1646.71 987.223 1648.14 989.328C1649.57 991.376 1650.66 993.765 1651.29 996.495C1651.92 999.226 1652.27 1002.07 1652.27 1005.08V1007.36H1622.11C1622.11 1009.18 1622.4 1011.11 1622.97 1013.22C1623.55 1015.32 1624.52 1017.26 1625.84 1019.02C1627.16 1020.78 1628.88 1022.26 1631 1023.46C1633.12 1024.65 1635.7 1025.22 1638.74 1025.22H1648.94V1029.2H1638.62C1634.04 1029.2 1630.14 1028.69 1626.82 1027.67C1623.49 1026.64 1620.8 1025.11 1618.68 1023.17C1616.55 1021.18 1614.95 1018.79 1613.97 1015.95C1612.94 1013.11 1612.48 1009.86 1612.48 1006.17C1612.48 1003.15 1612.94 1000.19 1613.92 997.349C1614.89 994.504 1616.27 992.001 1618.1 989.783C1619.94 987.621 1622.23 985.858 1624.92 984.55C1627.5 983.241 1630.6 982.559 1634.1 982.559ZM1633.58 986.996C1631.57 986.996 1629.85 987.451 1628.42 988.361C1626.99 989.271 1625.78 990.466 1624.87 992.001C1623.95 993.537 1623.26 995.244 1622.8 997.235C1622.34 999.226 1622.11 1001.27 1622.11 1003.44H1642.81V1001.33C1642.75 999.453 1642.58 997.633 1642.29 995.926C1642.01 994.22 1641.55 992.684 1640.86 991.376C1640.17 990.067 1639.26 988.987 1638.11 988.19C1636.9 987.394 1635.41 986.996 1633.58 986.996Z" fill="black"/>
<path d="M1674.05 982.559C1675.42 982.559 1676.63 982.615 1677.6 982.729C1678.63 982.843 1679.55 983.014 1680.47 983.241C1681.39 983.469 1682.25 983.753 1683.11 984.038C1683.97 984.322 1684.94 984.663 1686.03 985.005L1685.91 989.271C1684.37 988.702 1682.76 988.247 1681.04 987.792C1679.32 987.394 1677.32 987.166 1675.02 987.166C1674.56 987.166 1673.93 987.223 1673.25 987.337C1672.56 987.451 1671.93 987.678 1671.3 988.019C1670.67 988.304 1670.15 988.759 1669.75 989.271C1669.35 989.783 1669.12 990.409 1669.12 991.148C1669.12 992.001 1669.52 993.025 1670.26 994.22C1671.01 995.414 1672.27 996.893 1673.93 998.714L1679.15 1004.57C1680.24 1005.82 1681.39 1007.08 1682.47 1008.21C1683.56 1009.41 1684.54 1010.55 1685.4 1011.68C1686.26 1012.82 1686.95 1013.96 1687.46 1015.04C1687.98 1016.18 1688.26 1017.26 1688.26 1018.34C1688.26 1020.5 1687.75 1022.26 1686.77 1023.8C1685.8 1025.28 1684.54 1026.53 1682.93 1027.44C1681.39 1028.41 1679.61 1029.09 1677.6 1029.49C1675.65 1029.89 1673.65 1030.11 1671.64 1030.11C1668.89 1030.11 1666.42 1029.83 1664.25 1029.2C1662.12 1028.63 1660.12 1027.78 1658.23 1026.64L1658.63 1022.26C1660.12 1023.06 1661.78 1023.74 1663.5 1024.43C1665.28 1025.11 1667.05 1025.45 1668.95 1025.45C1672.04 1025.45 1674.33 1024.94 1675.83 1023.86C1677.37 1022.78 1678.12 1021.24 1678.12 1019.19C1678.12 1017.77 1677.55 1016.29 1676.34 1014.7C1675.14 1013.16 1673.7 1011.46 1671.93 1009.58L1666.77 1003.78C1665.39 1002.07 1664.25 1000.65 1663.27 999.453C1662.3 998.316 1661.55 997.235 1660.92 996.325C1660.29 995.414 1659.89 994.561 1659.6 993.765C1659.32 992.968 1659.2 992.058 1659.2 991.034C1659.2 989.385 1659.6 988.019 1660.35 986.882C1661.09 985.744 1662.18 984.891 1663.5 984.208C1664.82 983.526 1666.37 983.071 1668.14 982.786C1670.04 982.729 1671.98 982.559 1674.05 982.559Z" fill="black"/>
</g>
<defs>
<clipPath id="clip0_717_2481">
<rect width="1394.02" height="584.828" fill="white" transform="translate(584.828 563.094)"/>
</clipPath>
</defs>
</svg>
