<svg width="2560" height="1708" viewBox="0 0 2560 1708" fill="none" xmlns="http://www.w3.org/2000/svg">
<rect y="0.667969" width="2560" height="1706.67" fill="white"/>
<path fill-rule="evenodd" clip-rule="evenodd" d="M1250.6 504.576H1310.2V663.524H1250.6V504.576ZM1190.83 663.531H1250.44V822.479H1190.83V663.531ZM1191.01 822.489H1131.4V981.437H1131.45L1131.45 1041L1429.48 1041V981.397H1429.26V822.489H1369.65V981.397H1191.01V822.489ZM1131.4 1199.97H1071.8L1071.8 1041.03L1131.4 1041.03L1131.4 1199.97ZM1429.24 1199.97H1488.85V1041.03L1429.24 1041.03V1199.97ZM1369.58 663.531H1309.97V822.479H1369.58V663.531ZM1400.02 570.804H1389.63V513.931H1369.65V504.576H1419.91V513.931H1400.02V570.804ZM1437.12 570.804H1427V504.576H1440.44L1457.89 555.521H1458.06L1475.43 504.576H1488.86V570.804H1478.74V520.601H1478.57L1462.08 570.804H1453.79L1437.29 520.601H1437.12V570.804Z" fill="black"/>
</svg>
