<svg width="2560" height="1707" viewBox="0 0 2560 1707" fill="none" xmlns="http://www.w3.org/2000/svg">
<rect width="2560" height="1706.67" fill="white"/>
<g clip-path="url(#clip0_717_2193)">
<path d="M1131.14 571.68C1140.17 571.68 1147.49 564.332 1147.49 555.269C1147.49 546.205 1140.17 538.858 1131.14 538.858C1122.1 538.858 1114.78 546.205 1114.78 555.269C1114.78 564.332 1122.1 571.68 1131.14 571.68Z" fill="black"/>
<path d="M1131.13 613.452C1139.35 613.452 1146 606.772 1146 598.533C1146 590.293 1139.35 583.614 1131.13 583.614C1122.92 583.614 1116.27 590.293 1116.27 598.533C1116.27 606.772 1122.92 613.452 1131.13 613.452Z" fill="black"/>
<path d="M1131.13 655.226C1139.35 655.226 1146 648.546 1146 640.307C1146 632.067 1139.35 625.388 1131.13 625.388C1122.92 625.388 1116.27 632.067 1116.27 640.307C1116.27 648.546 1122.92 655.226 1131.13 655.226Z" fill="black"/>
<path d="M1131.14 695.507C1138.53 695.507 1144.52 689.495 1144.52 682.08C1144.52 674.664 1138.53 668.653 1131.14 668.653C1123.75 668.653 1117.76 674.664 1117.76 682.08C1117.76 689.495 1123.75 695.507 1131.14 695.507Z" fill="black"/>
<path d="M1131.14 737.28C1137.71 737.28 1143.03 731.936 1143.03 725.345C1143.03 718.753 1137.71 713.41 1131.14 713.41C1124.57 713.41 1119.24 718.753 1119.24 725.345C1119.24 731.936 1124.57 737.28 1131.14 737.28Z" fill="black"/>
<path d="M1131.13 777.56C1136.88 777.56 1141.54 772.885 1141.54 767.117C1141.54 761.349 1136.88 756.674 1131.13 756.674C1125.39 756.674 1120.73 761.349 1120.73 767.117C1120.73 772.885 1125.39 777.56 1131.13 777.56Z" fill="black"/>
<path d="M1131.14 819.332C1136.07 819.332 1140.06 815.325 1140.06 810.381C1140.06 805.437 1136.07 801.43 1131.14 801.43C1126.21 801.43 1122.22 805.437 1122.22 810.381C1122.22 815.325 1126.21 819.332 1131.14 819.332Z" fill="black"/>
<path d="M1088.03 614.945C1097.06 614.945 1104.38 607.597 1104.38 598.534C1104.38 589.47 1097.06 582.123 1088.03 582.123C1078.99 582.123 1071.67 589.47 1071.67 598.534C1071.67 607.597 1078.99 614.945 1088.03 614.945Z" fill="black"/>
<path d="M1088.02 655.226C1096.24 655.226 1102.89 648.547 1102.89 640.307C1102.89 632.068 1096.24 625.388 1088.02 625.388C1079.81 625.388 1073.16 632.068 1073.16 640.307C1073.16 648.547 1079.81 655.226 1088.02 655.226Z" fill="black"/>
<path d="M1088.02 695.507C1095.41 695.507 1101.4 689.496 1101.4 682.08C1101.4 674.665 1095.41 668.653 1088.02 668.653C1080.63 668.653 1074.64 674.665 1074.64 682.08C1074.64 689.496 1080.63 695.507 1088.02 695.507Z" fill="black"/>
<path d="M1088.02 737.279C1094.59 737.279 1099.91 731.935 1099.91 725.344C1099.91 718.752 1094.59 713.409 1088.02 713.409C1081.45 713.409 1076.12 718.752 1076.12 725.344C1076.12 731.935 1081.45 737.279 1088.02 737.279Z" fill="black"/>
<path d="M1088.02 777.56C1093.76 777.56 1098.42 772.885 1098.42 767.117C1098.42 761.349 1093.76 756.674 1088.02 756.674C1082.27 756.674 1077.61 761.349 1077.61 767.117C1077.61 772.885 1082.27 777.56 1088.02 777.56Z" fill="black"/>
<path d="M1088.02 819.332C1092.95 819.332 1096.94 815.325 1096.94 810.381C1096.94 805.437 1092.95 801.43 1088.02 801.43C1083.1 801.43 1079.1 805.437 1079.1 810.381C1079.1 815.325 1083.1 819.332 1088.02 819.332Z" fill="black"/>
<path d="M1046.39 656.719C1055.43 656.719 1062.75 649.372 1062.75 640.308C1062.75 631.245 1055.43 623.897 1046.39 623.897C1037.36 623.897 1030.04 631.245 1030.04 640.308C1030.04 649.372 1037.36 656.719 1046.39 656.719Z" fill="black"/>
<path d="M1046.4 695.507C1053.79 695.507 1059.78 689.496 1059.78 682.08C1059.78 674.665 1053.79 668.653 1046.4 668.653C1039.01 668.653 1033.02 674.665 1033.02 682.08C1033.02 689.496 1039.01 695.507 1046.4 695.507Z" fill="black"/>
<path d="M1046.39 737.279C1052.96 737.279 1058.29 731.935 1058.29 725.344C1058.29 718.752 1052.96 713.409 1046.39 713.409C1039.83 713.409 1034.5 718.752 1034.5 725.344C1034.5 731.935 1039.83 737.279 1046.39 737.279Z" fill="black"/>
<path d="M1046.39 777.56C1052.14 777.56 1056.8 772.885 1056.8 767.117C1056.8 761.349 1052.14 756.674 1046.39 756.674C1040.64 756.674 1035.98 761.349 1035.98 767.117C1035.98 772.885 1040.64 777.56 1046.39 777.56Z" fill="black"/>
<path d="M1046.39 819.332C1051.32 819.332 1055.31 815.325 1055.31 810.381C1055.31 805.437 1051.32 801.43 1046.39 801.43C1041.46 801.43 1037.47 805.437 1037.47 810.381C1037.47 815.325 1041.46 819.332 1046.39 819.332Z" fill="black"/>
<path d="M1004.76 698.491C1013.79 698.491 1021.12 691.143 1021.12 682.08C1021.12 673.016 1013.79 665.669 1004.76 665.669C995.729 665.669 988.406 673.016 988.406 682.08C988.406 691.143 995.729 698.491 1004.76 698.491Z" fill="black"/>
<path d="M1004.76 737.279C1011.33 737.279 1016.66 731.935 1016.66 725.344C1016.66 718.752 1011.33 713.409 1004.76 713.409C998.192 713.409 992.867 718.752 992.867 725.344C992.867 731.935 998.192 737.279 1004.76 737.279Z" fill="black"/>
<path d="M1004.76 777.56C1010.51 777.56 1015.17 772.885 1015.17 767.117C1015.17 761.349 1010.51 756.674 1004.76 756.674C999.011 756.674 994.352 761.349 994.352 767.117C994.352 772.885 999.011 777.56 1004.76 777.56Z" fill="black"/>
<path d="M1004.76 819.332C1009.68 819.332 1013.68 815.325 1013.68 810.381C1013.68 805.437 1009.68 801.43 1004.76 801.43C999.83 801.43 995.836 805.437 995.836 810.381C995.836 815.325 999.83 819.332 1004.76 819.332Z" fill="black"/>
<path d="M961.644 741.755C970.676 741.755 977.999 734.408 977.999 725.344C977.999 716.281 970.676 708.934 961.644 708.934C952.611 708.934 945.289 716.281 945.289 725.344C945.289 734.408 952.611 741.755 961.644 741.755Z" fill="black"/>
<path d="M961.644 783.53C970.676 783.53 977.999 776.182 977.999 767.119C977.999 758.055 970.676 750.708 961.644 750.708C952.611 750.708 945.289 758.055 945.289 767.119C945.289 776.182 952.611 783.53 961.644 783.53Z" fill="black"/>
<path d="M961.644 826.794C970.676 826.794 977.999 819.447 977.999 810.383C977.999 801.32 970.676 793.973 961.644 793.973C952.611 793.973 945.289 801.32 945.289 810.383C945.289 819.447 952.611 826.794 961.644 826.794Z" fill="black"/>
<path d="M1172.77 571.68C1181.8 571.68 1189.12 564.332 1189.12 555.269C1189.12 546.205 1181.8 538.858 1172.77 538.858C1163.74 538.858 1156.41 546.205 1156.41 555.269C1156.41 564.332 1163.74 571.68 1172.77 571.68Z" fill="black"/>
<path d="M1172.77 613.452C1180.98 613.452 1187.63 606.772 1187.63 598.533C1187.63 590.293 1180.98 583.614 1172.77 583.614C1164.56 583.614 1157.9 590.293 1157.9 598.533C1157.9 606.772 1164.56 613.452 1172.77 613.452Z" fill="black"/>
<path d="M1172.77 655.226C1180.98 655.226 1187.63 648.547 1187.63 640.307C1187.63 632.068 1180.98 625.388 1172.77 625.388C1164.56 625.388 1157.9 632.068 1157.9 640.307C1157.9 648.547 1164.56 655.226 1172.77 655.226Z" fill="black"/>
<path d="M1172.77 695.507C1180.16 695.507 1186.15 689.496 1186.15 682.08C1186.15 674.665 1180.16 668.653 1172.77 668.653C1165.38 668.653 1159.39 674.665 1159.39 682.08C1159.39 689.496 1165.38 695.507 1172.77 695.507Z" fill="black"/>
<path d="M1172.77 737.28C1179.34 737.28 1184.66 731.936 1184.66 725.345C1184.66 718.753 1179.34 713.41 1172.77 713.41C1166.2 713.41 1160.88 718.753 1160.88 725.345C1160.88 731.936 1166.2 737.28 1172.77 737.28Z" fill="black"/>
<path d="M1215.89 614.945C1224.92 614.945 1232.24 607.597 1232.24 598.534C1232.24 589.47 1224.92 582.123 1215.89 582.123C1206.85 582.123 1199.53 589.47 1199.53 598.534C1199.53 607.597 1206.85 614.945 1215.89 614.945Z" fill="black"/>
<path d="M1215.88 655.226C1224.1 655.226 1230.75 648.546 1230.75 640.307C1230.75 632.067 1224.1 625.388 1215.88 625.388C1207.67 625.388 1201.02 632.067 1201.02 640.307C1201.02 648.546 1207.67 655.226 1215.88 655.226Z" fill="black"/>
<path d="M1215.89 695.507C1223.28 695.507 1229.27 689.495 1229.27 682.08C1229.27 674.664 1223.28 668.653 1215.89 668.653C1208.5 668.653 1202.51 674.664 1202.51 682.08C1202.51 689.495 1208.5 695.507 1215.89 695.507Z" fill="black"/>
<path d="M1257.52 656.719C1266.55 656.719 1273.87 649.372 1273.87 640.308C1273.87 631.245 1266.55 623.897 1257.52 623.897C1248.49 623.897 1241.16 631.245 1241.16 640.308C1241.16 649.372 1248.49 656.719 1257.52 656.719Z" fill="black"/>
<path d="M1257.51 695.507C1264.9 695.507 1270.9 689.495 1270.9 682.08C1270.9 674.664 1264.9 668.653 1257.51 668.653C1250.12 668.653 1244.13 674.664 1244.13 682.08C1244.13 689.495 1250.12 695.507 1257.51 695.507Z" fill="black"/>
<path d="M1215.89 737.28C1222.46 737.28 1227.78 731.936 1227.78 725.345C1227.78 718.753 1222.46 713.41 1215.89 713.41C1209.32 713.41 1203.99 718.753 1203.99 725.345C1203.99 731.936 1209.32 737.28 1215.89 737.28Z" fill="black"/>
<path d="M1172.77 777.561C1178.51 777.561 1183.17 772.886 1183.17 767.118C1183.17 761.35 1178.51 756.675 1172.77 756.675C1167.02 756.675 1162.36 761.35 1162.36 767.118C1162.36 772.886 1167.02 777.561 1172.77 777.561Z" fill="black"/>
<path d="M1427.01 564.221C1431.94 564.221 1435.94 560.213 1435.94 555.27C1435.94 550.326 1431.94 546.318 1427.01 546.318C1422.09 546.318 1418.09 550.326 1418.09 555.27C1418.09 560.213 1422.09 564.221 1427.01 564.221Z" fill="black"/>
<path d="M1427.01 608.976C1432.76 608.976 1437.42 604.3 1437.42 598.533C1437.42 592.765 1432.76 588.089 1427.01 588.089C1421.26 588.089 1416.6 592.765 1416.6 598.533C1416.6 604.3 1421.26 608.976 1427.01 608.976Z" fill="black"/>
<path d="M1427.01 652.243C1433.58 652.243 1438.91 646.9 1438.91 640.308C1438.91 633.717 1433.58 628.373 1427.01 628.373C1420.44 628.373 1415.12 633.717 1415.12 640.308C1415.12 646.9 1420.44 652.243 1427.01 652.243Z" fill="black"/>
<path d="M1427.01 695.507C1434.4 695.507 1440.4 689.496 1440.4 682.08C1440.4 674.665 1434.4 668.653 1427.01 668.653C1419.62 668.653 1413.63 674.665 1413.63 682.08C1413.63 689.496 1419.62 695.507 1427.01 695.507Z" fill="black"/>
<path d="M1427.02 740.262C1435.23 740.262 1441.88 733.582 1441.88 725.343C1441.88 717.103 1435.23 710.424 1427.02 710.424C1418.81 710.424 1412.15 717.103 1412.15 725.343C1412.15 733.582 1418.81 740.262 1427.02 740.262Z" fill="black"/>
<path d="M1427.02 782.036C1435.23 782.036 1441.88 775.357 1441.88 767.117C1441.88 758.878 1435.23 752.198 1427.02 752.198C1418.81 752.198 1412.15 758.878 1412.15 767.117C1412.15 775.357 1418.81 782.036 1427.02 782.036Z" fill="black"/>
<path d="M1427.01 826.794C1436.04 826.794 1443.37 819.447 1443.37 810.383C1443.37 801.32 1436.04 793.973 1427.01 793.973C1417.98 793.973 1410.66 801.32 1410.66 810.383C1410.66 819.447 1417.98 826.794 1427.01 826.794Z" fill="black"/>
<path d="M1468.64 608.976C1474.39 608.976 1479.05 604.3 1479.05 598.533C1479.05 592.765 1474.39 588.089 1468.64 588.089C1462.89 588.089 1458.23 592.765 1458.23 598.533C1458.23 604.3 1462.89 608.976 1468.64 608.976Z" fill="black"/>
<path d="M1468.64 652.243C1475.21 652.243 1480.54 646.9 1480.54 640.308C1480.54 633.717 1475.21 628.373 1468.64 628.373C1462.08 628.373 1456.75 633.717 1456.75 640.308C1456.75 646.9 1462.08 652.243 1468.64 652.243Z" fill="black"/>
<path d="M1468.64 695.507C1476.03 695.507 1482.02 689.496 1482.02 682.08C1482.02 674.665 1476.03 668.653 1468.64 668.653C1461.25 668.653 1455.26 674.665 1455.26 682.08C1455.26 689.496 1461.25 695.507 1468.64 695.507Z" fill="black"/>
<path d="M1468.64 740.262C1476.85 740.262 1483.51 733.582 1483.51 725.343C1483.51 717.103 1476.85 710.424 1468.64 710.424C1460.43 710.424 1453.77 717.103 1453.77 725.343C1453.77 733.582 1460.43 740.262 1468.64 740.262Z" fill="black"/>
<path d="M1468.64 782.036C1476.85 782.036 1483.51 775.357 1483.51 767.117C1483.51 758.878 1476.85 752.198 1468.64 752.198C1460.43 752.198 1453.77 758.878 1453.77 767.117C1453.77 775.357 1460.43 782.036 1468.64 782.036Z" fill="black"/>
<path d="M1468.64 826.794C1477.68 826.794 1485 819.447 1485 810.383C1485 801.32 1477.68 793.973 1468.64 793.973C1459.61 793.973 1452.29 801.32 1452.29 810.383C1452.29 819.447 1459.61 826.794 1468.64 826.794Z" fill="black"/>
<path d="M1510.27 652.243C1516.84 652.243 1522.16 646.9 1522.16 640.308C1522.16 633.717 1516.84 628.373 1510.27 628.373C1503.7 628.373 1498.38 633.717 1498.38 640.308C1498.38 646.9 1503.7 652.243 1510.27 652.243Z" fill="black"/>
<path d="M1510.27 695.507C1517.66 695.507 1523.65 689.496 1523.65 682.08C1523.65 674.665 1517.66 668.653 1510.27 668.653C1502.88 668.653 1496.89 674.665 1496.89 682.08C1496.89 689.496 1502.88 695.507 1510.27 695.507Z" fill="black"/>
<path d="M1510.27 740.262C1518.49 740.262 1525.14 733.582 1525.14 725.343C1525.14 717.103 1518.49 710.424 1510.27 710.424C1502.06 710.424 1495.41 717.103 1495.41 725.343C1495.41 733.582 1502.06 740.262 1510.27 740.262Z" fill="black"/>
<path d="M1510.27 782.036C1518.49 782.036 1525.14 775.357 1525.14 767.117C1525.14 758.878 1518.49 752.198 1510.27 752.198C1502.06 752.198 1495.41 758.878 1495.41 767.117C1495.41 775.357 1502.06 782.036 1510.27 782.036Z" fill="black"/>
<path d="M1510.27 826.794C1519.3 826.794 1526.62 819.447 1526.62 810.383C1526.62 801.32 1519.3 793.973 1510.27 793.973C1501.24 793.973 1493.91 801.32 1493.91 810.383C1493.91 819.447 1501.24 826.794 1510.27 826.794Z" fill="black"/>
<path d="M1553.39 695.507C1560.78 695.507 1566.77 689.495 1566.77 682.08C1566.77 674.664 1560.78 668.653 1553.39 668.653C1546 668.653 1540.01 674.664 1540.01 682.08C1540.01 689.495 1546 695.507 1553.39 695.507Z" fill="black"/>
<path d="M1553.39 740.262C1561.6 740.262 1568.26 733.582 1568.26 725.343C1568.26 717.103 1561.6 710.424 1553.39 710.424C1545.18 710.424 1538.52 717.103 1538.52 725.343C1538.52 733.582 1545.18 740.262 1553.39 740.262Z" fill="black"/>
<path d="M1553.39 782.036C1561.6 782.036 1568.26 775.357 1568.26 767.117C1568.26 758.878 1561.6 752.198 1553.39 752.198C1545.18 752.198 1538.52 758.878 1538.52 767.117C1538.52 775.357 1545.18 782.036 1553.39 782.036Z" fill="black"/>
<path d="M1553.39 826.794C1562.42 826.794 1569.74 819.447 1569.74 810.383C1569.74 801.32 1562.42 793.973 1553.39 793.973C1544.35 793.973 1537.03 801.32 1537.03 810.383C1537.03 819.447 1544.35 826.794 1553.39 826.794Z" fill="black"/>
<path d="M1595.02 741.755C1604.05 741.755 1611.37 734.408 1611.37 725.344C1611.37 716.281 1604.05 708.934 1595.02 708.934C1585.99 708.934 1578.66 716.281 1578.66 725.344C1578.66 734.408 1585.99 741.755 1595.02 741.755Z" fill="black"/>
<path d="M1595.02 783.53C1604.05 783.53 1611.37 776.182 1611.37 767.119C1611.37 758.055 1604.05 750.708 1595.02 750.708C1585.99 750.708 1578.66 758.055 1578.66 767.119C1578.66 776.182 1585.99 783.53 1595.02 783.53Z" fill="black"/>
<path d="M1595.02 826.794C1604.05 826.794 1611.37 819.447 1611.37 810.383C1611.37 801.32 1604.05 793.973 1595.02 793.973C1585.99 793.973 1578.66 801.32 1578.66 810.383C1578.66 819.447 1585.99 826.794 1595.02 826.794Z" fill="black"/>
<path d="M1383.9 564.221C1388.82 564.221 1392.82 560.213 1392.82 555.27C1392.82 550.326 1388.82 546.318 1383.9 546.318C1378.97 546.318 1374.98 550.326 1374.98 555.27C1374.98 560.213 1378.97 564.221 1383.9 564.221Z" fill="black"/>
<path d="M1383.9 608.976C1389.65 608.976 1394.31 604.3 1394.31 598.533C1394.31 592.765 1389.65 588.089 1383.9 588.089C1378.15 588.089 1373.49 592.765 1373.49 598.533C1373.49 604.3 1378.15 608.976 1383.9 608.976Z" fill="black"/>
<path d="M1383.89 652.243C1390.46 652.243 1395.79 646.9 1395.79 640.308C1395.79 633.717 1390.46 628.373 1383.89 628.373C1377.33 628.373 1372 633.717 1372 640.308C1372 646.9 1377.33 652.243 1383.89 652.243Z" fill="black"/>
<path d="M1383.9 695.507C1391.29 695.507 1397.28 689.496 1397.28 682.08C1397.28 674.665 1391.29 668.653 1383.9 668.653C1376.51 668.653 1370.52 674.665 1370.52 682.08C1370.52 689.496 1376.51 695.507 1383.9 695.507Z" fill="black"/>
<path d="M1383.9 740.262C1392.11 740.262 1398.77 733.582 1398.77 725.343C1398.77 717.103 1392.11 710.424 1383.9 710.424C1375.69 710.424 1369.03 717.103 1369.03 725.343C1369.03 733.582 1375.69 740.262 1383.9 740.262Z" fill="black"/>
<path d="M1342.27 608.976C1348.01 608.976 1352.67 604.3 1352.67 598.533C1352.67 592.765 1348.01 588.089 1342.27 588.089C1336.52 588.089 1331.86 592.765 1331.86 598.533C1331.86 604.3 1336.52 608.976 1342.27 608.976Z" fill="black"/>
<path d="M1342.27 652.243C1348.84 652.243 1354.16 646.9 1354.16 640.308C1354.16 633.717 1348.84 628.373 1342.27 628.373C1335.7 628.373 1330.38 633.717 1330.38 640.308C1330.38 646.9 1335.7 652.243 1342.27 652.243Z" fill="black"/>
<path d="M1342.26 695.507C1349.65 695.507 1355.65 689.495 1355.65 682.08C1355.65 674.664 1349.65 668.653 1342.26 668.653C1334.87 668.653 1328.88 674.664 1328.88 682.08C1328.88 689.495 1334.87 695.507 1342.26 695.507Z" fill="black"/>
<path d="M1299.14 652.243C1305.71 652.243 1311.04 646.9 1311.04 640.308C1311.04 633.717 1305.71 628.373 1299.14 628.373C1292.58 628.373 1287.25 633.717 1287.25 640.308C1287.25 646.9 1292.58 652.243 1299.14 652.243Z" fill="black"/>
<path d="M1299.15 698.491C1308.18 698.491 1315.51 691.143 1315.51 682.08C1315.51 673.016 1308.18 665.669 1299.15 665.669C1290.12 665.669 1282.8 673.016 1282.8 682.08C1282.8 691.143 1290.12 698.491 1299.15 698.491Z" fill="black"/>
<path d="M1342.27 741.755C1351.3 741.755 1358.62 734.408 1358.62 725.344C1358.62 716.281 1351.3 708.934 1342.27 708.934C1333.24 708.934 1325.91 716.281 1325.91 725.344C1325.91 734.408 1333.24 741.755 1342.27 741.755Z" fill="black"/>
<path d="M1383.89 783.53C1392.93 783.53 1400.25 776.182 1400.25 767.119C1400.25 758.055 1392.93 750.708 1383.89 750.708C1374.86 750.708 1367.54 758.055 1367.54 767.119C1367.54 776.182 1374.86 783.53 1383.89 783.53Z" fill="black"/>
<path d="M1427.01 1165.45C1436.04 1165.45 1443.37 1158.11 1443.37 1149.04C1443.37 1139.98 1436.04 1132.63 1427.01 1132.63C1417.98 1132.63 1410.66 1139.98 1410.66 1149.04C1410.66 1158.11 1417.98 1165.45 1427.01 1165.45Z" fill="black"/>
<path d="M1427.02 1120.7C1435.23 1120.7 1441.88 1114.02 1441.88 1105.78C1441.88 1097.54 1435.23 1090.86 1427.02 1090.86C1418.81 1090.86 1412.15 1097.54 1412.15 1105.78C1412.15 1114.02 1418.81 1120.7 1427.02 1120.7Z" fill="black"/>
<path d="M1427.02 1078.92C1435.23 1078.92 1441.88 1072.25 1441.88 1064.01C1441.88 1055.77 1435.23 1049.09 1427.02 1049.09C1418.81 1049.09 1412.15 1055.77 1412.15 1064.01C1412.15 1072.25 1418.81 1078.92 1427.02 1078.92Z" fill="black"/>
<path d="M1427.01 1035.66C1434.4 1035.66 1440.4 1029.65 1440.4 1022.23C1440.4 1014.82 1434.4 1008.8 1427.01 1008.8C1419.62 1008.8 1413.63 1014.82 1413.63 1022.23C1413.63 1029.65 1419.62 1035.66 1427.01 1035.66Z" fill="black"/>
<path d="M1427.02 990.903C1433.59 990.903 1438.91 985.559 1438.91 978.967C1438.91 972.376 1433.59 967.032 1427.02 967.032C1420.45 967.032 1415.12 972.376 1415.12 978.967C1415.12 985.559 1420.45 990.903 1427.02 990.903Z" fill="black"/>
<path d="M1427.02 947.639C1432.76 947.639 1437.42 942.964 1437.42 937.196C1437.42 931.429 1432.76 926.753 1427.02 926.753C1421.27 926.753 1416.61 931.429 1416.61 937.196C1416.61 942.964 1421.27 947.639 1427.02 947.639Z" fill="black"/>
<path d="M1427.01 902.881C1431.94 902.881 1435.94 898.874 1435.94 893.93C1435.94 888.986 1431.94 884.979 1427.01 884.979C1422.09 884.979 1418.09 888.986 1418.09 893.93C1418.09 898.874 1422.09 902.881 1427.01 902.881Z" fill="black"/>
<path d="M1468.64 1122.19C1477.68 1122.19 1485 1114.84 1485 1105.78C1485 1096.72 1477.68 1089.37 1468.64 1089.37C1459.61 1089.37 1452.29 1096.72 1452.29 1105.78C1452.29 1114.84 1459.61 1122.19 1468.64 1122.19Z" fill="black"/>
<path d="M1468.64 1078.92C1476.85 1078.92 1483.51 1072.25 1483.51 1064.01C1483.51 1055.77 1476.85 1049.09 1468.64 1049.09C1460.43 1049.09 1453.77 1055.77 1453.77 1064.01C1453.77 1072.25 1460.43 1078.92 1468.64 1078.92Z" fill="black"/>
<path d="M1468.64 1035.66C1476.03 1035.66 1482.02 1029.65 1482.02 1022.23C1482.02 1014.82 1476.03 1008.8 1468.64 1008.8C1461.25 1008.8 1455.26 1014.82 1455.26 1022.23C1455.26 1029.65 1461.25 1035.66 1468.64 1035.66Z" fill="black"/>
<path d="M1468.64 990.903C1475.21 990.903 1480.54 985.559 1480.54 978.967C1480.54 972.376 1475.21 967.032 1468.64 967.032C1462.08 967.032 1456.75 972.376 1456.75 978.967C1456.75 985.559 1462.08 990.903 1468.64 990.903Z" fill="black"/>
<path d="M1468.64 947.639C1474.39 947.639 1479.05 942.964 1479.05 937.196C1479.05 931.429 1474.39 926.753 1468.64 926.753C1462.89 926.753 1458.23 931.429 1458.23 937.196C1458.23 942.964 1462.89 947.639 1468.64 947.639Z" fill="black"/>
<path d="M1468.64 902.881C1473.57 902.881 1477.56 898.874 1477.56 893.93C1477.56 888.986 1473.57 884.979 1468.64 884.979C1463.71 884.979 1459.72 888.986 1459.72 893.93C1459.72 898.874 1463.71 902.881 1468.64 902.881Z" fill="black"/>
<path d="M1510.27 1080.42C1519.3 1080.42 1526.62 1073.07 1526.62 1064C1526.62 1054.94 1519.3 1047.59 1510.27 1047.59C1501.24 1047.59 1493.91 1054.94 1493.91 1064C1493.91 1073.07 1501.24 1080.42 1510.27 1080.42Z" fill="black"/>
<path d="M1510.27 1035.66C1517.66 1035.66 1523.65 1029.65 1523.65 1022.23C1523.65 1014.82 1517.66 1008.8 1510.27 1008.8C1502.88 1008.8 1496.89 1014.82 1496.89 1022.23C1496.89 1029.65 1502.88 1035.66 1510.27 1035.66Z" fill="black"/>
<path d="M1510.27 990.903C1516.84 990.903 1522.16 985.56 1522.16 978.968C1522.16 972.377 1516.84 967.033 1510.27 967.033C1503.7 967.033 1498.38 972.377 1498.38 978.968C1498.38 985.56 1503.7 990.903 1510.27 990.903Z" fill="black"/>
<path d="M1510.27 947.636C1516.02 947.636 1520.68 942.96 1520.68 937.192C1520.68 931.425 1516.02 926.749 1510.27 926.749C1504.53 926.749 1499.87 931.425 1499.87 937.192C1499.87 942.96 1504.53 947.636 1510.27 947.636Z" fill="black"/>
<path d="M1510.27 902.881C1515.2 902.881 1519.19 898.874 1519.19 893.93C1519.19 888.986 1515.2 884.979 1510.27 884.979C1505.35 884.979 1501.35 888.986 1501.35 893.93C1501.35 898.874 1505.35 902.881 1510.27 902.881Z" fill="black"/>
<path d="M1553.39 1038.64C1562.42 1038.64 1569.74 1031.29 1569.74 1022.23C1569.74 1013.17 1562.42 1005.82 1553.39 1005.82C1544.35 1005.82 1537.03 1013.17 1537.03 1022.23C1537.03 1031.29 1544.35 1038.64 1553.39 1038.64Z" fill="black"/>
<path d="M1553.39 990.903C1559.96 990.903 1565.28 985.559 1565.28 978.967C1565.28 972.376 1559.96 967.032 1553.39 967.032C1546.82 967.032 1541.49 972.376 1541.49 978.967C1541.49 985.559 1546.82 990.903 1553.39 990.903Z" fill="black"/>
<path d="M1553.38 947.639C1559.13 947.639 1563.79 942.964 1563.79 937.196C1563.79 931.429 1559.13 926.753 1553.38 926.753C1547.64 926.753 1542.98 931.429 1542.98 937.196C1542.98 942.964 1547.64 947.639 1553.38 947.639Z" fill="black"/>
<path d="M1553.39 902.881C1558.32 902.881 1562.31 898.874 1562.31 893.93C1562.31 888.986 1558.32 884.979 1553.39 884.979C1548.46 884.979 1544.47 888.986 1544.47 893.93C1544.47 898.874 1548.46 902.881 1553.39 902.881Z" fill="black"/>
<path d="M1595.02 995.375C1604.05 995.375 1611.37 988.028 1611.37 978.965C1611.37 969.901 1604.05 962.554 1595.02 962.554C1585.99 962.554 1578.66 969.901 1578.66 978.965C1578.66 988.028 1585.99 995.375 1595.02 995.375Z" fill="black"/>
<path d="M1595.02 953.605C1604.05 953.605 1611.37 946.258 1611.37 937.194C1611.37 928.131 1604.05 920.783 1595.02 920.783C1585.99 920.783 1578.66 928.131 1578.66 937.194C1578.66 946.258 1585.99 953.605 1595.02 953.605Z" fill="black"/>
<path d="M1595.02 910.34C1604.05 910.34 1611.37 902.993 1611.37 893.929C1611.37 884.866 1604.05 877.519 1595.02 877.519C1585.99 877.519 1578.66 884.866 1578.66 893.929C1578.66 902.993 1585.99 910.34 1595.02 910.34Z" fill="black"/>
<path d="M1383.89 1165.45C1392.93 1165.45 1400.25 1158.11 1400.25 1149.04C1400.25 1139.98 1392.93 1132.63 1383.89 1132.63C1374.86 1132.63 1367.54 1139.98 1367.54 1149.04C1367.54 1158.11 1374.86 1165.45 1383.89 1165.45Z" fill="black"/>
<path d="M1383.9 1120.7C1392.11 1120.7 1398.77 1114.02 1398.77 1105.78C1398.77 1097.54 1392.11 1090.86 1383.9 1090.86C1375.69 1090.86 1369.03 1097.54 1369.03 1105.78C1369.03 1114.02 1375.69 1120.7 1383.9 1120.7Z" fill="black"/>
<path d="M1383.9 1078.92C1392.11 1078.92 1398.77 1072.24 1398.77 1064C1398.77 1055.76 1392.11 1049.08 1383.9 1049.08C1375.69 1049.08 1369.03 1055.76 1369.03 1064C1369.03 1072.24 1375.69 1078.92 1383.9 1078.92Z" fill="black"/>
<path d="M1383.9 1035.66C1391.29 1035.66 1397.28 1029.65 1397.28 1022.23C1397.28 1014.82 1391.29 1008.8 1383.9 1008.8C1376.51 1008.8 1370.52 1014.82 1370.52 1022.23C1370.52 1029.65 1376.51 1035.66 1383.9 1035.66Z" fill="black"/>
<path d="M1383.89 990.903C1390.46 990.903 1395.79 985.56 1395.79 978.968C1395.79 972.377 1390.46 967.033 1383.89 967.033C1377.33 967.033 1372 972.377 1372 978.968C1372 985.56 1377.33 990.903 1383.89 990.903Z" fill="black"/>
<path d="M1342.27 1122.19C1351.3 1122.19 1358.62 1114.84 1358.62 1105.78C1358.62 1096.72 1351.3 1089.37 1342.27 1089.37C1333.24 1089.37 1325.91 1096.72 1325.91 1105.78C1325.91 1114.84 1333.24 1122.19 1342.27 1122.19Z" fill="black"/>
<path d="M1342.27 1078.92C1350.48 1078.92 1357.13 1072.24 1357.13 1064C1357.13 1055.76 1350.48 1049.08 1342.27 1049.08C1334.06 1049.08 1327.4 1055.76 1327.4 1064C1327.4 1072.24 1334.06 1078.92 1342.27 1078.92Z" fill="black"/>
<path d="M1342.26 1035.66C1349.65 1035.66 1355.65 1029.65 1355.65 1022.23C1355.65 1014.82 1349.65 1008.8 1342.26 1008.8C1334.87 1008.8 1328.88 1014.82 1328.88 1022.23C1328.88 1029.65 1334.87 1035.66 1342.26 1035.66Z" fill="black"/>
<path d="M1299.15 1080.42C1308.18 1080.42 1315.51 1073.07 1315.51 1064C1315.51 1054.94 1308.18 1047.59 1299.15 1047.59C1290.12 1047.59 1282.8 1054.94 1282.8 1064C1282.8 1073.07 1290.12 1080.42 1299.15 1080.42Z" fill="black"/>
<path d="M1299.15 1035.66C1306.54 1035.66 1312.53 1029.65 1312.53 1022.23C1312.53 1014.82 1306.54 1008.8 1299.15 1008.8C1291.76 1008.8 1285.77 1014.82 1285.77 1022.23C1285.77 1029.65 1291.76 1035.66 1299.15 1035.66Z" fill="black"/>
<path d="M1342.27 990.903C1348.84 990.903 1354.16 985.56 1354.16 978.968C1354.16 972.377 1348.84 967.033 1342.27 967.033C1335.7 967.033 1330.38 972.377 1330.38 978.968C1330.38 985.56 1335.7 990.903 1342.27 990.903Z" fill="black"/>
<path d="M1383.9 947.636C1389.65 947.636 1394.31 942.96 1394.31 937.192C1394.31 931.425 1389.65 926.749 1383.9 926.749C1378.15 926.749 1373.49 931.425 1373.49 937.192C1373.49 942.96 1378.15 947.636 1383.9 947.636Z" fill="black"/>
<path d="M1131.14 1157.99C1136.07 1157.99 1140.06 1153.98 1140.06 1149.04C1140.06 1144.1 1136.07 1140.09 1131.14 1140.09C1126.21 1140.09 1122.22 1144.1 1122.22 1149.04C1122.22 1153.98 1126.21 1157.99 1131.14 1157.99Z" fill="black"/>
<path d="M1131.14 1116.22C1136.89 1116.22 1141.55 1111.54 1141.55 1105.78C1141.55 1100.01 1136.89 1095.33 1131.14 1095.33C1125.39 1095.33 1120.73 1100.01 1120.73 1105.78C1120.73 1111.54 1125.39 1116.22 1131.14 1116.22Z" fill="black"/>
<path d="M1131.14 1075.94C1137.71 1075.94 1143.03 1070.6 1143.03 1064C1143.03 1057.41 1137.71 1052.07 1131.14 1052.07C1124.57 1052.07 1119.24 1057.41 1119.24 1064C1119.24 1070.6 1124.57 1075.94 1131.14 1075.94Z" fill="black"/>
<path d="M1131.14 1035.66C1138.53 1035.66 1144.52 1029.65 1144.52 1022.23C1144.52 1014.82 1138.53 1008.8 1131.14 1008.8C1123.75 1008.8 1117.76 1014.82 1117.76 1022.23C1117.76 1029.65 1123.75 1035.66 1131.14 1035.66Z" fill="black"/>
<path d="M1131.14 993.886C1139.35 993.886 1146.01 987.206 1146.01 978.967C1146.01 970.727 1139.35 964.048 1131.14 964.048C1122.93 964.048 1116.27 970.727 1116.27 978.967C1116.27 987.206 1122.93 993.886 1131.14 993.886Z" fill="black"/>
<path d="M1131.14 952.111C1139.35 952.111 1146.01 945.432 1146.01 937.192C1146.01 928.953 1139.35 922.273 1131.14 922.273C1122.93 922.273 1116.27 928.953 1116.27 937.192C1116.27 945.432 1122.93 952.111 1131.14 952.111Z" fill="black"/>
<path d="M1131.14 910.34C1140.17 910.34 1147.49 902.993 1147.49 893.929C1147.49 884.866 1140.17 877.519 1131.14 877.519C1122.1 877.519 1114.78 884.866 1114.78 893.929C1114.78 902.993 1122.1 910.34 1131.14 910.34Z" fill="black"/>
<path d="M1088.02 1116.22C1093.76 1116.22 1098.42 1111.54 1098.42 1105.78C1098.42 1100.01 1093.76 1095.33 1088.02 1095.33C1082.27 1095.33 1077.61 1100.01 1077.61 1105.78C1077.61 1111.54 1082.27 1116.22 1088.02 1116.22Z" fill="black"/>
<path d="M1088.02 1075.94C1094.59 1075.94 1099.91 1070.6 1099.91 1064C1099.91 1057.41 1094.59 1052.07 1088.02 1052.07C1081.45 1052.07 1076.12 1057.41 1076.12 1064C1076.12 1070.6 1081.45 1075.94 1088.02 1075.94Z" fill="black"/>
<path d="M1088.02 1035.66C1095.41 1035.66 1101.4 1029.65 1101.4 1022.23C1101.4 1014.82 1095.41 1008.8 1088.02 1008.8C1080.63 1008.8 1074.64 1014.82 1074.64 1022.23C1074.64 1029.65 1080.63 1035.66 1088.02 1035.66Z" fill="black"/>
<path d="M1088.02 993.886C1096.24 993.886 1102.89 987.206 1102.89 978.967C1102.89 970.727 1096.24 964.048 1088.02 964.048C1079.81 964.048 1073.16 970.727 1073.16 978.967C1073.16 987.206 1079.81 993.886 1088.02 993.886Z" fill="black"/>
<path d="M1088.02 952.111C1096.24 952.111 1102.89 945.432 1102.89 937.192C1102.89 928.953 1096.24 922.273 1088.02 922.273C1079.81 922.273 1073.16 928.953 1073.16 937.192C1073.16 945.432 1079.81 952.111 1088.02 952.111Z" fill="black"/>
<path d="M1088.03 910.34C1097.06 910.34 1104.38 902.993 1104.38 893.929C1104.38 884.866 1097.06 877.519 1088.03 877.519C1078.99 877.519 1071.67 884.866 1071.67 893.929C1071.67 902.993 1078.99 910.34 1088.03 910.34Z" fill="black"/>
<path d="M1046.39 1075.94C1052.96 1075.94 1058.29 1070.6 1058.29 1064C1058.29 1057.41 1052.96 1052.07 1046.39 1052.07C1039.83 1052.07 1034.5 1057.41 1034.5 1064C1034.5 1070.6 1039.83 1075.94 1046.39 1075.94Z" fill="black"/>
<path d="M1046.4 1035.66C1053.79 1035.66 1059.78 1029.65 1059.78 1022.23C1059.78 1014.82 1053.79 1008.8 1046.4 1008.8C1039.01 1008.8 1033.02 1014.82 1033.02 1022.23C1033.02 1029.65 1039.01 1035.66 1046.4 1035.66Z" fill="black"/>
<path d="M1046.39 993.886C1054.6 993.886 1061.26 987.206 1061.26 978.967C1061.26 970.727 1054.6 964.048 1046.39 964.048C1038.18 964.048 1031.52 970.727 1031.52 978.967C1031.52 987.206 1038.18 993.886 1046.39 993.886Z" fill="black"/>
<path d="M1046.39 952.111C1054.6 952.111 1061.26 945.432 1061.26 937.192C1061.26 928.953 1054.6 922.273 1046.39 922.273C1038.18 922.273 1031.52 928.953 1031.52 937.192C1031.52 945.432 1038.18 952.111 1046.39 952.111Z" fill="black"/>
<path d="M1046.39 910.34C1055.43 910.34 1062.75 902.993 1062.75 893.929C1062.75 884.866 1055.43 877.519 1046.39 877.519C1037.36 877.519 1030.04 884.866 1030.04 893.929C1030.04 902.993 1037.36 910.34 1046.39 910.34Z" fill="black"/>
<path d="M1004.76 1035.66C1012.15 1035.66 1018.15 1029.65 1018.15 1022.23C1018.15 1014.82 1012.15 1008.8 1004.76 1008.8C997.374 1008.8 991.383 1014.82 991.383 1022.23C991.383 1029.65 997.374 1035.66 1004.76 1035.66Z" fill="black"/>
<path d="M1004.76 993.886C1012.97 993.886 1019.63 987.206 1019.63 978.967C1019.63 970.727 1012.97 964.048 1004.76 964.048C996.547 964.048 989.891 970.727 989.891 978.967C989.891 987.206 996.547 993.886 1004.76 993.886Z" fill="black"/>
<path d="M1004.76 952.112C1012.97 952.112 1019.63 945.433 1019.63 937.193C1019.63 928.954 1012.97 922.274 1004.76 922.274C996.547 922.274 989.891 928.954 989.891 937.193C989.891 945.433 996.547 952.112 1004.76 952.112Z" fill="black"/>
<path d="M1004.76 910.339C1013.79 910.339 1021.12 902.992 1021.12 893.928C1021.12 884.865 1013.79 877.518 1004.76 877.518C995.729 877.518 988.406 884.865 988.406 893.928C988.406 902.992 995.729 910.339 1004.76 910.339Z" fill="black"/>
<path d="M961.644 995.375C970.676 995.375 977.999 988.028 977.999 978.965C977.999 969.901 970.676 962.554 961.644 962.554C952.611 962.554 945.289 969.901 945.289 978.965C945.289 988.028 952.611 995.375 961.644 995.375Z" fill="black"/>
<path d="M961.644 953.605C970.676 953.605 977.999 946.258 977.999 937.194C977.999 928.131 970.676 920.783 961.644 920.783C952.611 920.783 945.289 928.131 945.289 937.194C945.289 946.258 952.611 953.605 961.644 953.605Z" fill="black"/>
<path d="M961.644 910.339C970.676 910.339 977.999 902.992 977.999 893.928C977.999 884.865 970.676 877.518 961.644 877.518C952.611 877.518 945.289 884.865 945.289 893.928C945.289 902.992 952.611 910.339 961.644 910.339Z" fill="black"/>
<path d="M1172.77 1157.99C1177.7 1157.99 1181.69 1153.98 1181.69 1149.04C1181.69 1144.1 1177.7 1140.09 1172.77 1140.09C1167.85 1140.09 1163.85 1144.1 1163.85 1149.04C1163.85 1153.98 1167.85 1157.99 1172.77 1157.99Z" fill="black"/>
<path d="M1172.77 1116.22C1178.51 1116.22 1183.17 1111.54 1183.17 1105.78C1183.17 1100.01 1178.51 1095.33 1172.77 1095.33C1167.02 1095.33 1162.36 1100.01 1162.36 1105.78C1162.36 1111.54 1167.02 1116.22 1172.77 1116.22Z" fill="black"/>
<path d="M1172.77 1075.94C1179.34 1075.94 1184.66 1070.6 1184.66 1064C1184.66 1057.41 1179.34 1052.07 1172.77 1052.07C1166.2 1052.07 1160.88 1057.41 1160.88 1064C1160.88 1070.6 1166.2 1075.94 1172.77 1075.94Z" fill="black"/>
<path d="M1172.77 1035.66C1180.16 1035.66 1186.15 1029.65 1186.15 1022.23C1186.15 1014.82 1180.16 1008.8 1172.77 1008.8C1165.38 1008.8 1159.39 1014.82 1159.39 1022.23C1159.39 1029.65 1165.38 1035.66 1172.77 1035.66Z" fill="black"/>
<path d="M1172.77 993.886C1180.98 993.886 1187.63 987.206 1187.63 978.967C1187.63 970.727 1180.98 964.048 1172.77 964.048C1164.56 964.048 1157.9 970.727 1157.9 978.967C1157.9 987.206 1164.56 993.886 1172.77 993.886Z" fill="black"/>
<path d="M1215.88 1116.22C1221.63 1116.22 1226.29 1111.54 1226.29 1105.78C1226.29 1100.01 1221.63 1095.33 1215.88 1095.33C1210.14 1095.33 1205.48 1100.01 1205.48 1105.78C1205.48 1111.54 1210.14 1116.22 1215.88 1116.22Z" fill="black"/>
<path d="M1215.89 1075.94C1222.46 1075.94 1227.78 1070.6 1227.78 1064C1227.78 1057.41 1222.46 1052.07 1215.89 1052.07C1209.32 1052.07 1203.99 1057.41 1203.99 1064C1203.99 1070.6 1209.32 1075.94 1215.89 1075.94Z" fill="black"/>
<path d="M1215.89 1035.66C1223.28 1035.66 1229.27 1029.65 1229.27 1022.23C1229.27 1014.82 1223.28 1008.8 1215.89 1008.8C1208.5 1008.8 1202.51 1014.82 1202.51 1022.23C1202.51 1029.65 1208.5 1035.66 1215.89 1035.66Z" fill="black"/>
<path d="M1257.52 1075.94C1264.09 1075.94 1269.41 1070.6 1269.41 1064C1269.41 1057.41 1264.09 1052.07 1257.52 1052.07C1250.95 1052.07 1245.62 1057.41 1245.62 1064C1245.62 1070.6 1250.95 1075.94 1257.52 1075.94Z" fill="black"/>
<path d="M1257.52 1038.64C1266.55 1038.64 1273.87 1031.29 1273.87 1022.23C1273.87 1013.17 1266.55 1005.82 1257.52 1005.82C1248.49 1005.82 1241.16 1013.17 1241.16 1022.23C1241.16 1031.29 1248.49 1038.64 1257.52 1038.64Z" fill="black"/>
<path d="M1215.89 995.375C1224.92 995.375 1232.24 988.028 1232.24 978.965C1232.24 969.901 1224.92 962.554 1215.89 962.554C1206.85 962.554 1199.53 969.901 1199.53 978.965C1199.53 988.028 1206.85 995.375 1215.89 995.375Z" fill="black"/>
<path d="M1172.77 953.605C1181.8 953.605 1189.12 946.258 1189.12 937.194C1189.12 928.131 1181.8 920.783 1172.77 920.783C1163.74 920.783 1156.41 928.131 1156.41 937.194C1156.41 946.258 1163.74 953.605 1172.77 953.605Z" fill="black"/>
<path d="M1278.33 916.306C1313.64 916.306 1342.26 887.584 1342.26 852.154C1342.26 816.725 1313.64 788.003 1278.33 788.003C1243.02 788.003 1214.4 816.725 1214.4 852.154C1214.4 887.584 1243.02 916.306 1278.33 916.306Z" fill="black"/>
</g>
<defs>
<clipPath id="clip0_717_2193">
<rect width="666.087" height="626.596" fill="white" transform="translate(945.289 538.858)"/>
</clipPath>
</defs>
</svg>
