<svg width="2560" height="1707" viewBox="0 0 2560 1707" fill="none" xmlns="http://www.w3.org/2000/svg">
<rect y="0.333984" width="2560" height="1706.67" fill="white"/>
<path d="M949.283 749.427C932.282 739.999 912.141 735.284 888.862 735.284H819.023V954.243H888.862C912.141 954.243 932.282 949.529 949.283 940.1C966.285 930.671 979.363 917.837 988.78 901.337C998.196 884.836 1002.9 865.979 1002.9 844.764C1002.9 823.549 998.196 804.691 988.78 788.191C979.363 771.952 966.285 758.856 949.283 749.427ZM962.1 889.027C954.776 901.337 944.837 911.028 932.282 917.576C919.726 924.123 905.34 927.528 889.123 927.528H848.842V761.999H889.123C905.34 761.999 919.726 765.404 932.282 771.952C944.837 778.5 954.776 788.191 962.1 800.5C969.424 812.81 973.086 827.478 973.086 844.764C973.086 862.05 969.424 876.717 962.1 889.027Z" fill="#010101"/>
<path d="M1229.41 802.333C1216.86 795 1202.47 791.333 1186.26 791.333C1170.04 791.333 1155.65 795 1143.1 802.333C1130.54 809.667 1120.6 819.62 1113.54 832.453C1106.22 845.025 1102.55 859.168 1102.55 874.883C1102.55 890.598 1106.22 904.741 1113.54 917.313C1120.86 929.885 1130.8 939.838 1143.1 947.433C1155.65 954.767 1170.04 958.433 1186.26 958.433C1202.47 958.433 1216.86 954.767 1229.41 947.433C1241.97 940.099 1251.91 930.147 1258.97 917.313C1266.03 904.741 1269.7 890.598 1269.7 874.883C1269.7 859.168 1266.03 845.025 1258.97 832.453C1251.65 819.62 1241.97 809.667 1229.41 802.333ZM1233.86 904.479C1229.15 913.384 1222.88 920.456 1214.77 925.694C1206.66 930.933 1196.98 933.552 1185.99 933.552C1175.27 933.552 1165.59 930.933 1157.48 925.694C1149.38 920.456 1142.84 913.384 1138.39 904.479C1133.68 895.574 1131.59 885.622 1131.59 874.621C1131.59 863.621 1133.94 853.668 1138.39 844.763C1142.84 835.858 1149.38 828.787 1157.48 823.548C1165.59 818.31 1175.27 815.691 1185.99 815.691C1196.98 815.691 1206.66 818.31 1214.77 823.548C1222.88 828.787 1229.15 835.858 1233.86 844.763C1238.31 853.668 1240.66 863.621 1240.66 874.621C1240.66 885.622 1238.31 895.574 1233.86 904.479Z" fill="#010101"/>
<path d="M1430.58 813.857C1423.26 806.261 1414.63 800.761 1404.69 796.832C1394.75 792.904 1383.76 791.07 1371.47 791.07C1356.04 791.07 1342.17 794.475 1329.88 801.023C1317.59 807.571 1307.91 817.262 1300.58 829.833C1293.52 842.405 1289.86 857.596 1289.86 875.406V1022.86H1318.63V925.955H1319.15C1322.82 932.503 1327.26 938.003 1333.02 942.718C1338.77 947.432 1345.31 951.361 1352.64 953.98C1359.96 956.599 1367.81 958.171 1375.91 958.171C1390.56 958.171 1403.9 954.766 1415.67 948.218C1427.44 941.67 1436.6 932.241 1443.4 919.931C1450.2 907.621 1453.6 893.216 1453.6 876.716C1453.6 863.62 1451.51 851.834 1447.58 841.358C1443.4 830.357 1437.91 821.452 1430.58 813.857ZM1417.5 905.264C1412.8 913.907 1406.52 920.979 1398.67 925.955C1390.82 930.932 1381.93 933.551 1371.73 933.551C1362.05 933.551 1353.16 931.194 1345.05 926.479C1336.94 921.765 1330.66 914.955 1325.96 906.05C1321.25 897.145 1318.89 886.668 1318.89 874.62C1318.89 862.834 1321.25 852.358 1325.96 843.715C1330.66 835.072 1336.94 828.262 1345.05 823.286C1353.16 818.571 1361.79 816.214 1371.47 816.214C1381.15 816.214 1390.04 818.571 1398.15 823.286C1406.26 828 1412.53 834.81 1417.24 843.715C1421.95 852.358 1424.3 862.834 1424.3 874.882C1424.57 886.145 1422.21 896.359 1417.5 905.264Z" fill="#010101"/>
<path d="M1683.77 801.809C1672.78 794.737 1659.18 791.07 1642.7 791.07C1627.53 791.07 1614.19 794.737 1602.68 802.071C1591.17 809.404 1582.28 819.357 1575.74 831.929C1569.2 844.501 1566.06 858.644 1566.06 874.62C1566.06 890.597 1569.99 904.74 1577.57 916.788C1585.16 928.836 1595.62 938.003 1609.22 944.551C1622.82 951.099 1638.25 954.504 1655.78 954.504H1696.58V929.884H1654.99C1644.79 929.884 1635.38 928.051 1627.01 924.646C1618.64 921.241 1611.57 916.003 1606.34 909.455C1600.85 902.645 1597.71 894.526 1596.67 884.573H1715.42C1715.94 882.74 1716.2 880.383 1716.2 878.025C1716.2 875.406 1716.46 873.049 1716.46 870.954C1716.46 856.287 1713.85 842.667 1708.35 830.881C1702.86 818.309 1694.75 808.88 1683.77 801.809ZM1596.67 863.882C1597.19 858.12 1598.24 852.096 1600.33 846.334C1602.42 840.572 1605.3 835.334 1609.48 830.619C1613.41 825.905 1618.11 822.238 1623.61 819.357C1629.1 816.476 1635.64 815.166 1642.7 815.166C1649.5 815.166 1655.52 816.214 1660.75 818.309C1665.72 820.405 1670.17 823.024 1673.57 826.69C1676.97 830.095 1679.84 834.024 1681.94 838.215C1684.03 842.405 1685.6 846.858 1686.38 851.31C1687.17 855.763 1687.69 859.953 1687.69 863.882H1596.67Z" fill="#010101"/>
<path d="M2059.91 831.667C2053.37 819.095 2043.95 809.142 2031.92 802.071C2019.89 794.737 2005.5 791.07 1988.5 791.07C1970.97 791.07 1956.06 794.737 1943.51 802.071C1930.95 809.404 1921.54 819.357 1914.74 832.191C1908.2 844.762 1904.8 858.906 1904.8 874.62C1904.8 890.073 1907.94 904.217 1913.95 916.788C1919.97 929.622 1928.6 939.575 1939.85 946.908C1951.09 954.242 1964.43 957.909 1979.87 957.909C1990.59 957.909 1999.75 956.075 2007.59 952.671C2015.44 949.004 2021.98 944.551 2027.47 939.051C2032.7 933.551 2036.89 927.789 2040.03 921.765H2040.55V954.242H2069.58V873.573C2069.58 858.12 2066.44 844.239 2059.91 831.667ZM2033.49 904.479C2029.04 913.646 2022.76 920.717 2014.65 925.693C2006.55 930.932 1997.39 933.289 1986.93 933.289C1975.68 933.289 1966 930.67 1958.16 925.432C1950.31 920.193 1944.29 913.122 1940.11 904.217C1935.92 895.312 1933.83 885.621 1933.83 874.62C1933.83 863.358 1935.92 853.406 1940.11 844.501C1944.29 835.595 1950.57 828.524 1958.42 823.286C1966.53 818.047 1975.94 815.428 1987.19 815.428C1997.91 815.428 2007.07 818.047 2014.92 823.024C2022.76 828.262 2029.04 835.072 2033.23 843.715C2037.41 852.358 2039.5 862.311 2039.5 873.311C2040.29 885.097 2037.93 895.312 2033.49 904.479Z" fill="#010101"/>
<path d="M1836.52 806.79C1828.41 814.909 1824.48 825.91 1824.48 840.053V954.247H1853.26V819.624H1902.69V795.004H1870C1855.61 795.004 1844.62 798.933 1836.52 806.79Z" fill="#010101"/>
<path d="M1748.64 806.79C1740.53 814.909 1736.61 825.91 1736.61 840.053V954.247H1765.38V819.624H1814.82V795.004H1782.12C1767.74 795.004 1756.49 798.933 1748.64 806.79Z" fill="#010101"/>
<path d="M1506.44 766.187V754.925H1477.67V794.997H1450.2V819.617H1477.67V908.929C1477.67 922.811 1481.59 933.811 1489.7 942.192C1497.81 950.312 1508.79 954.502 1522.92 954.502H1560.32V929.883H1506.18V819.879H1560.85V795.259H1477.41C1493.62 794.997 1506.44 781.902 1506.44 766.187Z" fill="#010101"/>
<path d="M1034.31 806.79C1026.2 814.909 1022.27 825.91 1022.27 840.053V954.247H1051.05V819.624H1100.48V795.004H1067.79C1053.4 795.004 1042.15 798.933 1034.31 806.79Z" fill="#010101"/>
<path d="M627.041 684.472H601.407V695.472H489.195V698.877H601.407H627.041H739.252V695.472H627.041V684.472Z" fill="#010101"/>
<path d="M659.736 715.111H568.711V726.112H489.195V729.517H568.711H659.736H739.252V726.112H659.736V715.111Z" fill="#010101"/>
<path d="M681.708 745.758H627.302V756.758H601.407V745.758H546.74V756.758H489.195V760.163H546.74H601.407H627.302H681.708H739.252V756.758H681.708V745.758Z" fill="#010101"/>
<path d="M687.462 879.333H540.985V868.333H489.195V879.333V882.738H540.985H687.462H739.252V879.333V868.333H687.462V879.333Z" fill="#010101"/>
<path d="M686.939 960.266H541.509V971.266H489.195V974.671H541.509H686.939H739.252V971.266H686.939V960.266Z" fill="#010101"/>
<path d="M659.736 990.905H568.711V1001.91H489.195V1005.31H568.711H659.736H739.252V1001.91H659.736V990.905Z" fill="#010101"/>
<path d="M729.313 929.623H665.752V940.623H562.695V929.623H499.135V940.623H489.195V944.028H499.135H562.695H665.752H729.313H739.252V940.623H729.313V929.623Z" fill="#010101"/>
<path d="M687.462 909.98H540.985V898.979H489.195V909.98V913.385H540.985H687.462H739.252V909.98V898.979H687.462V909.98Z" fill="#010101"/>
<path d="M731.929 837.69H676.477V848.691H551.971V837.69H496.519V848.691H489.195V852.096H496.519H551.971H676.477H731.929H739.252V848.691H731.929V837.69Z" fill="#010101"/>
<path d="M717.281 807.047H659.736V818.047H568.711V807.047H511.428V818.047H489.195V821.452H511.428H568.711H659.736H717.281H739.252V818.047H717.281V807.047Z" fill="#010101"/>
<path d="M697.925 776.404H643.519V787.405H585.19V776.404H530.523V787.405H489.195V790.81H530.523H585.19H643.519H697.925H739.252V787.405H697.925V776.404Z" fill="#010101"/>
</svg>
