<svg width="2560" height="1708" viewBox="0 0 2560 1708" fill="none" xmlns="http://www.w3.org/2000/svg">
<rect y="0.667969" width="2560" height="1706.67" fill="white"/>
<path d="M705.944 1031.54L632.648 782.543H675.109L728.185 977.823L786.822 782.543H834.843L893.985 977.823L946.555 782.543H989.522L916.226 1031.54H872.755L811.085 826.217L749.416 1031.54H705.944Z" fill="black"/>
<path d="M1037 727.32C1028.57 727.32 1021.5 724.643 1015.77 719.288C1010.37 713.599 1007.68 706.571 1007.68 698.204C1007.68 690.172 1010.37 683.479 1015.77 678.124C1021.5 672.769 1028.57 670.092 1037 670.092C1045.09 670.092 1051.99 672.769 1057.72 678.124C1063.45 683.479 1066.32 690.172 1066.32 698.204C1066.32 706.571 1063.45 713.599 1057.72 719.288C1051.99 724.643 1045.09 727.32 1037 727.32ZM1015.77 1031.54V782.541H1058.23V1031.54H1015.77Z" fill="black"/>
<path d="M1106.88 1031.54V670.092H1149.34V1031.54H1106.88Z" fill="black"/>
<path d="M1327.61 1037.56C1307.05 1037.56 1288.69 1033.38 1272.51 1025.01C1256.67 1016.64 1244.54 1004.93 1236.12 989.869L1232.07 1031.54H1193.66V670.092H1236.12V823.705C1244.2 811.657 1255.66 800.781 1270.49 791.075C1285.65 781.369 1304.86 776.517 1328.12 776.517C1353.05 776.517 1374.79 782.207 1393.32 793.585C1411.86 804.964 1426.18 820.526 1436.29 840.272C1446.74 860.017 1451.96 882.44 1451.96 907.54C1451.96 932.641 1446.74 955.063 1436.29 974.809C1426.18 994.22 1411.69 1009.62 1392.82 1020.99C1374.28 1032.04 1352.55 1037.56 1327.61 1037.56ZM1323.06 1000.91C1339.91 1000.91 1354.74 997.065 1367.54 989.367C1380.35 981.335 1390.46 970.291 1397.87 956.235C1405.29 942.179 1408.99 925.78 1408.99 907.038C1408.99 888.296 1405.29 871.898 1397.87 857.842C1390.46 843.786 1380.35 832.909 1367.54 825.211C1354.74 817.179 1339.91 813.163 1323.06 813.163C1306.21 813.163 1291.38 817.179 1278.58 825.211C1265.77 832.909 1255.66 843.786 1248.25 857.842C1240.84 871.898 1237.13 888.296 1237.13 907.038C1237.13 925.78 1240.84 942.179 1248.25 956.235C1255.66 970.291 1265.77 981.335 1278.58 989.367C1291.38 997.065 1306.21 1000.91 1323.06 1000.91Z" fill="black"/>
<path d="M1598.52 1037.56C1574.59 1037.56 1553.36 1032.21 1534.83 1021.5C1516.29 1010.45 1501.63 995.224 1490.85 975.814C1480.4 956.403 1475.18 933.478 1475.18 907.039C1475.18 880.935 1480.4 858.177 1490.85 838.766C1501.3 819.02 1515.79 803.794 1534.32 793.084C1553.19 782.04 1574.93 776.518 1599.53 776.518C1623.79 776.518 1644.68 782.04 1662.21 793.084C1680.07 803.794 1693.72 818.016 1703.16 835.754C1712.59 853.492 1717.31 872.568 1717.31 892.983C1717.31 896.665 1717.14 900.345 1716.81 904.027C1716.81 907.709 1716.81 911.891 1716.81 916.577H1517.14C1518.15 935.653 1522.53 951.55 1530.28 964.268C1538.37 976.65 1548.31 986.021 1560.1 992.38C1572.23 998.738 1585.04 1001.92 1598.52 1001.92C1616.04 1001.92 1630.7 997.902 1642.5 989.87C1654.29 981.838 1662.88 970.961 1668.28 957.239H1710.23C1703.49 980.332 1690.52 999.576 1671.31 1014.97C1652.44 1030.03 1628.17 1037.56 1598.52 1037.56ZM1598.52 812.16C1578.3 812.16 1560.27 818.352 1544.43 830.734C1528.93 842.782 1520 860.52 1517.64 883.947H1675.36C1674.35 861.524 1666.59 843.954 1652.1 831.236C1637.61 818.518 1619.75 812.16 1598.52 812.16Z" fill="black"/>
<path d="M1748.31 1031.54V782.542H1786.73L1790.27 830.232C1798.02 813.834 1809.82 800.781 1825.65 791.076C1841.49 781.37 1861.04 776.518 1884.29 776.518V820.694H1872.66C1857.84 820.694 1844.19 823.372 1831.72 828.726C1819.25 833.746 1809.31 842.448 1801.89 854.83C1794.48 867.213 1790.77 884.281 1790.77 906.035V1031.54H1748.31Z" fill="black"/>
<path d="M1901.11 1034.05C1892.68 1034.05 1885.6 1031.37 1879.88 1026.01C1874.48 1020.32 1871.79 1013.46 1871.79 1005.43C1871.79 997.399 1874.48 990.705 1879.88 985.35C1885.6 979.661 1892.68 976.816 1901.11 976.816C1909.2 976.816 1915.93 979.661 1921.33 985.35C1927.05 990.705 1929.92 997.399 1929.92 1005.43C1929.92 1013.46 1927.05 1020.32 1921.33 1026.01C1915.93 1031.37 1909.2 1034.05 1901.11 1034.05Z" fill="black"/>
</svg>
