<svg width="2560" height="1707" viewBox="0 0 2560 1707" fill="none" xmlns="http://www.w3.org/2000/svg">
<rect width="2560" height="1706.67" fill="white"/>
<g clip-path="url(#clip0_717_2374)">
<path d="M799.375 760.016H818.175V777.88H819.56C824.705 766.887 838.162 756.875 857.358 756.875C886.052 756.875 903.467 778.273 903.467 805.363V882.316H884.667V806.541C884.667 786.91 870.221 774.346 852.806 774.346C833.413 774.346 818.175 789.266 818.175 809.486V882.512H799.375V760.016Z" fill="black"/>
<path d="M1758.16 760.016H1776.96V777.88H1778.35C1783.49 766.887 1796.95 756.875 1816.15 756.875C1844.84 756.875 1862.26 778.273 1862.26 805.363V882.316H1843.46V806.541C1843.46 786.91 1829.01 774.346 1811.6 774.346C1792.2 774.346 1776.96 789.266 1776.96 809.486V882.512H1758.16V760.016Z" fill="black"/>
<path d="M1175.37 760.016H1193.38V779.254H1194.76C1197.93 774.739 1209.41 756.875 1236.32 756.875C1271.55 756.875 1296.68 783.573 1296.68 820.871C1296.68 858.759 1272.73 885.457 1237.71 885.457C1211.78 885.457 1199.51 870.145 1195.36 862.685H1193.97V936.693H1175.17V760.016H1175.37ZM1277.48 820.871C1277.48 792.21 1258.88 773.757 1235.13 773.757C1209.41 773.757 1193.38 795.155 1193.38 820.871C1193.38 851.103 1212.38 868.378 1235.73 868.378C1259.87 868.574 1277.48 848.943 1277.48 820.871Z" fill="black"/>
<path d="M1556.12 775.72V760.016H1574.92V882.512H1556.12V775.72ZM1551.96 730.962C1551.96 723.503 1557.7 717.613 1565.42 717.613C1573.53 717.613 1579.27 723.503 1579.27 730.962C1579.27 738.815 1573.53 744.704 1565.42 744.704C1557.7 744.704 1551.96 738.815 1551.96 730.962Z" fill="black"/>
<path d="M1720.37 775.72V760.016H1739.17V882.512H1720.37V775.72ZM1716.21 730.962C1716.21 723.503 1721.95 717.613 1729.67 717.613C1737.78 717.613 1743.52 723.503 1743.52 730.962C1743.52 738.815 1737.78 744.704 1729.67 744.704C1721.95 744.704 1716.21 738.815 1716.21 730.962Z" fill="black"/>
<path d="M1367.92 987.145V909.211H1377.42V986.949H1367.92V987.145Z" fill="black"/>
<path d="M1388.7 987.145V931.983H1397.21L1397.81 940.031C1399.59 937.087 1401.96 934.731 1404.93 933.16C1407.9 931.59 1411.26 930.805 1415.02 930.805C1419.38 930.805 1423.14 931.786 1426.3 933.553C1429.47 935.32 1431.84 938.068 1433.62 941.602C1435.6 938.264 1438.18 935.712 1441.54 933.749C1444.9 931.786 1448.66 930.805 1452.62 930.805C1459.35 930.805 1464.5 932.768 1468.45 936.694C1472.41 940.62 1474.39 946.706 1474.39 954.951V987.145H1465.09V955.932C1465.09 950.239 1463.9 945.92 1461.53 942.976C1459.15 940.031 1455.79 938.657 1451.63 938.657C1447.08 938.657 1443.52 940.424 1440.55 943.761C1437.58 947.295 1436.2 952.202 1436.2 958.484V987.145H1426.7V955.932C1426.7 950.239 1425.51 945.92 1423.14 942.976C1420.76 940.031 1417.6 938.657 1413.24 938.657C1408.89 938.657 1405.13 940.424 1402.16 943.761C1399.19 947.295 1397.81 952.202 1397.81 958.484V987.145H1388.7Z" fill="black"/>
<path d="M1484.48 987.145V931.983H1492.99L1493.59 940.031C1495.37 937.087 1497.74 934.731 1500.71 933.16C1503.68 931.59 1507.04 930.805 1510.8 930.805C1515.16 930.805 1518.92 931.786 1522.08 933.553C1525.25 935.32 1527.63 938.068 1529.41 941.602C1531.39 938.264 1533.96 935.712 1537.32 933.749C1540.69 931.786 1544.45 930.805 1548.4 930.805C1555.13 930.805 1560.28 932.768 1564.24 936.694C1568.19 940.62 1570.17 946.706 1570.17 954.951V987.145H1560.87V955.932C1560.87 950.239 1559.68 945.92 1557.31 942.976C1554.93 940.031 1551.57 938.657 1547.41 938.657C1542.86 938.657 1539.3 940.424 1536.33 943.761C1533.36 947.295 1531.98 952.202 1531.98 958.484V987.145H1522.48V955.932C1522.48 950.239 1521.29 945.92 1518.92 942.976C1516.54 940.031 1513.38 938.657 1509.02 938.657C1504.67 938.657 1500.91 940.424 1497.94 943.761C1494.97 947.295 1493.59 952.202 1493.59 958.484V987.145H1484.48Z" fill="black"/>
<path d="M1605.79 988.519C1600.64 988.519 1595.89 987.341 1591.74 984.986C1587.58 982.63 1584.22 979.293 1581.84 974.974C1579.47 970.655 1578.28 965.551 1578.28 959.662C1578.28 953.773 1579.47 948.669 1582.04 944.35C1584.42 940.031 1587.78 936.694 1592.13 934.338C1596.29 931.983 1601.04 930.805 1606.38 930.805C1611.73 930.805 1616.28 931.983 1620.43 934.338C1624.59 936.694 1627.95 940.031 1630.33 944.35C1632.7 948.669 1633.89 953.773 1633.89 959.662C1633.89 965.551 1632.7 970.655 1630.13 974.974C1627.75 979.293 1624.39 982.63 1620.04 984.986C1615.68 987.341 1610.93 988.519 1605.79 988.519ZM1605.79 980.471C1608.95 980.471 1611.92 979.685 1614.69 978.115C1617.46 976.544 1619.64 974.189 1621.42 971.048C1623.2 967.907 1623.99 964.177 1623.99 959.466C1623.99 954.951 1623.2 951.024 1621.42 947.883C1619.84 944.743 1617.46 942.387 1614.69 940.816C1611.92 939.246 1608.95 938.461 1605.79 938.461C1602.62 938.461 1599.65 939.246 1596.88 940.816C1594.11 942.387 1591.94 944.743 1590.15 947.883C1588.37 951.024 1587.58 954.754 1587.58 959.466C1587.58 963.981 1588.37 967.907 1590.15 971.048C1591.94 974.189 1594.11 976.544 1596.88 978.115C1599.65 979.685 1602.62 980.471 1605.79 980.471Z" fill="black"/>
<path d="M1671.89 988.519C1667.34 988.519 1663.18 987.537 1659.82 985.77C1656.25 984.004 1653.48 981.255 1651.7 977.918L1650.71 987.144H1642.2V907.051H1651.7V941.012C1653.48 938.264 1656.06 935.908 1659.42 933.749C1662.78 931.589 1666.94 930.608 1672.08 930.608C1677.63 930.608 1682.38 931.786 1686.53 934.338C1690.69 936.89 1693.85 940.227 1696.03 944.742C1698.4 949.061 1699.39 954.165 1699.39 959.661C1699.39 965.158 1698.21 970.262 1696.03 974.581C1693.66 978.9 1690.49 982.237 1686.33 984.789C1682.38 987.144 1677.43 988.519 1671.89 988.519ZM1670.9 980.274C1674.66 980.274 1677.82 979.488 1680.79 977.722C1683.56 975.955 1685.94 973.599 1687.52 970.458C1689.1 967.317 1689.9 963.784 1689.9 959.465C1689.9 955.343 1689.1 951.613 1687.52 948.668C1685.94 945.527 1683.56 943.171 1680.79 941.405C1678.02 939.638 1674.66 938.853 1670.9 938.853C1667.14 938.853 1663.97 939.638 1661 941.405C1658.23 943.171 1655.86 945.527 1654.27 948.668C1652.69 951.809 1651.9 955.343 1651.9 959.465C1651.9 963.587 1652.69 967.317 1654.27 970.458C1655.86 973.599 1658.23 975.955 1661 977.722C1663.97 979.488 1667.14 980.274 1670.9 980.274Z" fill="black"/>
<path d="M1713.84 919.811C1712.06 919.811 1710.48 919.222 1709.29 918.044C1708.1 916.866 1707.51 915.296 1707.51 913.333C1707.51 911.566 1708.1 909.995 1709.29 908.818C1710.48 907.64 1712.06 907.051 1713.84 907.051C1715.62 907.051 1717.2 907.64 1718.39 908.818C1719.58 909.995 1720.37 911.566 1720.37 913.333C1720.37 915.099 1719.78 916.67 1718.39 918.044C1717.2 919.222 1715.62 919.811 1713.84 919.811ZM1709.09 987.144V931.982H1718.59V987.144H1709.09Z" fill="black"/>
<path d="M1730.46 987.144V907.051H1739.96V987.144H1730.46V987.144Z" fill="black"/>
<path d="M1756.58 919.811C1754.8 919.811 1753.22 919.222 1752.03 918.044C1750.84 916.866 1750.25 915.296 1750.25 913.333C1750.25 911.566 1750.84 909.995 1752.03 908.818C1753.22 907.64 1754.8 907.051 1756.58 907.051C1758.36 907.051 1759.95 907.64 1761.13 908.818C1762.32 909.995 1763.11 911.566 1763.11 913.333C1763.11 915.099 1762.52 916.67 1761.13 918.044C1759.75 919.222 1758.36 919.811 1756.58 919.811ZM1751.83 987.144V931.982H1761.33V987.144H1751.83Z" fill="black"/>
<path d="M1798.15 988.519C1792.8 988.519 1788.05 987.341 1784.09 984.986C1779.94 982.63 1776.77 979.293 1774.4 974.974C1772.02 970.655 1770.84 965.551 1770.84 959.662C1770.84 953.969 1772.02 948.865 1774.4 944.546C1776.77 940.227 1779.94 936.89 1784.09 934.338C1788.25 931.983 1793 930.805 1798.54 930.805C1803.88 930.805 1808.63 931.983 1812.39 934.338C1816.35 936.694 1819.32 939.835 1821.5 943.761C1823.67 947.687 1824.66 952.006 1824.66 956.521C1824.66 957.306 1824.66 958.091 1824.66 958.877C1824.66 959.662 1824.66 960.644 1824.66 961.625H1780.33C1780.53 965.944 1781.52 969.281 1783.3 972.029C1785.08 974.778 1787.26 976.937 1789.83 978.311C1792.41 979.685 1795.37 980.471 1798.34 980.471C1802.3 980.471 1805.47 979.489 1808.04 977.722C1810.61 975.956 1812.59 973.6 1813.78 970.459H1823.08C1821.5 975.563 1818.73 979.882 1814.57 983.219C1810.02 986.752 1804.68 988.519 1798.15 988.519ZM1798.15 938.461C1793.59 938.461 1789.64 939.835 1786.27 942.583C1782.71 945.331 1780.73 949.258 1780.33 954.362H1815.36C1815.16 949.454 1813.38 945.528 1810.22 942.779C1807.05 940.031 1802.89 938.461 1798.15 938.461Z" fill="black"/>
<path d="M1832.38 987.146V931.984H1840.88L1841.48 941.799C1843.26 938.265 1845.83 935.517 1849.2 933.554C1852.56 931.591 1856.32 930.609 1860.67 930.609C1867.2 930.609 1872.55 932.572 1876.51 936.499C1880.46 940.425 1882.44 946.51 1882.44 954.755V986.95H1872.75V955.933C1872.75 944.547 1868 938.658 1858.5 938.658C1853.75 938.658 1849.79 940.425 1846.62 943.762C1843.46 947.296 1841.87 952.203 1841.87 958.485V987.146H1832.38Z" fill="black"/>
<path d="M485.516 800.063C485.516 751.379 521.532 714.473 569.818 714.473C606.824 714.473 635.914 736.852 646.799 767.868H625.426C616.521 746.471 595.544 732.337 569.818 732.337C533.01 732.337 505.503 761.39 505.503 800.063C505.503 839.128 533.01 867.593 569.818 867.593C595.544 867.593 617.115 853.655 625.426 832.061H646.799C636.31 863.863 606.626 885.457 569.62 885.457C521.334 885.457 485.516 848.944 485.516 800.063Z" fill="black"/>
<path d="M656.297 821.264C656.297 784.358 684.002 756.875 720.81 756.875C758.014 756.875 785.125 784.358 785.125 821.264C785.125 857.974 757.618 885.653 720.612 885.653C683.606 885.653 656.297 858.366 656.297 821.264ZM765.93 821.264C765.93 794.174 747.13 773.954 720.612 773.954C694.094 773.954 675.493 794.37 675.493 821.264C675.493 848.747 694.292 868.574 720.612 868.574C747.13 868.574 765.93 848.551 765.93 821.264Z" fill="black"/>
<path d="M915.336 821.264C915.336 784.947 942.249 756.875 978.464 756.875C1005.38 756.875 1029.12 772.972 1035.65 800.259L1017.05 804.578C1013.69 786.125 998.055 773.954 978.86 773.954C952.54 773.757 934.729 794.566 934.729 821.264C934.729 848.747 953.529 868.574 979.453 868.574C998.649 868.574 1014.28 856.403 1017.65 837.95L1036.25 842.269C1029.52 869.556 1005.58 885.653 978.86 885.653C941.458 885.457 915.336 857.385 915.336 821.264Z" fill="black"/>
<path d="M1042.59 821.657C1042.59 782.591 1069.7 756.875 1102.35 756.875C1139.55 756.875 1160.93 782.788 1160.93 819.497V826.368H1061.58C1061.78 853.655 1078.01 868.967 1103.54 868.967C1120.95 868.967 1136.78 859.151 1140.74 842.073L1158.95 846.391C1152.02 869.163 1131.64 885.457 1103.14 885.457C1066.14 885.457 1042.59 859.348 1042.59 821.657ZM1141.73 811.252C1140.54 785.732 1122.73 773.561 1102.35 773.561C1082.16 773.561 1063.56 788.088 1062.18 811.252H1141.73Z" fill="black"/>
<path d="M1322.21 847.569V775.72H1298.66V760.015H1323.39V724.287H1341.01V759.819H1379V775.523H1341.01V861.899C1341.01 866.021 1341.01 866.021 1341.01 866.021H1377.42V882.315H1359.81C1337.25 882.511 1322.21 872.303 1322.21 847.569Z" fill="black"/>
<path d="M1444.31 717.613H1463.5V865.237H1535.14V882.512H1471.62C1456.38 882.512 1444.11 870.341 1444.11 855.225V717.613H1444.31Z" fill="black"/>
<path d="M1589.76 760.018H1609.94L1647.15 865.042H1648.53L1685.54 760.018H1706.12L1660.21 882.514H1635.47L1589.76 760.018Z" fill="black"/>
<path d="M1904.41 920.596H1976.84C1976.84 920.988 1976.64 914.314 1976.64 900.965V862.685H1975.26C1971.3 870.145 1958.83 885.457 1932.91 885.457C1898.08 885.457 1873.94 858.759 1873.94 820.871C1873.94 783.377 1899.07 756.875 1934.29 756.875C1961.21 756.875 1972.69 774.739 1975.85 779.254H1977.24V760.016H1995.25V902.928C1995.25 927.663 1980.21 937.871 1957.65 937.871H1904.22V920.596H1904.41ZM1977.44 820.871C1977.44 795.155 1961.21 773.757 1935.68 773.757C1911.93 773.757 1893.33 792.21 1893.33 820.871C1893.33 848.943 1910.94 868.378 1935.09 868.378C1958.44 868.574 1977.44 851.103 1977.44 820.871Z" fill="black"/>
<path d="M2019.98 721.344H2009.09V717.418H2035.02V721.344H2024.13V754.128H2019.78V721.344H2019.98Z" fill="black"/>
<path d="M2041.95 717.613H2049.27L2059.95 750.397H2060.35L2071.04 717.613H2078.36V754.323H2074.2V721.343H2073.81L2063.12 754.127H2057.18L2046.5 721.343H2046.1V754.127H2041.95V717.613Z" fill="black"/>
</g>
<defs>
<clipPath id="clip0_717_2374">
<rect width="1592.64" height="274.046" fill="white" transform="translate(485.516 714.473)"/>
</clipPath>
</defs>
</svg>
