<svg width="2560" height="1707" viewBox="0 0 2560 1707" fill="none" xmlns="http://www.w3.org/2000/svg">
<rect y="0.332031" width="2560" height="1706.67" fill="white"/>
<path d="M898.927 895.909V902.85H806.811V895.909H827.324L803.805 847.189H733.118L712.604 895.909H740.304V902.85H680.461V895.909H703.98L784.076 702.861H792.96L881.941 895.909H898.927ZM736.645 839.723H800.67L766.436 768.215L736.645 839.723Z" fill="black"/>
<path d="M970.406 902.982V896.04H988.046V713.601H970.406V706.66H1058.6C1087.48 706.66 1108.91 710.982 1122.5 719.888C1135.43 727.484 1143.27 741.367 1143.01 756.297C1143.4 767.691 1139.09 778.562 1130.99 786.551C1122.23 794.671 1110.48 798.862 1098.59 798.207V800.434C1113.74 799.91 1128.77 804.755 1140.92 813.923C1152.55 823.222 1158.95 837.498 1158.17 852.297C1158.82 867.62 1151.11 882.027 1138.04 890.016C1124.72 898.529 1105.77 902.851 1080.95 902.851L970.406 902.982ZM1040.44 795.588H1051.29C1079.51 795.588 1093.49 782.098 1093.49 755.249C1093.49 727.484 1079.51 713.471 1051.29 713.471H1040.44V795.588ZM1040.44 895.909H1060.04C1072.06 896.564 1083.95 892.766 1093.23 885.039C1101.72 876.788 1106.16 865.394 1105.38 853.607C1105.38 834.223 1100.68 820.865 1091.01 813.53C1081.34 806.196 1068.27 802.66 1051.42 802.66H1040.18V896.04L1040.44 895.909Z" fill="black"/>
<path d="M1344.1 902.982H1256.55V896.04H1274.19V713.601H1256.55V706.66H1344.1V713.601H1326.72V896.04H1344.1V902.982Z" fill="black"/>
<path d="M1572.23 902.982H1491.87V896.04H1505.59V821.912L1442.87 713.601H1425.23V706.66H1523.23V713.601H1505.59L1554.59 801.874L1599.8 713.471H1571.71V706.66H1632.99V713.601H1608.42L1558.25 812.483V895.909H1572.36V902.982H1572.23Z" fill="black"/>
<path d="M1879.52 895.909V902.85H1787.41V895.909H1808.05L1784.53 847.189H1713.72L1693.33 895.909H1721.03V902.85H1661.32V895.909H1684.84L1764.93 702.861H1773.69L1862.41 895.909H1879.52ZM1717.11 839.723H1781.14L1746.77 768.215L1717.11 839.723Z" fill="black"/>
<path d="M970.925 1007.5V983.661C970.925 983.137 970.925 982.614 970.925 982.09C970.925 981.566 971.056 979.208 971.187 975.148C969.88 980.125 968.835 983.661 968.312 985.626L961.256 1007.5H955.377L948.321 985.626L945.316 975.148C945.577 979.47 945.708 982.352 945.708 983.661V1007.5H938.391V968.207H949.366L956.422 990.21L957.075 992.305L958.382 997.544L960.08 991.257L967.267 968.207H978.242V1007.5H970.925Z" fill="black"/>
<path d="M1047.77 1007.5L1044.24 997.413H1029.35L1025.82 1007.5H1017.59L1031.83 968.207H1041.5L1055.74 1007.5H1047.77ZM1036.79 974.232L1036.66 974.886C1036.53 975.541 1036.27 976.327 1036.01 977.113C1035.75 978.03 1034.18 982.614 1031.17 991.257H1042.41L1038.49 979.994L1037.32 976.196L1036.79 974.232Z" fill="black"/>
<path d="M1127.33 996.233C1127.33 1000.03 1125.9 1003.04 1123.02 1005.01C1120.15 1007.1 1115.97 1008.02 1110.48 1008.02C1105.51 1008.02 1101.46 1007.1 1098.59 1005.4C1095.71 1003.57 1093.89 1000.95 1093.1 997.281L1101.07 995.971C1101.59 998.066 1102.64 999.507 1104.21 1000.55C1105.78 1001.47 1107.87 1002 1110.74 1002C1116.49 1002 1119.36 1000.29 1119.36 996.757C1119.36 995.578 1118.97 994.661 1118.32 994.006C1117.67 993.22 1116.75 992.697 1115.58 992.173C1114.4 991.649 1112.05 991.125 1108.65 990.47C1105.78 989.815 1103.69 989.291 1102.51 988.768C1101.33 988.375 1100.29 987.851 1099.37 987.327C1098.46 986.803 1097.67 986.017 1097.02 985.231C1096.37 984.446 1095.85 983.529 1095.45 982.35C1095.06 981.302 1094.93 979.993 1094.93 978.683C1094.93 975.147 1096.24 972.396 1098.98 970.563C1101.59 968.729 1105.51 967.682 1110.61 967.682C1115.44 967.682 1119.1 968.467 1121.59 969.908C1124.07 971.48 1125.64 973.968 1126.29 977.504L1118.32 978.552C1117.93 976.849 1117.14 975.54 1115.84 974.754C1114.53 973.837 1112.83 973.444 1110.48 973.444C1105.51 973.444 1103.03 975.016 1103.03 978.159C1103.03 979.207 1103.29 979.993 1103.82 980.648C1104.34 981.302 1105.12 981.826 1106.17 982.35C1107.21 982.743 1109.3 983.398 1112.44 984.053C1116.23 984.839 1118.84 985.624 1120.54 986.279C1122.11 986.934 1123.42 987.72 1124.46 988.637C1125.37 989.553 1126.16 990.601 1126.68 991.911C1127.07 993.09 1127.33 994.53 1127.33 996.233Z" fill="black"/>
<path d="M1192.79 1007.5V990.603H1175.68V1007.5H1167.45V968.207H1175.68V983.792H1192.79V968.207H1201.03V1007.5H1192.79Z" fill="black"/>
<path d="M1269.75 1007.5L1260.6 992.567H1250.93V1007.5H1242.7V968.207H1262.3C1267.01 968.207 1270.53 969.255 1273.15 971.219C1275.63 973.184 1276.94 976.065 1276.94 979.863C1276.94 982.614 1276.15 984.971 1274.58 986.935C1273.02 988.9 1270.93 990.21 1268.31 990.865L1278.9 1007.37H1269.75V1007.5ZM1268.84 980.256C1268.84 976.458 1266.48 974.624 1261.65 974.624H1251.2V986.281H1261.91C1264.26 986.281 1265.96 985.757 1267.14 984.709C1268.31 983.661 1268.84 982.221 1268.84 980.256Z" fill="black"/>
<path d="M1345.93 1007.5L1342.4 997.413H1327.51L1323.98 1007.5H1315.75L1329.99 968.207H1339.66L1353.9 1007.5H1345.93ZM1334.96 974.232L1334.83 974.886C1334.7 975.541 1334.43 976.327 1334.17 977.113C1333.91 978.03 1332.34 982.614 1329.34 991.257H1340.58L1336.66 979.994L1335.48 976.196L1334.96 974.232Z" fill="black"/>
<path d="M1428.37 996.365C1428.37 999.901 1427.07 1002.65 1424.32 1004.62C1421.71 1006.58 1417.92 1007.5 1413.22 1007.5H1393.62V968.207H1411.52C1416.35 968.207 1419.88 968.993 1422.36 970.695C1424.85 972.398 1426.02 974.886 1426.02 978.03C1426.02 980.256 1425.37 982.09 1424.19 983.661C1423.02 985.233 1421.06 986.281 1418.57 986.805C1421.71 987.197 1424.19 988.114 1425.76 989.817C1427.46 991.519 1428.37 993.615 1428.37 996.365ZM1417.79 979.208C1417.79 977.375 1417.27 976.196 1416.09 975.41C1414.92 974.624 1413.35 974.232 1411.13 974.232H1401.72V983.923H1411.13C1413.48 983.923 1415.18 983.53 1416.22 982.745C1417.27 982.09 1417.79 980.78 1417.79 979.208ZM1420.14 995.71C1420.14 992.043 1417.53 990.21 1412.3 990.21H1401.85V1001.47H1412.56C1415.18 1001.47 1417.14 1000.95 1418.31 1000.03C1419.49 998.985 1420.14 997.544 1420.14 995.71Z" fill="black"/>
<path d="M1468.88 1007.5V968.207H1477.11V1007.5H1468.88Z" fill="black"/>
<path d="M1538.24 991.388V1007.5H1530.01V991.388L1516.03 968.207H1524.65L1534.06 984.84L1543.6 968.207H1552.22L1538.24 991.388Z" fill="black"/>
<path d="M1613.66 1007.5L1610.13 997.413H1595.24L1591.71 1007.5H1583.48L1597.72 968.207H1607.39L1621.63 1007.5H1613.66ZM1602.68 974.232L1602.55 974.886C1602.42 975.541 1602.16 976.327 1601.9 977.113C1601.64 978.03 1600.07 982.614 1597.07 991.257H1608.3L1604.38 979.994L1603.21 976.196L1602.68 974.232Z" fill="black"/>
</svg>
