<svg width="2560" height="1707" viewBox="0 0 2560 1707" fill="none" xmlns="http://www.w3.org/2000/svg">
<rect y="0.332031" width="2560" height="1706.67" fill="white"/>
<g clip-path="url(#clip0_717_2550)">
<path d="M1474.94 701.874L1281.92 507.918L1088.73 701.874V1138.76H1140.28V1203.09H1423.56V1138.76H1475.1V701.874H1474.94ZM1294.77 919.013H1269.07V776.812L1281.92 763.914L1294.77 776.812V919.013ZM1269.07 944.809H1294.77V1048.32H1269.07V944.809ZM1281.92 727.343L1243.22 766.036V854.198H1217.52V755.261L1281.92 690.609L1346.31 755.261V854.198H1320.62V766.036L1281.92 727.343ZM1217.52 1009.46H1243.22V1112.81H1217.52V1009.46ZM1243.22 983.665H1217.52V880.157H1243.22V983.665ZM1346.31 880.157V983.665H1320.62V880.157H1346.31ZM1320.46 1009.46H1346.15V1112.81H1320.46V1009.46ZM1281.92 654.201L1191.67 744.649V919.013H1165.98V733.873L1281.92 617.467L1397.86 733.873V918.85H1372.17V744.486L1281.92 654.201ZM1140.28 983.665H1114.43V880.157H1140.12V983.665H1140.28ZM1165.98 944.809H1191.67V1048.32H1165.98V944.809ZM1372.01 944.809H1397.7V1048.32H1372.01V944.809ZM1423.56 880.157H1449.25V983.665H1423.56V880.157ZM1281.92 544.489L1449.25 712.486V854.198H1423.56V723.098L1281.92 580.896L1140.28 723.098V854.198H1114.43V712.486L1281.92 544.489ZM1114.43 1112.97V1009.62H1140.12V1112.97H1114.43ZM1165.98 1177.29V1074.11H1191.67V1138.76H1268.91V1074.11H1294.6V1138.76H1371.84V1074.11H1397.7V1177.29H1165.98ZM1423.56 1112.97V1009.62H1449.25V1112.97H1423.56Z" fill="black"/>
</g>
<defs>
<clipPath id="clip0_717_2550">
<rect width="386.207" height="695.172" fill="white" transform="translate(1088.73 507.918)"/>
</clipPath>
</defs>
</svg>
