<svg width="2560" height="1707" viewBox="0 0 2560 1707" fill="none" xmlns="http://www.w3.org/2000/svg">
<rect y="0.000976562" width="2560" height="1706.67" fill="white"/>
<g clip-path="url(#clip0_717_2351)">
<path d="M908.962 971.034C887.276 971.034 868.349 966.318 851.789 956.493C835.228 946.669 822.216 932.914 812.359 915.622C802.896 897.938 798.164 877.109 798.164 853.136C798.164 829.557 802.896 809.121 812.359 791.437C821.822 773.752 834.834 759.997 851.789 750.173C868.349 740.348 887.67 735.632 909.751 735.632C931.437 735.632 950.363 740.348 966.135 750.173C981.907 759.997 994.131 772.966 1002.81 788.686C1011.09 804.798 1015.42 821.697 1015.42 840.168C1015.42 843.312 1015.42 846.849 1015.03 849.993C1015.03 853.136 1014.63 857.066 1014.63 861.389H836.017C836.805 878.681 840.748 892.829 848.24 904.225C855.337 915.622 864.406 923.875 875.052 929.77C885.698 935.665 897.133 938.416 909.356 938.416C925.128 938.416 938.14 934.879 948.786 927.412C959.432 920.338 966.924 910.513 972.05 897.938H1009.9C1003.99 918.766 992.159 936.058 975.204 949.813C957.461 963.96 935.38 971.034 908.962 971.034ZM908.962 767.857C890.824 767.857 874.658 773.359 860.463 784.363C846.269 795.367 838.383 811.479 836.017 832.701H977.57C976.781 812.658 969.684 796.546 956.672 785.149C944.055 773.359 927.888 767.857 908.962 767.857Z" fill="black"/>
<path d="M1043.41 965.532V741.134H1080.08V781.219C1087.18 767.071 1097.83 756.067 1111.23 747.815C1125.03 739.562 1140.41 735.632 1157.76 735.632C1184.57 735.632 1205.47 743.885 1221.64 759.997C1237.41 776.11 1245.3 800.869 1245.3 834.273V965.532H1207.05V838.203C1207.05 791.437 1187.73 768.25 1149.09 768.25C1129.77 768.25 1113.6 775.324 1100.59 789.472C1087.58 803.619 1081.27 823.662 1081.27 849.6V965.925H1043.41V965.532Z" fill="black"/>
<path d="M1360.44 971.037C1333.62 971.037 1312.73 962.784 1296.95 946.672C1281.18 930.559 1273.3 905.8 1273.3 872.396V741.137H1311.54V868.466C1311.54 915.232 1330.86 938.419 1369.11 938.419C1388.83 938.419 1404.99 931.345 1418 917.197C1431.02 903.049 1437.33 883.007 1437.33 857.069V741.137H1475.57V965.535H1438.51V925.057C1431.41 939.205 1421.16 950.208 1407.36 958.461C1393.16 966.714 1377.79 971.037 1360.44 971.037Z" fill="black"/>
<path d="M1586.76 971.034C1567.84 971.034 1552.46 967.89 1539.84 961.602C1527.62 955.314 1518.16 946.669 1512.24 936.451C1506.33 925.84 1503.17 914.443 1503.17 901.868C1503.17 879.074 1511.85 861.389 1529.59 848.814C1547.33 836.631 1570.99 830.343 1601.35 830.343H1662.07V827.592C1662.07 807.942 1656.95 793.009 1646.7 783.184C1636.44 772.966 1622.64 767.857 1605.3 767.857C1590.31 767.857 1577.69 771.394 1567.05 778.861C1556.4 786.328 1549.7 796.939 1546.94 811.086H1507.9C1509.48 794.974 1515 781.219 1524.46 769.822C1533.93 758.818 1545.76 750.173 1559.95 744.278C1574.15 738.383 1589.13 735.632 1605.3 735.632C1636.84 735.632 1660.5 743.885 1676.27 760.783C1692.04 777.682 1699.93 799.69 1699.93 827.592V965.532H1663.65V925.054C1657.34 937.63 1647.88 948.634 1635.66 957.279C1623.83 966.318 1607.27 971.034 1586.76 971.034ZM1592.68 938.809C1607.27 938.809 1619.88 934.879 1630.14 927.412C1640.39 919.945 1648.67 910.12 1653.79 897.938C1659.31 885.755 1662.07 873.179 1662.07 859.817V859.424H1604.51C1582.03 859.424 1566.26 863.354 1557.19 870.821C1548.12 878.681 1543.39 888.113 1543.39 899.51C1543.39 911.299 1547.73 920.731 1556.4 927.805C1564.68 935.272 1576.91 938.809 1592.68 938.809Z" fill="black"/>
<path d="M1743.61 971.034C1739.23 971.034 1735.47 970.108 1732.03 968.257C1728.58 966.405 1726.08 963.627 1724.2 960.54C1722.32 957.145 1721.38 953.441 1721.38 949.12C1721.38 944.799 1722.32 941.095 1724.2 937.699C1726.08 934.304 1728.58 931.835 1732.03 929.674C1735.47 927.822 1739.23 926.896 1743.61 926.896C1747.99 926.896 1751.75 927.822 1754.88 929.674C1758.32 931.526 1760.83 934.304 1762.7 937.699C1764.58 941.095 1765.52 944.799 1765.52 949.12C1765.52 953.441 1764.58 957.145 1762.7 960.54C1760.83 963.935 1758.32 966.405 1754.88 968.257C1751.43 970.108 1747.68 971.034 1743.61 971.034ZM1743.61 967.022C1748.93 967.022 1753.31 965.479 1756.44 962.083C1759.57 958.688 1761.45 954.367 1761.45 949.12C1761.45 943.873 1759.89 939.551 1756.44 936.156C1753.31 932.761 1748.93 931.218 1743.61 931.218C1738.29 931.218 1733.9 932.761 1730.46 936.156C1727.33 939.551 1725.45 943.873 1725.45 949.12C1725.45 954.367 1727.02 958.688 1730.46 962.083C1733.59 965.17 1737.97 967.022 1743.61 967.022ZM1734.53 960.54V937.082H1745.17C1747.68 937.082 1749.56 937.699 1751.12 938.934C1752.69 940.169 1753.31 942.021 1753.31 944.181C1753.31 946.033 1752.69 947.268 1751.75 948.502C1750.81 949.737 1749.56 950.663 1747.68 950.972L1754.25 960.231H1747.99L1742.36 950.972H1740.16V960.231H1734.53V960.54ZM1739.85 947.268H1744.86C1745.8 947.268 1746.74 946.959 1747.36 946.651C1747.99 946.342 1748.3 945.416 1748.3 944.49C1748.3 943.564 1747.99 942.947 1747.36 942.329C1746.74 942.021 1745.8 941.712 1744.86 941.712H1739.85V947.268Z" fill="black"/>
</g>
<defs>
<clipPath id="clip0_717_2351">
<rect width="967.356" height="235.402" fill="white" transform="translate(798.164 735.633)"/>
</clipPath>
</defs>
</svg>
