<svg width="2560" height="1708" viewBox="0 0 2560 1708" fill="none" xmlns="http://www.w3.org/2000/svg">
<rect y="0.666992" width="2560" height="1706.67" fill="white"/>
<g clip-path="url(#clip0_717_2582)">
<path d="M899.332 976.129L894.289 967.475L899.332 964.582V971.53V976.129Z" fill="black"/>
<path d="M698.86 620.706L693.817 623.598L688.75 614.92L692.769 617.219L698.86 620.706Z" fill="black"/>
<path d="M723.148 634.602L705.949 644.418L702.928 639.226L699.883 634.009L707.571 629.607L711.94 634.058L717.082 631.116L723.148 634.602Z" fill="black"/>
<path d="M747.461 648.472L718.105 665.261L712.039 654.851L724.995 647.434L729.363 651.884L741.37 645.011L747.461 648.472Z" fill="black"/>
<path d="M771.751 662.369L730.263 686.105L727.217 680.913L724.172 675.696L742.444 665.237L746.788 669.712L765.685 658.907L771.751 662.369Z" fill="black"/>
<path d="M796.064 676.262L742.419 706.946L736.328 696.537L759.868 683.062L764.236 687.512L789.973 672.801L796.064 676.262Z" fill="black"/>
<path d="M820.352 690.16L754.55 727.792L748.484 717.382L777.291 700.891L781.66 705.341L814.286 686.698L820.352 690.16Z" fill="black"/>
<path d="M844.665 704.053L766.707 748.633L760.641 738.199L794.739 718.715L799.083 723.166L838.574 700.592L844.665 704.053Z" fill="black"/>
<path d="M868.954 717.951L778.864 769.478L772.773 759.044L812.164 736.544L816.533 740.995L862.888 714.489L868.954 717.951Z" fill="black"/>
<path d="M893.267 731.844L791.021 790.319L784.93 779.885L829.613 754.344L833.956 758.795L887.176 728.383L893.267 731.844Z" fill="black"/>
<path d="M899.333 756.175L803.152 811.164L797.086 800.73L847.036 772.173L851.379 776.623L899.333 749.228V756.175Z" fill="black"/>
<path d="M899.332 783.941L815.308 832.006L809.242 821.572L864.459 789.998L868.828 794.449L899.332 777.018V783.941Z" fill="black"/>
<path d="M899.333 811.731L827.466 852.849L821.375 842.415L881.884 807.824L886.253 812.275L899.333 804.783V811.731Z" fill="black"/>
<path d="M899.333 839.523L839.622 873.694L833.531 863.26L899.333 825.628V832.576V839.523Z" fill="black"/>
<path d="M899.332 867.315L851.753 894.512L845.688 884.103L899.332 853.419V860.367V867.315Z" fill="black"/>
<path d="M899.332 895.105L863.91 915.355L860.864 910.162L857.844 904.945L899.332 881.209V888.157V895.105Z" fill="black"/>
<path d="M899.333 922.896L876.067 936.198L869.977 925.788L899.333 909V915.948V922.896Z" fill="black"/>
<path d="M899.332 950.687L888.224 957.041L885.178 951.849L882.133 946.632L899.332 936.791V943.739V950.687Z" fill="black"/>
<path d="M478.242 976.18V976.155H488.327V981.941L482.261 978.479L478.242 976.18Z" fill="black"/>
<path d="M889.25 981.917V976.131H899.335L895.316 978.43L889.25 981.917Z" fill="black"/>
<path d="M864.938 995.812V976.131H871.028H877.094V984.933L871.028 986.441V992.326L864.938 995.812Z" fill="black"/>
<path d="M840.648 1009.71V976.131H852.805V990.966L846.714 992.499V1006.22L840.648 1009.71Z" fill="black"/>
<path d="M816.359 1023.6V976.131H822.425H828.491V997.024L822.425 998.532V1020.12L816.359 1023.6Z" fill="black"/>
<path d="M792.047 1037.5V976.131H804.204V1003.06L798.138 1004.56V1034.01L792.047 1037.5Z" fill="black"/>
<path d="M767.758 1051.39V976.131H779.915V1009.11L773.824 1010.62V1047.93L767.758 1051.39Z" fill="black"/>
<path d="M743.469 1065.29V976.155H755.601V1015.15L749.535 1016.66V1061.83L743.469 1065.29Z" fill="black"/>
<path d="M719.156 1079.19V976.156H731.313V1021.18L725.247 1022.69V1075.72L719.156 1079.19Z" fill="black"/>
<path d="M694.867 1093.08V976.156H706.999V1027.24L700.933 1028.75V1089.62L694.867 1093.08Z" fill="black"/>
<path d="M670.578 1086.13V976.156H682.71V1033.27L676.644 1034.78V1089.6L670.578 1086.13Z" fill="black"/>
<path d="M646.266 1072.24V976.156H658.422V1039.33L652.332 1040.84V1075.72L646.266 1072.24Z" fill="black"/>
<path d="M621.977 1058.34V976.156H634.108V1045.36L628.042 1046.87V1061.83L621.977 1058.34Z" fill="black"/>
<path d="M597.664 1044.45V976.156H609.821V1051.4L603.755 1047.93L597.664 1044.45Z" fill="black"/>
<path d="M573.375 1030.58V976.155H585.532V1037.52L579.441 1034.04L573.375 1030.58Z" fill="black"/>
<path d="M549.086 1016.68V976.155H555.152H561.218V1023.63L555.152 1020.14L549.086 1016.68Z" fill="black"/>
<path d="M524.773 1002.78V976.155H536.93V1009.73L530.864 1006.25L524.773 1002.78Z" fill="black"/>
<path d="M500.484 988.889V976.155H506.55H512.641V995.837L506.55 992.35L500.484 988.889Z" fill="black"/>
<path d="M478.164 976.129L483.231 967.475L478.164 964.582V971.53V976.129Z" fill="black"/>
<path d="M678.641 620.706L683.708 623.598L688.75 614.92L684.731 617.219L678.641 620.706Z" fill="black"/>
<path d="M654.352 634.601L671.551 644.417L674.596 639.225L677.642 634.008L669.928 629.606L665.585 634.057L660.417 631.115L654.352 634.601Z" fill="black"/>
<path d="M630.062 648.472L659.394 665.261L665.484 654.851L652.504 647.434L648.135 651.884L636.128 645.011L630.062 648.472Z" fill="black"/>
<path d="M605.75 662.369L647.263 686.105L650.283 680.913L653.329 675.696L635.081 665.237L630.713 669.712L611.816 658.907L605.75 662.369Z" fill="black"/>
<path d="M581.461 676.262L635.105 706.946L641.171 696.537L617.632 683.062L613.288 687.512L587.527 672.801L581.461 676.262Z" fill="black"/>
<path d="M557.141 690.16L622.942 727.792L629.033 717.382L600.201 700.891L595.833 705.341L563.231 686.698L557.141 690.16Z" fill="black"/>
<path d="M532.859 704.053L610.792 748.633L616.883 738.199L582.784 718.715L578.416 723.166L538.925 700.592L532.859 704.053Z" fill="black"/>
<path d="M508.547 717.951L598.662 769.478L604.728 759.044L565.337 736.544L560.993 740.995L514.638 714.489L508.547 717.951Z" fill="black"/>
<path d="M484.258 731.844L586.504 790.319L592.57 779.885L547.912 754.344L543.544 758.795L490.324 728.383L484.258 731.844Z" fill="black"/>
<path d="M478.188 756.175L574.343 811.164L580.409 800.73L530.484 772.173L526.116 776.623L478.188 749.228V756.175Z" fill="black"/>
<path d="M478.188 783.942L562.186 832.007L568.277 821.573L513.035 789.999L508.692 794.45L478.188 777.019V783.942Z" fill="black"/>
<path d="M478.188 811.731L550.055 852.849L556.121 842.415L495.611 807.824L491.243 812.275L478.188 804.783V811.731Z" fill="black"/>
<path d="M478.164 839.523L537.899 873.694L543.965 863.26L478.189 825.628V832.576L478.164 839.523Z" fill="black"/>
<path d="M478.164 867.315L525.743 894.512L531.809 884.103L478.164 853.419V860.367V867.315Z" fill="black"/>
<path d="M478.164 895.105L513.586 915.355L516.631 910.162L519.677 904.945L478.164 881.209V888.157V895.105Z" fill="black"/>
<path d="M478.164 922.896L501.454 936.198L507.52 925.788L478.164 909V915.948V922.896Z" fill="black"/>
<path d="M478.164 950.687L489.297 957.041L492.343 951.849L495.363 946.632L478.164 936.791V943.739V950.687Z" fill="black"/>
<path d="M1030.18 703.364C1037.54 703.364 1044.21 703.809 1050.15 704.699C1056.09 705.59 1062.2 707.493 1068.47 710.361C1074.74 713.254 1079.98 717.087 1084.17 721.883C1088.36 726.68 1091.83 733.257 1094.56 741.565C1097.28 749.897 1098.62 759.688 1098.62 770.963C1098.62 782.238 1097.28 792.029 1094.56 800.361C1091.83 808.694 1088.39 815.246 1084.17 820.043C1079.98 824.839 1074.74 828.721 1068.47 831.663C1062.2 834.606 1056.09 836.534 1050.15 837.424C1044.21 838.314 1037.54 838.76 1030.18 838.76H986.742V703.364H1030.18ZM1030.18 825.334C1034.82 825.334 1038.96 825.136 1042.58 824.765C1046.2 824.369 1050.17 823.603 1054.52 822.466C1058.83 821.304 1062.55 819.499 1065.67 817.001C1068.77 814.504 1071.69 811.339 1074.41 807.482C1077.13 803.625 1079.2 798.606 1080.63 792.4C1082.05 786.194 1082.75 779.048 1082.75 770.988C1082.75 761.394 1081.65 753.111 1079.45 746.213C1077.26 739.29 1074.56 733.974 1071.42 730.265C1068.24 726.557 1064.1 723.639 1059.01 721.537C1053.89 719.436 1049.25 718.125 1045.05 717.606C1040.86 717.087 1035.92 716.839 1030.23 716.839H1002.69V825.334H1030.18Z" fill="black"/>
<path d="M1112.8 789.805C1112.8 774.697 1117.1 762.854 1125.71 754.274C1134.3 745.695 1145.58 741.393 1159.56 741.393C1173.26 741.393 1184.2 745.497 1192.34 753.681C1200.47 761.865 1204.54 773.263 1204.54 787.876V794.033H1128.33C1128.86 804.022 1131.78 812.131 1137.14 818.337C1142.51 824.543 1150.75 827.659 1161.88 827.659C1169.89 827.659 1176.48 825.78 1181.65 821.997C1186.82 818.214 1190.24 812.675 1191.94 805.381H1207.84C1206.79 809.609 1205.29 813.565 1203.27 817.299C1201.27 821.008 1198.55 824.717 1195.13 828.45C1191.71 832.159 1187.12 835.151 1181.35 837.376C1175.59 839.626 1169.1 840.738 1161.86 840.738C1145.56 840.738 1133.32 835.967 1125.11 826.423C1116.9 816.854 1112.8 804.664 1112.8 789.805ZM1128.31 782.115H1189.02C1189.02 774.178 1186.42 767.601 1181.25 762.434C1176.08 757.241 1168.85 754.645 1159.53 754.645C1150.22 754.645 1142.68 757.266 1136.94 762.533C1131.18 767.774 1128.31 774.302 1128.31 782.115Z" fill="black"/>
<path d="M1319.12 827.434H1353.07V840.687H1333.48C1316.88 840.687 1303.42 827.36 1303.42 810.918V756.745H1282.08V743.294H1303.42V713.921H1319.12V743.319H1349.18V756.77H1319.12V827.434Z" fill="black"/>
<path d="M1331.55 993.688H1365.5V1006.94H1345.91C1329.31 1006.94 1315.85 993.613 1315.85 977.171V922.998H1294.51V909.548H1315.85V880.149H1331.55V909.548H1361.61V922.998H1331.55V993.688Z" fill="black"/>
<path d="M1367.62 812.28C1367.62 795.887 1378.16 786.615 1399.23 784.439L1437.62 780.78C1436.72 763.373 1427.66 754.645 1410.46 754.645C1402.7 754.645 1396.28 756.574 1391.16 760.406C1386.05 764.239 1383.5 770.395 1383.5 778.851H1367.97C1367.97 768.467 1371.79 759.64 1379.41 752.346C1387.05 745.052 1397.38 741.393 1410.44 741.393C1423.74 741.393 1434.25 745.373 1441.94 753.31C1449.63 761.247 1453.47 771.681 1453.47 784.612V825.335H1467.62V838.785H1450.55C1442.91 838.785 1439.12 835.076 1439.12 827.634V822.442L1441.64 812.453H1437C1432.2 831.269 1419.8 840.689 1399.75 840.689C1394.46 840.689 1389.77 840.021 1385.7 838.662C1381.63 837.326 1378.48 835.645 1376.29 833.667C1374.09 831.689 1372.27 829.315 1370.85 826.571C1369.42 823.826 1368.52 821.329 1368.12 819.079C1367.8 816.854 1367.62 814.579 1367.62 812.28ZM1383.53 810.351C1383.53 815.741 1385.15 819.895 1388.37 822.837C1391.59 825.78 1396.06 827.263 1401.75 827.263C1412.48 827.263 1421.14 824 1427.73 817.472C1434.32 810.945 1437.62 802.612 1437.62 792.5L1401.95 796.159C1395.61 796.802 1390.96 798.186 1387.99 800.288C1385 802.39 1383.53 805.752 1383.53 810.351Z" fill="black"/>
<path d="M1558.24 821.007C1546.73 807.878 1540.99 791.213 1540.99 770.963C1540.99 750.738 1546.73 734.073 1558.24 721.018C1569.75 707.963 1585.33 701.436 1604.97 701.436C1622.3 701.436 1636.42 706.282 1647.33 715.949C1658.27 725.617 1664.76 738.845 1666.83 755.608H1650.93C1649.38 742.554 1644.66 732.49 1636.77 725.444C1628.89 718.397 1618.28 714.886 1604.97 714.886C1589.44 714.886 1577.56 720.004 1569.3 730.24C1561.04 740.477 1556.89 754.051 1556.89 770.963C1556.89 787.999 1561.04 801.622 1569.3 811.883C1577.56 822.119 1589.47 827.237 1604.97 827.237C1618.28 827.237 1628.89 823.677 1636.77 816.581C1644.66 809.485 1649.38 799.397 1650.93 786.317H1666.83C1664.76 803.229 1658.27 816.507 1647.33 826.174C1636.4 835.842 1622.3 840.688 1604.97 840.688C1585.33 840.688 1569.75 834.136 1558.24 821.007Z" fill="black"/>
<path d="M1671.89 838.783V825.333H1699.05V709.322H1679.08V695.674H1684.7C1701.3 695.674 1714.75 709.001 1714.75 725.443V825.333H1741.71V838.783H1671.89V838.783Z" fill="black"/>
<path d="M1213.45 838.783V825.333H1240.61V709.322H1220.64V695.674H1226.26C1242.86 695.674 1256.31 709.001 1256.31 725.443V825.333H1283.27V838.783H1213.45V838.783Z" fill="black"/>
<path d="M1748.88 790.942C1748.88 776.849 1753.59 765.079 1763.03 755.61C1772.46 746.14 1784.75 741.393 1799.87 741.393C1814.88 741.393 1827.06 746.14 1836.42 755.61C1845.78 765.079 1850.47 776.873 1850.47 790.942C1850.47 805.159 1845.78 817.002 1836.42 826.472C1827.03 835.942 1814.85 840.689 1799.87 840.689C1784.75 840.689 1772.46 835.942 1763.03 826.472C1753.59 817.002 1748.88 805.159 1748.88 790.942ZM1764.78 790.942C1764.78 801.45 1767.87 810.129 1774.09 816.978C1780.3 823.826 1788.89 827.263 1799.87 827.263C1810.86 827.263 1819.42 823.802 1825.56 816.879C1831.7 809.956 1834.77 801.327 1834.77 790.942C1834.77 780.557 1831.7 771.953 1825.56 765.104C1819.42 758.255 1810.86 754.818 1799.87 754.818C1788.89 754.818 1780.28 758.255 1774.09 765.104C1767.87 771.978 1764.78 780.582 1764.78 790.942Z" fill="black"/>
<path d="M1907.12 827.263C1917.46 827.263 1925.84 823.505 1932.23 816.013C1938.62 808.522 1941.84 798.434 1941.84 785.75V743.321H1957.55V838.785H1941.84V822.269L1944.36 811.316H1939.9C1937.82 820.291 1933.66 827.412 1927.39 832.728C1921.12 838.044 1912.94 840.689 1902.85 840.689C1891.59 840.689 1882.78 837.425 1876.39 830.898C1870 824.371 1866.78 814.629 1866.78 801.698V743.321H1882.68V799.596C1882.68 809.461 1884.65 816.533 1888.6 820.81C1892.54 825.112 1898.71 827.263 1907.12 827.263Z" fill="black"/>
<path d="M2078.16 838.784H2062.26V824.764L2064.98 814.009H2060.34C2058.14 821.822 2053.72 828.226 2047.06 833.22C2040.39 838.215 2031.83 840.712 2021.37 840.712C2007.67 840.712 1996.58 836.039 1988.12 826.693C1979.66 817.347 1975.41 805.429 1975.41 790.965C1975.41 776.624 1979.66 764.781 1988.12 755.435C1996.58 746.089 2007.67 741.416 2021.37 741.416C2031.85 741.416 2040.42 743.913 2047.06 748.907C2053.72 753.902 2058.14 760.38 2060.34 768.317H2064.98L2062.26 757.363V697.603H2078.16V838.784ZM2062.26 790.94C2062.26 778.899 2058.89 769.874 2052.17 763.866C2045.46 757.858 2036.72 754.841 2025.99 754.841C2015.38 754.841 2006.94 757.808 2000.68 763.767C1994.41 769.726 1991.27 778.775 1991.27 790.94C1991.27 803.105 1994.41 812.204 2000.68 818.212C2006.94 824.22 2015.38 827.237 2025.99 827.237C2036.72 827.237 2045.43 824.22 2052.17 818.212C2058.89 812.204 2062.26 803.105 2062.26 790.94Z" fill="black"/>
<path d="M1095.33 970.791C1095.33 994.873 1077.81 1006.89 1042.79 1006.89C1020.17 1006.89 1004.19 1002.37 994.884 993.34C985.573 984.316 980.93 971.285 980.93 954.25H996.831C996.831 969.357 1000.58 979.667 1008.09 985.181C1015.58 990.695 1027.16 993.439 1042.81 993.439C1054.97 993.439 1064.1 991.733 1070.25 988.346C1076.39 984.958 1079.46 979.346 1079.46 971.533C1079.46 969.357 1079.21 967.28 1078.68 965.277C1078.16 963.299 1077.29 961.544 1076.06 959.986C1074.84 958.453 1073.64 957.044 1072.47 955.758C1071.29 954.472 1069.62 953.261 1067.42 952.099C1065.23 950.937 1063.36 949.997 1061.81 949.206C1060.26 948.439 1058.01 947.574 1055.12 946.61C1052.2 945.645 1049.9 944.953 1048.23 944.508C1046.56 944.063 1044.08 943.395 1040.86 942.481C1037.62 941.59 1035.25 940.873 1033.7 940.379C1025.69 937.956 1019.35 935.829 1014.7 934.049C1010.06 932.244 1005.37 929.846 1000.65 926.854C995.932 923.838 992.512 920.228 990.366 916C988.244 911.772 987.17 906.777 987.17 901.016C987.17 878.739 1003.32 867.588 1035.65 867.588C1045.33 867.588 1053.82 868.923 1061.06 871.618C1068.3 874.313 1073.92 877.948 1077.93 882.571C1081.93 887.17 1084.92 892.115 1086.85 897.357C1088.79 902.599 1089.77 908.187 1089.77 914.071H1073.87C1073.87 903.069 1070.32 894.81 1063.21 889.297C1056.09 883.783 1046.91 881.038 1035.67 881.038C1013.96 881.038 1003.1 887.566 1003.1 900.621C1003.1 907.272 1005.72 912.365 1010.96 915.901C1016.2 919.437 1025.09 923.096 1037.62 926.953C1038.92 927.349 1040.79 927.917 1043.24 928.684C1048.03 930.093 1051.67 931.206 1054.19 932.047C1056.72 932.887 1060.14 934.099 1064.48 935.706C1068.8 937.313 1072.17 938.821 1074.56 940.231C1076.96 941.64 1079.68 943.42 1082.7 945.621C1085.75 947.796 1088.04 950.046 1089.59 952.346C1091.14 954.645 1092.51 957.365 1093.66 960.505C1094.76 963.67 1095.33 967.082 1095.33 970.791Z" fill="black"/>
<path d="M1184.55 909.521H1201.8L1159.91 1004.02L1159.88 1012.33C1159.86 1028.75 1146.41 1042.05 1129.83 1042.05H1109.29V1028.6H1144.01V1004.02L1101.92 909.521H1119.37L1149.65 983.869V991.163H1154.29V983.869L1184.55 909.521Z" fill="black"/>
<path d="M1287.92 980.21C1287.92 988.147 1284.95 994.576 1279.01 999.521C1273.06 1004.44 1263.35 1006.91 1249.92 1006.91C1220.57 1006.91 1205.89 994.551 1205.89 969.851H1221.79C1221.79 985.996 1231.23 994.057 1250.1 994.057C1257.74 994.057 1263.28 993.043 1266.77 990.991C1270.27 988.938 1272.02 985.551 1272.02 980.804C1272.02 978.999 1271.82 977.441 1271.44 976.106C1271.04 974.771 1270.24 973.51 1269.02 972.373C1267.8 971.21 1266.72 970.271 1265.83 969.48C1264.93 968.713 1263.33 967.922 1261.08 967.081C1258.81 966.241 1257.14 965.647 1256.04 965.252C1254.94 964.856 1252.8 964.238 1249.65 963.323C1246.48 962.433 1244.38 961.79 1243.36 961.395C1237.79 959.614 1233.42 958.057 1230.28 956.796C1227.11 955.51 1223.79 953.754 1220.29 951.504C1216.8 949.254 1214.28 946.609 1212.73 943.543C1211.18 940.477 1210.41 936.892 1210.41 932.787C1210.41 925.098 1213.5 918.991 1219.72 914.441C1225.94 909.892 1234.52 907.617 1245.51 907.617C1259.34 907.617 1269.32 910.683 1275.46 916.84C1281.6 922.996 1284.67 930.612 1284.67 939.686H1268.77C1268.77 926.878 1261.01 920.474 1245.51 920.474C1232.7 920.474 1226.31 924.381 1226.31 932.194C1226.31 936.546 1227.86 939.809 1230.95 941.985C1234.05 944.161 1239.86 946.584 1248.4 949.279C1249.58 949.675 1251.67 950.342 1254.69 951.307C1257.74 952.271 1259.88 952.963 1261.18 953.408C1262.48 953.853 1264.4 954.57 1267 955.51C1269.6 956.474 1271.49 957.315 1272.72 958.007C1273.94 958.724 1275.56 959.639 1277.56 960.801C1279.56 961.963 1281.05 963.175 1282.03 964.46C1283 965.746 1284 967.18 1285.02 968.787C1286.05 970.395 1286.79 972.15 1287.24 974.079C1287.69 975.982 1287.92 978.035 1287.92 980.21Z" fill="black"/>
<path d="M1374.59 956.004C1374.59 940.897 1378.89 929.053 1387.5 920.474C1396.09 911.894 1407.37 907.592 1421.35 907.592C1435.05 907.592 1445.99 911.696 1454.12 919.88C1462.26 928.064 1466.33 939.463 1466.33 954.075V960.232H1390.12C1390.64 970.221 1393.57 978.331 1398.93 984.537C1404.3 990.743 1412.54 993.858 1423.67 993.858C1431.68 993.858 1438.27 991.979 1443.44 988.196C1448.61 984.413 1452.03 978.875 1453.73 971.581H1469.63C1468.58 975.809 1467.08 979.765 1465.06 983.498C1463.06 987.207 1460.34 990.916 1456.92 994.649C1453.5 998.358 1448.91 1001.35 1443.14 1003.58C1437.37 1005.83 1430.88 1006.94 1423.65 1006.94C1407.34 1006.94 1395.11 1002.17 1386.9 992.622C1378.71 983.053 1374.59 970.864 1374.59 956.004ZM1390.12 948.314H1450.83C1450.83 940.377 1448.23 933.801 1443.07 928.633C1437.9 923.441 1430.66 920.845 1421.35 920.845C1412.04 920.845 1404.5 923.465 1398.76 928.732C1392.99 933.998 1390.12 940.526 1390.12 948.314Z" fill="black"/>
<path d="M1606.34 907.595C1616.03 907.595 1623.44 911.032 1628.56 917.881C1633.68 924.73 1636.22 933.73 1636.22 944.881V1005.01H1620.32V948.54C1620.32 938.798 1618.9 931.801 1616.05 927.499C1613.21 923.221 1608.04 921.07 1600.55 921.07C1591.12 921.07 1583.65 924.878 1578.16 932.493C1572.67 940.109 1569.92 950.271 1569.92 962.93V1004.99H1554.02V948.515C1554.02 938.774 1552.6 931.776 1549.75 927.474C1546.91 923.197 1541.74 921.046 1534.23 921.046C1524.79 921.046 1517.33 924.853 1511.83 932.469C1506.34 940.084 1503.6 950.246 1503.6 962.905V1004.96H1487.7V909.499H1503.6V925.818L1501.08 936.573H1505.54C1509.94 917.238 1521.44 907.57 1540.07 907.57C1548.48 907.57 1555.09 910.166 1559.94 915.359C1564.78 920.551 1567.8 927.622 1568.95 936.573H1571.87C1576.21 917.287 1587.72 907.595 1606.34 907.595Z" fill="black"/>
<path d="M1733.95 980.21C1733.95 988.147 1730.98 994.576 1725.04 999.521C1719.1 1004.44 1709.39 1006.91 1695.96 1006.91C1666.6 1006.91 1651.92 994.551 1651.92 969.851H1667.82C1667.82 985.996 1677.26 994.057 1696.13 994.057C1703.77 994.057 1709.31 993.043 1712.81 990.991C1716.3 988.938 1718.05 985.551 1718.05 980.804C1718.05 978.999 1717.85 977.441 1717.47 976.106C1717.07 974.771 1716.28 973.51 1715.05 972.373C1713.83 971.21 1712.76 970.271 1711.86 969.48C1710.96 968.713 1709.36 967.922 1707.11 967.081C1704.84 966.241 1703.17 965.647 1702.07 965.252C1700.97 964.856 1698.83 964.238 1695.68 963.323C1692.51 962.433 1690.41 961.79 1689.39 961.395C1683.82 959.614 1679.46 958.057 1676.31 956.796C1673.14 955.51 1669.82 953.754 1666.33 951.504C1662.83 949.254 1660.31 946.609 1658.76 943.543C1657.21 940.477 1656.44 936.892 1656.44 932.787C1656.44 925.098 1659.54 918.991 1665.75 914.441C1671.97 909.892 1680.55 907.617 1691.54 907.617C1705.37 907.617 1715.35 910.683 1721.49 916.84C1727.63 922.996 1730.7 930.612 1730.7 939.686H1714.8C1714.8 926.878 1707.04 920.474 1691.54 920.474C1678.73 920.474 1672.34 924.381 1672.34 932.194C1672.34 936.546 1673.89 939.809 1676.98 941.985C1680.08 944.161 1685.9 946.584 1694.43 949.279C1695.61 949.675 1697.7 950.342 1700.72 951.307C1703.77 952.271 1705.92 952.963 1707.21 953.408C1708.51 953.853 1710.43 954.57 1713.03 955.51C1715.63 956.474 1717.52 957.315 1718.75 958.007C1719.97 958.724 1721.59 959.639 1723.59 960.801C1725.59 961.963 1727.08 963.175 1728.06 964.46C1729.03 965.746 1730.03 967.18 1731.05 968.787C1732.08 970.395 1732.83 972.15 1733.27 974.079C1733.72 975.982 1733.95 978.035 1733.95 980.21Z" fill="black"/>
<path d="M1757.67 909.201V912.292H1751.15V928.61H1747.56V912.292H1740.97V909.201H1757.67Z" fill="black"/>
<path d="M1759.37 928.61V909.226H1766.46L1770.4 927.72H1771.32L1775.27 909.226H1782.36V928.61H1778.76V912.44L1779.44 910.14H1778.49L1774.37 928.635H1767.38L1763.24 910.14H1762.31L1762.96 912.44V928.61H1759.37Z" fill="black"/>
</g>
<defs>
<clipPath id="clip0_717_2582">
<rect width="1600" height="478.161" fill="white" transform="translate(478.164 614.92)"/>
</clipPath>
</defs>
</svg>
