<svg width="2560" height="1707" viewBox="0 0 2560 1707" fill="none" xmlns="http://www.w3.org/2000/svg">
<rect y="0.333984" width="2560" height="1706.67" fill="white"/>
<path d="M1554.55 1112.08C1600.95 1065.43 1600.95 990.491 1554.55 943.842L1490.67 879.605L1554.55 815.369C1600.95 768.72 1600.95 693.777 1554.55 647.129C1541.63 634.129 1527.17 624.952 1511.2 619.599C1505.88 603.54 1496.75 588.245 1483.82 576.01C1437.43 529.361 1362.89 529.361 1316.5 576.01L1252.61 640.247L1188.72 576.01C1142.33 529.361 1067.79 529.361 1021.4 576.01C1008.47 589.01 999.34 603.54 994.016 619.599C978.044 624.952 962.832 634.129 950.663 647.129C904.269 693.777 904.269 768.72 950.663 815.369L1014.55 879.605L950.663 943.842C904.269 990.491 904.269 1065.43 950.663 1112.08C963.593 1125.08 978.044 1134.26 994.016 1139.61C999.34 1155.67 1008.47 1170.97 1021.4 1183.2C1067.79 1229.85 1142.33 1229.85 1188.72 1183.2L1252.61 1118.96L1316.5 1183.2C1362.89 1229.85 1437.43 1229.85 1483.82 1183.2C1496.75 1170.2 1505.88 1155.67 1511.2 1139.61C1526.41 1134.26 1541.63 1125.08 1554.55 1112.08ZM1548.47 988.196C1581.17 1021.08 1581.17 1073.85 1548.47 1105.96C1538.58 1115.91 1527.17 1122.79 1514.24 1126.61C1523.37 1087.61 1512.72 1045.55 1483.06 1015.73L1419.17 951.49L1394.84 926.254L1348.44 879.605L1323.34 855.134L1276.95 808.486L1323.34 761.838L1548.47 988.196ZM1394.84 976.726L1477.74 1060.08C1496.75 1079.2 1504.36 1105.2 1501.32 1129.67C1476.98 1132.73 1451.12 1125.08 1432.1 1105.96L1348.44 1023.37L1394.84 976.726ZM1298.24 880.37L1251.85 927.018L1205.45 880.37L1251.85 833.722L1298.24 880.37ZM1500.55 630.305C1503.6 654.776 1495.99 680.777 1476.98 699.895L1394.84 783.25L1348.44 736.602L1431.34 653.247C1450.36 634.893 1476.22 627.246 1500.55 630.305ZM1548.47 654.012C1581.17 686.895 1581.17 739.661 1548.47 771.779L1465.57 855.134L1419.17 808.486L1483.06 744.249C1512.72 714.425 1523.37 671.6 1514.24 633.364C1527.17 637.188 1538.58 644.07 1548.47 654.012ZM1476.98 582.127C1486.86 592.069 1493.71 603.54 1497.51 616.54C1459.48 607.363 1416.89 618.069 1387.23 647.894L1181.12 855.134L1134.72 808.486L1359.85 582.127C1392.55 550.009 1445.03 550.009 1476.98 582.127ZM1110.38 783.25L1027.48 699.895C1008.47 680.777 1000.86 654.776 1003.9 630.305C1028.24 627.246 1054.1 634.893 1073.11 654.012L1156.02 737.367L1110.38 783.25ZM1027.48 582.127C1060.19 549.244 1112.66 549.244 1144.61 582.127L1227.51 665.482L1181.12 712.131L1117.23 647.894C1087.57 618.069 1044.97 607.363 1006.95 616.54C1010.75 603.54 1017.59 592.069 1027.48 582.127ZM955.987 771.779C923.283 738.896 923.283 686.13 955.987 654.012C965.875 644.07 977.283 637.188 990.213 633.364C981.086 671.6 991.734 714.425 1021.4 744.249L1227.51 951.49L1181.12 998.138L955.987 771.779ZM1003.9 1129.67C1000.86 1105.2 1008.47 1079.2 1027.48 1060.08L1110.38 976.726L1156.78 1023.37L1073.11 1105.96C1054.1 1125.08 1028.24 1133.49 1003.9 1129.67ZM955.987 1105.96C923.283 1073.08 923.283 1020.31 955.987 988.196L1038.89 904.841L1085.28 951.49L1021.4 1015.73C991.734 1045.55 981.086 1088.38 990.213 1126.61C977.283 1122.79 965.875 1115.91 955.987 1105.96ZM1027.48 1177.85C1017.59 1167.91 1010.75 1156.44 1006.95 1143.44C1045.73 1152.61 1087.57 1141.91 1117.23 1112.08L1323.34 904.841L1369.74 951.49L1144.61 1177.85C1111.9 1209.97 1059.42 1209.97 1027.48 1177.85ZM1476.98 1177.85C1444.27 1210.73 1391.79 1210.73 1359.85 1177.85L1276.95 1094.49L1323.34 1047.84L1387.23 1112.08C1416.89 1141.91 1459.48 1152.61 1497.51 1143.44C1493.71 1156.44 1486.86 1167.91 1476.98 1177.85Z" fill="black"/>
<path d="M1252.6 582.89C1261.73 582.89 1269.33 575.243 1269.33 566.066C1269.33 556.889 1261.73 549.242 1252.6 549.242C1243.47 549.242 1235.87 556.889 1235.87 566.066C1235.87 575.243 1242.71 582.89 1252.6 582.89Z" fill="black"/>
<path d="M1576.45 892.021C1582.98 885.451 1582.98 874.799 1576.45 868.229C1569.91 861.659 1559.32 861.659 1552.78 868.229C1546.25 874.799 1546.25 885.451 1552.78 892.021C1559.32 898.591 1569.91 898.591 1576.45 892.021Z" fill="black"/>
<path d="M940.014 863.545C930.887 863.545 923.281 870.427 923.281 880.369C923.281 889.546 930.887 897.193 940.014 897.193C949.141 897.193 956.746 889.546 956.746 880.369C956.746 870.427 949.141 863.545 940.014 863.545Z" fill="black"/>
<path d="M1264.46 1205.5C1271 1198.93 1271 1188.28 1264.46 1181.71C1257.93 1175.14 1247.33 1175.14 1240.8 1181.71C1234.27 1188.28 1234.27 1198.93 1240.8 1205.5C1247.33 1212.07 1257.93 1212.07 1264.46 1205.5Z" fill="black"/>
</svg>
