<svg width="2560" height="1708" viewBox="0 0 2560 1708" fill="none" xmlns="http://www.w3.org/2000/svg">
<rect y="0.998047" width="2560" height="1706.67" fill="white"/>
<path d="M536.794 881.143H529.656V798.19H536.794C536.794 820.489 544.824 839.221 560.883 855.276C576.943 871.331 596.572 878.467 618.877 878.467C628.691 878.467 635.829 875.791 642.074 870.439C647.427 865.087 650.996 857.06 650.996 848.14C650.996 837.437 643.859 828.517 630.475 821.381C623.338 817.814 610.847 811.57 592.111 803.542C574.267 795.515 561.776 788.379 553.746 783.027C539.471 771.432 532.333 756.268 534.117 737.537C535.902 718.806 543.039 704.535 555.53 693.831C568.021 683.128 581.404 678.668 597.464 678.668C612.631 678.668 626.907 680.452 639.398 684.912C651.888 689.371 659.026 691.155 660.81 691.155C665.272 691.155 667.948 686.696 667.948 678.668H675.086V743.781H667.948C667.948 726.834 661.703 712.562 649.212 701.859C636.721 691.155 620.661 685.804 601.033 685.804C592.111 685.804 584.973 688.48 580.512 693.831C575.159 699.183 573.374 704.535 573.374 710.779C573.374 717.022 574.267 721.482 576.051 725.05C577.835 728.618 580.512 731.294 584.973 733.969C589.434 736.645 593.003 739.321 595.679 740.213C598.356 741.997 602.817 743.781 609.955 746.457C617.092 749.133 621.553 750.917 624.23 752.701C637.613 758.944 644.751 762.512 647.427 763.404C650.104 764.296 652.781 766.08 658.134 768.756C662.595 771.432 666.164 773.216 667.948 775C670.625 776.783 673.301 779.459 676.87 782.135C680.439 784.811 683.116 787.487 684.9 791.055C686.684 793.731 688.469 797.299 690.253 800.866C693.822 808.002 694.714 816.922 693.822 827.625C692.038 846.356 684.9 861.52 672.409 871.331C659.918 881.143 642.966 886.494 622.446 886.494C603.709 886.494 584.973 882.035 566.237 872.223C559.991 868.655 555.53 866.871 551.961 866.871C541.255 866.871 536.794 871.331 536.794 881.143Z" fill="black"/>
<path d="M1031.97 682.238V689.374H1007.89L932.048 881.145H923.126L833.905 689.374H816.953V682.238H917.772V689.374H899.928L951.676 808.005L998.963 689.374H970.412V682.238H1031.97V682.238Z" fill="black"/>
<path d="M1366.56 874.008V881.144H1272.87V874.008H1293.4L1270.2 824.059L1231.83 743.782L1177.41 873.116H1205.07V880.252H1145.29V873.116H1169.38L1250.57 677.777H1259.49L1349.6 873.116H1366.56V874.008ZM1231.83 744.674L1266.63 816.923L1231.83 744.674Z" fill="black"/>
<path d="M2030.35 874.007V881.143H1936.67V874.007H1957.19L1933.1 824.949L1894.73 744.673L1840.31 874.007H1867.97V881.143H1807.3V874.007H1831.39L1912.58 678.668H1921.5L2011.61 874.007H2030.35ZM1895.63 744.673L1930.42 816.922L1895.63 744.673Z" fill="black"/>
<path d="M1695.77 682.238V689.374H1671.68L1595.84 881.145H1586.92L1497.7 689.374H1480.75V682.238H1581.57V689.374H1563.73L1615.47 808.005L1662.76 689.374H1634.21V682.238H1695.77V682.238Z" fill="black"/>
<path d="M762.519 988.18H769.657V1017.61C769.657 1018.51 769.657 1020.29 769.657 1021.18C769.657 1022.07 768.764 1022.97 768.764 1023.86C767.872 1024.75 767.872 1025.64 766.98 1026.53C766.088 1027.43 765.196 1027.43 764.303 1028.32C763.411 1028.32 762.519 1029.21 761.627 1029.21C760.735 1029.21 759.842 1029.21 758.058 1029.21C757.166 1029.21 755.381 1029.21 754.489 1029.21C753.597 1029.21 752.705 1028.32 751.812 1028.32V1022.07C752.705 1022.07 753.597 1022.97 754.489 1022.97C755.381 1022.97 756.274 1022.97 757.166 1022.97C758.95 1022.97 760.735 1022.97 761.627 1022.07C762.519 1021.18 762.519 1020.29 762.519 1018.51V988.18V988.18Z" fill="black"/>
<path d="M919.552 1022.08H939.18V1028.32H912.414V989.074H938.288V995.318H919.552V1006.02H935.611V1012.27H919.552V1022.08Z" fill="black"/>
<path d="M1103.35 998.886C1102.46 1002.45 1101.57 1006.02 1100.68 1010.48L1096.21 1028.32H1089.08L1076.59 989.074H1084.62L1089.08 1005.13C1090.86 1010.48 1091.75 1014.94 1092.65 1018.51C1093.54 1014.05 1094.43 1009.59 1095.32 1005.13L1099.78 989.074H1106.92L1111.38 1005.13C1112.27 1009.59 1113.17 1014.05 1114.06 1018.51C1114.95 1014.05 1116.74 1009.59 1117.63 1005.13L1122.09 989.074H1130.12L1117.63 1028.32H1110.49L1106.03 1010.48C1105.14 1006.02 1104.24 1002.45 1103.35 998.886Z" fill="black"/>
<path d="M1276.42 1022.08H1296.05V1028.32H1269.28V989.074H1295.16V995.318H1276.42V1006.02H1292.48V1012.27H1276.42V1022.08V1022.08Z" fill="black"/>
<path d="M1445.04 988.18V1022.07H1463.78V1028.32H1437.91V989.072H1445.04V988.18Z" fill="black"/>
<path d="M1633.33 1000.67C1633.33 1003.35 1632.43 1006.02 1630.65 1007.81C1628.87 1009.59 1627.08 1011.37 1623.51 1012.27L1635.11 1028.32H1626.19L1615.48 1013.16H1610.13V1028.32H1602.99V989.074H1615.48C1617.27 989.074 1619.05 989.074 1620.84 989.074C1622.62 989.074 1624.41 989.966 1625.3 989.966C1627.97 990.858 1629.76 991.75 1630.65 993.534C1632.43 995.318 1633.33 997.994 1633.33 1000.67ZM1614.59 1006.91C1616.38 1006.91 1617.27 1006.91 1619.05 1006.91C1619.94 1006.91 1620.84 1006.91 1621.73 1006.02C1623.51 1005.13 1624.41 1005.13 1624.41 1003.35C1625.3 1002.45 1625.3 1001.56 1625.3 999.778C1625.3 998.886 1625.3 997.994 1624.41 997.102C1624.41 996.21 1623.51 995.318 1621.73 995.318C1620.84 995.318 1619.94 994.426 1619.05 994.426C1618.16 994.426 1616.38 994.426 1615.48 994.426H1610.13V1006.91H1614.59V1006.91Z" fill="black"/>
<path d="M1790.35 1005.13L1801.05 988.18H1809.08L1793.91 1012.26V1028.32H1786.78V1012.26L1771.61 988.18H1779.64L1790.35 1005.13Z" fill="black"/>
</svg>
