<svg width="2560" height="1708" viewBox="0 0 2560 1708" fill="none" xmlns="http://www.w3.org/2000/svg">
<rect y="0.666992" width="2560" height="1706.67" fill="white"/>
<path d="M829.336 942.409V767.829H855.568L942.453 899.275V767.829H968.685V942.409H942.453L855.568 810.963V942.409H829.336Z" fill="black"/>
<path d="M1047.92 945.395C1035.87 945.395 1025.18 942.712 1015.86 937.312C1006.54 931.911 999.214 924.398 993.954 914.739C988.661 905.112 986.031 893.876 986.031 881.064C986.031 868.083 988.628 856.713 993.821 846.919C999.014 837.092 1006.3 829.478 1015.63 823.977C1024.95 818.51 1035.8 815.76 1048.15 815.76C1060.2 815.76 1070.69 818.443 1079.61 823.843C1088.53 829.243 1095.45 836.454 1100.38 845.41C1105.31 854.365 1107.8 864.293 1107.8 875.093C1107.8 876.77 1107.77 878.548 1107.67 880.46C1107.57 882.372 1107.44 884.485 1107.3 886.833H1011.76C1012.6 898.807 1016.49 907.896 1023.52 914.135C1030.54 920.373 1038.63 923.493 1047.88 923.493C1055.31 923.493 1061.53 921.782 1066.59 918.395C1071.62 914.973 1075.38 910.378 1077.84 904.542H1104.08C1100.78 916.181 1094.22 925.908 1084.4 933.723C1074.61 941.504 1062.43 945.395 1047.92 945.395ZM1047.92 837.427C1039.16 837.427 1031.4 840.043 1024.65 845.276C1017.89 850.508 1013.76 858.357 1012.26 868.855H1081.57C1081.07 859.229 1077.71 851.548 1071.42 845.913C1065.16 840.245 1057.3 837.427 1047.92 837.427Z" fill="black"/>
<path d="M1171.69 945.394C1156.18 945.394 1143.4 941.57 1133.34 933.923C1123.26 926.275 1117.5 916.146 1116.03 903.501H1142.5C1143.83 909.17 1146.96 913.999 1151.92 918.091C1156.88 922.183 1163.4 924.196 1171.49 924.196C1179.41 924.196 1185.17 922.519 1188.8 919.198C1192.43 915.878 1194.26 912.054 1194.26 907.727C1194.26 901.422 1191.73 897.128 1186.7 894.881C1181.68 892.634 1174.69 890.588 1165.77 888.777C1158.84 887.267 1151.95 885.289 1145.09 882.773C1138.24 880.257 1132.58 876.736 1128.02 872.174C1123.49 867.613 1121.22 861.407 1121.22 853.592C1121.22 842.792 1125.32 833.77 1133.61 826.525C1141.86 819.314 1153.42 815.691 1168.26 815.691C1181.94 815.691 1193.06 819.012 1201.55 825.653C1210.04 832.294 1215.03 841.719 1216.53 853.827H1191.3C1190.47 848.494 1188.04 844.335 1184.01 841.35C1179.95 838.365 1174.55 836.856 1167.8 836.856C1161.2 836.856 1156.08 838.231 1152.45 840.981C1148.82 843.732 1147.02 847.253 1147.02 851.58C1147.02 855.907 1149.52 859.328 1154.55 861.81C1159.57 864.292 1166.23 866.539 1174.45 868.552C1182.71 870.363 1190.33 872.476 1197.36 874.891C1204.38 877.306 1210.04 880.828 1214.33 885.49C1218.63 890.152 1220.76 896.961 1220.76 905.95C1220.93 917.253 1216.6 926.644 1207.78 934.124C1198.89 941.671 1186.87 945.394 1171.69 945.394Z" fill="black"/>
<path d="M1354.34 942.411L1308.3 818.713H1335.77L1369.92 917.222L1404.08 818.713H1431.31L1385.54 942.411H1354.34Z" fill="black"/>
<path d="M1491.74 945.395C1479.69 945.395 1469 942.712 1459.68 937.312C1450.36 931.911 1443.03 924.398 1437.77 914.739C1432.48 905.112 1429.85 893.876 1429.85 881.064C1429.85 868.083 1432.45 856.713 1437.64 846.919C1442.83 837.092 1450.12 829.478 1459.45 823.977C1468.77 818.51 1479.62 815.76 1491.97 815.76C1504.02 815.76 1514.51 818.443 1523.43 823.843C1532.35 829.243 1539.27 836.454 1544.2 845.41C1549.16 854.365 1551.62 864.293 1551.62 875.093C1551.62 876.77 1551.59 878.548 1551.49 880.46C1551.39 882.372 1551.26 884.485 1551.12 886.833H1455.58C1456.42 898.807 1460.31 907.896 1467.34 914.135C1474.36 920.373 1482.45 923.493 1491.7 923.493C1499.13 923.493 1505.35 921.782 1510.41 918.395C1515.47 915.007 1519.2 910.378 1521.66 904.542H1547.9C1544.6 916.181 1538.04 925.908 1528.22 933.723C1518.43 941.504 1506.28 945.395 1491.74 945.395ZM1491.74 837.427C1482.98 837.427 1475.22 840.043 1468.47 845.276C1461.71 850.508 1457.58 858.357 1456.08 868.855H1525.39C1524.89 859.229 1521.53 851.548 1515.24 845.913C1508.98 840.245 1501.16 837.427 1491.74 837.427Z" fill="black"/>
<path d="M1615.46 945.394C1599.94 945.394 1587.16 941.57 1577.11 933.923C1567.02 926.275 1561.26 916.146 1559.8 903.501H1586.26C1587.59 909.17 1590.72 913.999 1595.68 918.091C1600.64 922.183 1607.17 924.196 1615.26 924.196C1623.18 924.196 1628.94 922.519 1632.57 919.198C1636.2 915.878 1638.03 912.054 1638.03 907.727C1638.03 901.422 1635.5 897.128 1630.47 894.881C1625.44 892.634 1618.45 890.588 1609.53 888.777C1602.61 887.267 1595.72 885.289 1588.86 882.773C1582 880.291 1576.34 876.736 1571.78 872.174C1567.25 867.613 1564.99 861.407 1564.99 853.592C1564.99 842.792 1569.08 833.77 1577.37 826.525C1585.63 819.314 1597.18 815.691 1612.03 815.691C1625.71 815.691 1636.83 819.012 1645.32 825.653C1653.81 832.294 1658.8 841.719 1660.3 853.827H1635.06C1634.23 848.494 1631.8 844.335 1627.77 841.35C1623.71 838.365 1618.32 836.856 1611.56 836.856C1604.97 836.856 1599.84 838.231 1596.22 840.981C1592.59 843.732 1590.79 847.253 1590.79 851.58C1590.79 855.907 1593.29 859.328 1598.31 861.81C1603.34 864.292 1610 866.539 1618.22 868.552C1626.48 870.363 1634.1 872.476 1641.12 874.891C1648.15 877.306 1653.81 880.828 1658.1 885.49C1662.39 890.152 1664.52 896.961 1664.52 905.95C1664.69 917.253 1660.36 926.644 1651.54 934.124C1642.65 941.671 1630.67 945.394 1615.46 945.394Z" fill="black"/>
<path d="M1817.97 945.395C1805.92 945.395 1795.23 942.712 1785.91 937.312C1776.59 931.911 1769.27 924.398 1764.01 914.739C1758.72 905.112 1756.09 893.876 1756.09 881.064C1756.09 868.083 1758.68 856.713 1763.88 846.919C1769.07 837.092 1776.36 829.478 1785.68 823.977C1795 818.51 1805.85 815.76 1818.2 815.76C1830.25 815.76 1840.74 818.443 1849.66 823.843C1858.58 829.243 1865.51 836.454 1870.43 845.41C1875.39 854.365 1877.86 864.293 1877.86 875.093C1877.86 876.77 1877.82 878.548 1877.73 880.46C1877.63 882.372 1877.49 884.485 1877.36 886.833H1781.82C1782.65 898.807 1786.55 907.896 1793.57 914.135C1800.59 920.373 1808.68 923.493 1817.94 923.493C1825.36 923.493 1831.59 921.782 1836.65 918.395C1841.71 915.007 1845.43 910.378 1847.9 904.542H1874.13C1870.83 916.181 1864.28 925.908 1854.46 933.723C1844.67 941.504 1832.48 945.395 1817.97 945.395ZM1817.97 837.427C1809.22 837.427 1801.46 840.043 1794.7 845.276C1787.94 850.508 1783.82 858.357 1782.32 868.855H1851.63C1851.13 859.229 1847.76 851.548 1841.47 845.913C1835.21 840.245 1827.39 837.427 1817.97 837.427Z" fill="black"/>
<path d="M1948.66 945.394C1936.81 945.394 1926.29 942.577 1917.24 936.942C1908.15 931.273 1901.06 923.559 1895.93 913.731C1890.81 903.938 1888.24 892.802 1888.24 880.291C1888.24 867.814 1890.81 856.712 1895.93 847.019C1901.06 837.292 1908.18 829.645 1917.34 824.077C1926.49 818.509 1937.01 815.725 1948.9 815.725C1958.62 815.725 1967.17 817.637 1974.49 821.461C1981.85 825.284 1987.58 830.685 1991.71 837.661V767.829H2017.94V942.409H1991.71V923.224C1987.74 929.06 1982.32 934.191 1975.36 938.686C1968.47 943.147 1959.55 945.394 1948.66 945.394ZM1953.39 922.452C1964.61 922.452 1973.83 918.561 1980.99 910.713C1988.14 902.898 1991.74 892.869 1991.74 880.56C1991.74 868.082 1988.14 857.987 1980.99 850.272C1973.83 842.524 1964.61 838.667 1953.39 838.667C1942.17 838.667 1932.92 842.558 1925.66 850.272C1918.4 858.02 1914.77 868.082 1914.77 880.56C1914.77 888.71 1916.44 895.921 1919.73 902.261C1923.03 908.566 1927.62 913.53 1933.48 917.086C1939.31 920.674 1945.93 922.452 1953.39 922.452Z" fill="black"/>
<path d="M1254.28 818.677L1269.83 803.014V787.283H1243.56V818.711H1222.52V840.915H1243.56V902.026C1243.56 931.71 1262.07 942.443 1282.94 942.443H1303.25V920.004H1269.83V840.881H1303.25H1304.48V818.677H1254.28V818.677Z" fill="black"/>
<path d="M1705.87 818.675L1717.59 806.835V787.247H1691.32V818.675H1670.28V840.879H1691.32V901.99C1691.32 931.674 1709.83 942.407 1730.7 942.407H1751.01V919.968H1717.59V840.879H1751.01H1752.24V818.641H1705.87V818.675Z" fill="black"/>
<path d="M478.148 714.229L759.177 997.448V714.229H478.148Z" fill="black"/>
<path d="M548.422 855.834V785.062H478.148L548.422 855.834Z" fill="black"/>
<path d="M548.422 926.636V855.831H478.148L548.422 926.636Z" fill="black"/>
<path d="M548.422 997.444V926.64H478.148L548.422 997.444Z" fill="black"/>
<path d="M618.711 926.636V855.831H548.438L618.711 926.636Z" fill="black"/>
<path d="M618.711 997.444V926.64H548.438L618.711 997.444Z" fill="black"/>
<path d="M688.936 997.444V926.64H618.695L688.936 997.444Z" fill="black"/>
<path d="M2032.95 767.829L2033.02 772.089H2041.58L2041.54 793.085V793.354H2045.9L2045.94 772.055L2054.16 772.089H2054.46L2054.42 767.829H2032.95Z" fill="black"/>
<path d="M2076.69 767.829L2069.37 786.813L2061.88 767.997L2061.81 767.829H2056.52V793.354H2061.04V776.818L2067.37 793.186L2067.47 793.354H2071.16L2077.49 776.852V793.354H2081.82V767.829H2076.69Z" fill="black"/>
</svg>
