<svg width="2560" height="1708" viewBox="0 0 2560 1708" fill="none" xmlns="http://www.w3.org/2000/svg">
<rect y="0.666016" width="2560" height="1706.67" fill="white"/>
<g clip-path="url(#clip0_717_2464)">
<path d="M1082.46 787.444C1072.1 781.639 1060.32 778.668 1048.37 778.841C1036.63 778.669 1025.06 781.573 1014.85 787.252C1004.65 792.932 996.188 801.178 990.348 811.135C984.457 821.001 981.404 832.239 981.512 843.661C981.379 854.948 984.229 866.077 989.787 875.972C995.344 885.867 1003.42 894.193 1013.23 900.143C1023.16 906.122 1034.62 909.209 1046.27 909.044C1057.23 909.265 1068.03 906.479 1077.45 901.003C1086.42 895.687 1093.81 888.184 1098.92 879.231C1099.39 878.437 1099.56 877.511 1099.97 876.684V906.463H1115.51V843.595C1115.7 831.972 1112.61 820.522 1106.57 810.507C1100.67 800.941 1092.37 793.004 1082.46 787.444V787.444ZM1092.62 868.875C1088.21 876.365 1081.9 882.621 1074.31 887.04C1066.52 891.599 1057.59 893.958 1048.51 893.856C1039.47 893.966 1030.58 891.606 1022.85 887.04C1015.31 882.588 1009.06 876.338 1004.67 868.875C1000.28 861.261 997.967 852.667 997.967 843.926C997.967 835.185 1000.28 826.591 1004.67 818.977C1009.06 811.524 1015.31 805.284 1022.85 800.845C1030.58 796.28 1039.47 793.919 1048.51 794.029C1057.59 793.927 1066.52 796.287 1074.31 800.845C1081.9 805.251 1088.21 811.496 1092.62 818.977C1097.01 826.591 1099.32 835.185 1099.32 843.926C1099.32 852.667 1097.01 861.261 1092.62 868.875V868.875Z" fill="black"/>
<path d="M1410.88 843.43C1410.93 852.073 1409.08 860.626 1405.46 868.511C1402.21 875.799 1396.98 882.072 1390.33 886.643C1383.32 891.195 1375.04 893.507 1366.63 893.261C1352.75 893.261 1342.27 888.938 1335.18 880.29C1328.09 871.643 1324.54 860.272 1324.52 846.176V781.687H1308.2V847.864C1307.96 858.74 1310.15 869.536 1314.63 879.496C1318.67 888.312 1325.32 895.745 1333.72 900.838C1343.2 906.271 1354.06 908.956 1365.04 908.581C1374.74 908.897 1384.32 906.387 1392.56 901.368C1400.03 896.539 1406.03 889.829 1409.93 881.945C1410.33 881.151 1410.5 880.224 1410.88 879.43V897.53C1411.17 906.903 1409.46 916.233 1405.87 924.927C1402.63 932.723 1397.2 939.46 1390.19 944.35C1382.45 949.384 1373.28 951.907 1363.99 951.563C1355.15 951.608 1346.41 949.66 1338.46 945.872C1330.54 942.069 1324.01 935.967 1319.78 928.401L1306.23 935.846C1311.65 945.878 1320.17 953.983 1330.58 959.008C1341.1 964.089 1352.69 966.685 1364.43 966.585C1376.6 966.993 1388.63 963.91 1399.03 957.717C1408.44 951.764 1415.83 943.206 1420.25 933.133C1425.15 921.838 1427.56 909.662 1427.33 897.397V781.588H1410.88V843.43Z" fill="black"/>
<path d="M1245.81 789.825C1236.31 784.401 1225.43 781.716 1214.43 782.083C1205.07 781.704 1195.8 784.048 1187.79 788.819C1179.79 793.59 1173.42 800.572 1169.47 808.884C1169.03 809.546 1169.03 810.605 1168.59 811.266V782.083H1152.34V909.043H1168.49V847.267C1168.41 838.635 1170.21 830.085 1173.77 822.186C1176.97 814.845 1182.22 808.529 1188.91 803.954C1196.01 799.449 1204.34 797.143 1212.81 797.336C1226.62 797.336 1237.15 801.605 1244.19 810.406C1251.69 820.212 1255.48 832.256 1254.92 844.487V909.043H1271.17V842.866C1271.37 831.967 1269.2 821.151 1264.81 811.134C1260.68 802.411 1254.09 795.019 1245.81 789.825V789.825Z" fill="black"/>
<path d="M1614.07 886.643C1613.62 888.859 1612.64 890.937 1611.19 892.698C1610.59 893.33 1609.85 893.828 1609.03 894.159C1608.22 894.49 1607.34 894.646 1606.45 894.617C1605.55 894.642 1604.65 894.485 1603.81 894.155C1602.97 893.825 1602.21 893.329 1601.58 892.698C1600.13 891.203 1599.09 889.385 1598.53 887.404L1576.19 797.867C1575.17 792.372 1572.39 787.334 1568.26 783.473C1564.23 780.425 1559.28 778.771 1554.18 778.771C1549.08 778.771 1544.13 780.425 1540.1 783.473C1535.96 787.417 1533.12 792.473 1531.94 797.999L1509.29 887.337C1508.92 889.298 1508.02 891.126 1506.68 892.632C1506.08 893.264 1505.34 893.762 1504.53 894.093C1503.71 894.424 1502.83 894.58 1501.94 894.551C1501.02 894.599 1500.09 894.453 1499.23 894.122C1498.36 893.791 1497.58 893.283 1496.93 892.632C1495.48 890.874 1494.48 888.796 1494.02 886.576L1469.55 781.62H1454.01L1479.57 889.654C1480.42 893.504 1481.98 897.171 1484.17 900.474C1486.02 903.286 1488.61 905.569 1491.65 907.091C1494.82 908.575 1498.3 909.322 1501.81 909.275C1506.96 909.557 1512.02 907.846 1515.89 904.51C1519.75 900.568 1522.35 895.612 1523.37 890.249L1546.02 800.447C1546.37 798.359 1547.38 796.428 1548.9 794.922C1550.27 793.651 1552.09 792.943 1553.98 792.943C1555.87 792.943 1557.69 793.651 1559.06 794.922C1560.6 796.447 1561.69 798.358 1562.2 800.447L1584.58 890.249C1585.63 895.638 1588.3 900.601 1592.23 904.51C1596.16 907.841 1601.26 909.55 1606.45 909.275C1609.97 909.36 1613.45 908.61 1616.61 907.091C1619.58 905.551 1622.08 903.268 1623.85 900.474C1625.96 897.141 1627.47 893.482 1628.32 889.654L1653.61 781.62H1638.34L1614.07 886.643Z" fill="black"/>
<path d="M936.756 787.577C934.883 784.769 932.292 782.488 929.24 780.959C926.074 779.471 922.597 778.724 919.084 778.775C913.938 778.498 908.885 780.196 905.001 783.507C901.152 787.474 898.544 792.433 897.486 797.801L874.736 887.768C874.385 889.857 873.379 891.788 871.858 893.294C870.487 894.565 868.67 895.273 866.78 895.273C864.891 895.273 863.073 894.565 861.702 893.294C860.165 891.761 859.078 889.853 858.554 887.768L836.176 797.967C835.115 792.579 832.467 787.611 828.559 783.672C824.612 780.378 819.525 778.684 814.341 778.941C810.825 778.865 807.343 779.614 804.184 781.125C801.223 782.667 798.734 784.951 796.974 787.742C794.968 791.055 793.528 794.665 792.708 798.43L767.352 906.43H782.552L806.757 801.474C807.201 799.258 808.189 797.18 809.635 795.419C810.238 794.785 810.973 794.285 811.791 793.954C812.609 793.623 813.49 793.468 814.374 793.5C815.277 793.486 816.173 793.649 817.01 793.978C817.847 794.308 818.609 794.798 819.249 795.419C820.681 796.916 821.716 798.734 822.262 800.713L844.64 890.25C845.652 895.74 848.412 900.778 852.528 904.644C856.56 907.692 861.513 909.345 866.611 909.345C871.708 909.345 876.662 907.692 880.694 904.644C884.828 900.7 887.668 895.644 888.853 890.118L911.501 800.779C911.897 798.821 912.807 796.996 914.142 795.485C914.744 794.851 915.479 794.352 916.297 794.02C917.115 793.689 917.996 793.534 918.881 793.566C919.808 793.522 920.733 793.67 921.597 794.001C922.46 794.332 923.242 794.837 923.892 795.485C925.338 797.246 926.325 799.324 926.769 801.54L951.245 906.496H966.784L941.36 798.43C940.482 794.578 938.924 790.906 936.756 787.577V787.577Z" fill="black"/>
<path d="M1767.94 787.444C1757.57 781.639 1745.8 778.668 1733.85 778.841C1722.11 778.669 1710.53 781.573 1700.33 787.252C1690.13 792.932 1681.66 801.178 1675.82 811.135C1669.93 821.001 1666.88 832.239 1666.99 843.661C1666.86 854.948 1669.71 866.077 1675.26 875.972C1680.82 885.867 1688.9 894.193 1698.71 900.143C1708.63 906.122 1720.1 909.209 1731.75 909.044C1742.72 909.264 1753.53 906.479 1762.96 901.003C1771.91 895.676 1779.29 888.175 1784.39 879.231C1784.87 878.437 1785.04 877.511 1785.44 876.684V906.463H1800.98V843.595C1801.18 831.972 1798.08 820.522 1792.04 810.507C1786.15 800.941 1777.85 793.004 1767.94 787.444V787.444ZM1778.1 868.875C1773.69 876.365 1767.38 882.621 1759.78 887.04C1751.95 891.622 1742.97 893.983 1733.85 893.856C1724.81 893.967 1715.93 891.606 1708.19 887.04C1700.66 882.586 1694.42 876.335 1690.04 868.875C1685.63 861.268 1683.31 852.672 1683.31 843.926C1683.31 835.18 1685.63 826.584 1690.04 818.977C1694.42 811.526 1700.66 805.286 1708.19 800.845C1715.93 796.28 1724.81 793.919 1733.85 794.029C1742.93 793.927 1751.86 796.287 1759.65 800.845C1767.21 805.265 1773.48 811.508 1777.86 818.977C1782.25 826.591 1784.56 835.185 1784.56 843.926C1784.56 852.667 1782.25 861.261 1777.86 868.875H1778.1Z" fill="black"/>
<path d="M1939.98 843.43C1940.07 852.063 1938.27 860.615 1934.7 868.511C1931.45 875.798 1926.22 882.072 1919.57 886.643C1912.56 891.194 1904.28 893.507 1895.87 893.261C1882.03 893.261 1871.55 888.937 1864.42 880.29C1857.29 871.643 1853.73 860.272 1853.76 846.176V781.687H1837.44V847.864C1837.19 858.744 1839.4 869.543 1843.9 879.496C1847.92 888.316 1854.57 895.752 1862.96 900.838C1872.44 906.267 1883.3 908.952 1894.28 908.581C1903.98 908.897 1913.56 906.386 1921.8 901.368C1929.28 896.54 1935.29 889.83 1939.2 881.945C1939.57 881.151 1939.74 880.224 1940.12 879.43V897.529C1940.41 906.902 1938.7 916.233 1935.11 924.926C1931.87 932.723 1926.44 939.46 1919.43 944.349C1911.61 949.418 1902.33 951.921 1892.96 951.496C1884.11 951.541 1875.38 949.594 1867.43 945.805C1859.59 941.97 1853.13 935.871 1848.95 928.335L1835.41 935.779C1840.82 945.811 1849.34 953.916 1859.75 958.941C1870.27 964.019 1881.87 966.614 1893.6 966.519C1905.78 966.927 1917.82 963.845 1928.23 957.651C1937.64 951.696 1945.02 943.137 1949.43 933.066C1954.34 921.774 1956.76 909.598 1956.54 897.331V781.521H1940.22L1939.98 843.43Z" fill="black"/>
<path d="M2080 853.322C2076.27 848.751 2071.43 845.167 2065.92 842.899C2060.03 840.422 2053.91 838.527 2047.64 837.241C2041.14 835.896 2035.03 834.44 2029.32 832.873C2024.27 831.623 2019.5 829.481 2015.24 826.554C2013.39 825.235 2011.92 823.482 2010.96 821.457C2009.99 819.432 2009.57 817.201 2009.72 814.973C2009.62 810.957 2011.09 807.054 2013.82 804.054C2016.66 800.95 2020.22 798.566 2024.21 797.105C2028.52 795.448 2033.12 794.617 2037.75 794.656C2043.98 794.569 2050.16 795.694 2055.93 797.965C2061.75 800.628 2066.39 805.258 2069 811.002L2082.54 803.524C2079.8 798.645 2076.14 794.321 2071.74 790.785C2067.25 787.202 2062.12 784.464 2056.61 782.712C2050.45 780.747 2044 779.786 2037.52 779.866C2029.9 779.768 2022.35 781.304 2015.41 784.366C2009.09 787.104 2003.6 791.403 1999.5 796.84C1995.52 802.226 1993.44 808.729 1993.57 815.37C1993.17 821.984 1995.12 828.531 1999.09 833.899C2002.85 838.404 2007.69 841.937 2013.17 844.19C2019.08 846.632 2025.22 848.527 2031.49 849.848C2037.96 851.238 2044.05 852.627 2049.77 854.083C2054.82 855.264 2059.6 857.363 2063.85 860.271C2065.71 861.662 2067.18 863.481 2068.15 865.566C2069.11 867.65 2069.53 869.934 2069.37 872.216C2069.54 876.579 2068.04 880.848 2065.17 884.194C2062.12 887.527 2058.22 890.015 2053.87 891.407C2048.77 893.086 2043.43 893.914 2038.06 893.855C2031.02 893.996 2024.06 892.487 2017.74 889.455C2011.34 886.053 2006.22 880.744 2003.12 874.3L1989.58 881.48C1993.92 890.166 2000.91 897.322 2009.59 901.962C2017.64 906.012 2026.49 908.315 2035.53 908.715C2044.57 909.114 2053.6 907.601 2061.99 904.278C2068.75 901.561 2074.66 897.171 2079.16 891.539C2083.49 885.916 2085.76 879.025 2085.59 871.984C2085.96 865.322 2083.99 858.736 2080 853.322V853.322Z" fill="black"/>
<path d="M685.466 814.411C682.544 811.554 679.422 808.901 676.122 806.469C669.126 801.26 661.272 797.254 652.898 794.624L666.846 737.05L658.552 728.943L541.689 756.307C527.475 759.659 514.342 766.426 503.482 775.994C492.622 785.563 484.379 797.63 479.499 811.102C474.791 823.22 473.309 836.308 475.192 849.139C477.075 861.97 482.261 874.123 490.265 884.459C492.763 887.716 495.489 890.801 498.423 893.69H498.626C501.548 896.557 504.67 899.222 507.97 901.665C514.976 906.852 522.827 910.845 531.194 913.477L517.246 971.117L525.269 979.058L642.133 951.694C656.374 948.368 669.537 941.612 680.423 932.042C691.309 922.471 699.571 910.39 704.458 896.9C709.141 884.8 710.611 871.737 708.728 858.932C706.845 846.127 701.672 833.997 693.692 823.675C691.172 820.405 688.423 817.309 685.466 814.411V814.411ZM516.129 891.076C513.4 889.025 510.8 886.815 508.343 884.459V884.459C505.818 881.988 503.476 879.345 501.335 876.551C494.653 867.973 490.312 857.877 488.719 847.21C487.126 836.543 488.333 825.655 492.228 815.569C496.375 804.187 503.355 793.992 512.54 785.905C521.724 777.818 532.823 772.093 544.837 769.245L651.002 744.329L639.56 791.58C626.559 789.934 613.344 791.375 601.034 795.782C587.216 800.568 574.844 808.658 565.046 819.316C555.248 829.973 548.335 842.859 544.938 856.797L534.342 900.573C527.788 898.386 521.637 895.18 516.129 891.076V891.076ZM636.378 804.583L625.815 848.061C622.947 859.842 617.107 870.734 608.829 879.744C600.55 888.754 590.096 895.596 578.42 899.646C568.576 903.166 558.037 904.434 547.613 903.352L558.108 859.841C561.021 848.076 566.89 837.207 575.183 828.217C583.476 819.227 593.932 812.401 605.604 808.355C613.2 805.655 621.219 804.266 629.302 804.252C631.665 804.234 634.027 804.344 636.378 804.583V804.583ZM691.695 892.433C687.572 903.823 680.604 914.027 671.422 922.117C662.241 930.206 651.137 935.926 639.12 938.757L532.954 963.672L544.397 916.389C547.817 916.864 551.267 917.107 554.722 917.117C564.306 917.068 573.81 915.411 582.821 912.22C596.637 907.463 609.017 899.404 618.832 888.776C628.647 878.148 635.587 865.289 639.018 851.37L649.614 807.594C656.158 809.752 662.298 812.937 667.794 817.025C670.604 819.115 673.272 821.381 675.783 823.808V823.808C678.335 826.212 680.711 828.788 682.893 831.517C689.521 840.11 693.806 850.208 695.346 860.864C696.885 871.519 695.629 882.382 691.695 892.433V892.433Z" fill="black"/>
</g>
<defs>
<clipPath id="clip0_717_2464">
<rect width="1611.03" height="250.115" fill="white" transform="translate(474.484 728.943)"/>
</clipPath>
</defs>
</svg>
