<svg width="2560" height="1708" viewBox="0 0 2560 1708" fill="none" xmlns="http://www.w3.org/2000/svg">
<rect y="0.666016" width="2560" height="1706.67" fill="white"/>
<g clip-path="url(#clip0_717_2477)">
<path d="M1641.13 827.481L1805.98 662.047L1693.05 548.711L1611.08 630.971L1529.11 548.711L1363.35 714.145L1281.39 631.885L1199.42 714.145L1035.48 548.711L953.515 630.971L871.547 548.711L757.703 662.047L922.549 827.481L912.531 836.621C858.797 890.547 858.797 978.291 912.531 1032.22C927.103 1046.84 944.407 1057.81 962.622 1064.21C969.908 1082.49 979.927 1099.85 995.409 1115.39C1021.82 1141.9 1057.34 1155.61 1092.86 1155.61C1128.38 1155.61 1162.99 1141.9 1190.31 1115.39L1282.3 1023.08L1374.28 1115.39C1400.69 1141.9 1436.21 1155.61 1471.73 1155.61C1507.25 1155.61 1541.86 1141.9 1569.18 1115.39C1583.76 1100.77 1594.68 1083.4 1601.97 1064.21C1620.19 1057.81 1637.49 1046.84 1652.06 1032.22C1678.47 1005.71 1692.13 971.893 1692.13 934.419C1692.13 897.859 1677.56 863.127 1652.06 836.621L1641.13 827.481ZM1744.96 662.047L1611.08 796.405L1559.17 744.307L1693.05 609.949L1744.96 662.047ZM1281.39 693.123L1332.39 744.307L1281.39 795.491L1230.38 744.307L1281.39 693.123ZM1035.48 609.949L1251.33 826.567L1199.42 878.665L983.57 662.047L1035.48 609.949ZM997.231 1028.56C992.677 1002.97 998.142 977.377 1011.8 963.667L1034.57 940.817L1085.57 992.001L1076.47 1002.06C1055.52 1023.08 1025.46 1032.22 997.231 1028.56ZM1116.54 960.925L1065.54 909.741L1117.45 857.643L1168.45 908.827L1116.54 960.925ZM818.724 662.047L870.636 609.949L1004.52 744.307L952.604 796.405L818.724 662.047ZM942.586 867.697L1034.57 775.383L1086.48 827.481L981.748 933.505C963.533 951.785 953.515 980.119 953.515 1011.2C949.872 1008.45 946.229 1005.71 943.497 1002.06C906.156 964.581 906.156 904.257 942.586 867.697ZM1159.34 1084.32C1122 1121.79 1062.81 1121.79 1025.46 1084.32C1021.82 1080.66 1018.18 1076.09 1015.45 1072.43C1049.14 1071.52 1081.93 1057.81 1107.43 1032.22L1282.3 856.729L1528.2 609.949L1580.11 662.047L1366.09 876.837L1159.34 1084.32ZM1567.36 1017.59C1567.36 1021.25 1566.45 1024.91 1566.45 1028.56C1538.22 1032.22 1508.16 1023.08 1487.22 1002.06L1477.2 992.001L1528.2 940.817L1550.97 963.667C1562.81 974.635 1569.18 995.657 1567.36 1017.59ZM1446.23 960.925L1394.32 908.827L1445.32 857.643L1497.23 909.741L1446.23 960.925ZM1404.34 1084.32L1312.35 992.001L1364.26 939.903L1456.25 1032.22C1480.84 1056.9 1513.63 1070.61 1548.24 1072.43C1545.5 1077 1541.86 1080.66 1538.22 1084.32C1500.88 1121.79 1440.77 1121.79 1404.34 1084.32ZM1620.19 1002.06C1617.45 1004.8 1613.81 1007.54 1610.17 1010.28C1610.17 979.205 1600.15 951.785 1581.93 933.505L1476.29 827.481L1528.2 775.383L1620.19 867.697C1638.4 885.977 1647.51 909.741 1647.51 934.419C1648.42 960.011 1638.4 983.775 1620.19 1002.06Z" fill="black"/>
</g>
<defs>
<clipPath id="clip0_717_2477">
<rect width="1048.28" height="606.897" fill="white" transform="translate(757.703 548.711)"/>
</clipPath>
</defs>
</svg>
