<svg width="2560" height="1707" viewBox="0 0 2560 1707" fill="none" xmlns="http://www.w3.org/2000/svg">
<rect width="2560" height="1706.67" fill="white"/>
<g clip-path="url(#clip0_717_2168)">
<mask id="mask0_717_2168" style="mask-type:luminance" maskUnits="userSpaceOnUse" x="540" y="706" width="1476" height="295">
<path d="M2015.64 706.207H540.695V1000.46H2015.64V706.207Z" fill="white"/>
</mask>
<g mask="url(#mask0_717_2168)">
<path d="M540.695 914.218C540.695 947.773 567.097 974.952 599.841 974.952C632.437 974.952 658.986 947.773 658.986 914.066H540.695V914.218Z" fill="black"/>
<path d="M777.135 792.448H658.992C658.992 758.892 685.394 731.562 718.137 731.562C750.734 731.562 777.135 758.892 777.135 792.448Z" fill="black"/>
<path d="M658.992 914.217H777.283C777.283 947.924 750.734 975.102 718.137 975.102C685.394 974.95 658.992 947.772 658.992 914.217Z" fill="black"/>
<path d="M777.13 792.45V914.221C777.13 880.666 750.581 853.336 717.984 853.336C750.728 853.336 777.13 826.005 777.13 792.45Z" fill="black"/>
<path d="M599.841 731.562C567.097 731.562 540.695 758.892 540.695 792.448H658.986C658.986 758.892 632.437 731.562 599.841 731.562Z" fill="black"/>
<path d="M599.841 853.336C567.097 853.336 540.695 826.005 540.695 792.45V914.221C540.695 880.514 567.097 853.336 599.841 853.336Z" fill="black"/>
<path d="M718.134 853.336C685.391 853.336 658.989 880.666 658.989 914.221C658.989 880.666 632.44 853.336 599.844 853.336C616.216 853.336 630.965 846.503 641.585 835.571C652.352 824.487 658.989 809.304 658.989 792.45C658.989 826.005 685.391 853.336 718.134 853.336Z" fill="black"/>
<path d="M920.494 841.945L897.927 834.05C884.063 829.191 865.921 825.547 865.921 807.782C865.921 793.055 877.72 783.641 898.222 783.641C920.789 783.641 937.16 795.332 940.11 819.17H965.479C961.202 781.06 935.98 760.866 899.254 760.866C862.676 760.866 840.847 779.542 840.847 808.542C840.847 839.668 865.331 847.259 889.962 855.762L913.856 864.113C931.261 870.338 943.355 873.83 943.355 889.924C943.355 906.93 932.146 916.495 908.694 916.495C883.62 916.495 863.708 904.348 861.938 881.877H836.422C838.634 918.014 867.986 939.574 907.367 939.574C947.928 939.574 969.167 921.354 969.167 891.442C969.167 863.05 951.025 852.118 920.494 841.945Z" fill="black"/>
<path d="M1053.39 909.058L999.409 764.816H971.68L1037.46 935.932H1043.8L1034.66 961.593L1028.91 977.99H980.234V1000.61H1006.78C1035.25 1000.61 1050.74 990.744 1057.67 972.069L1132.15 764.816H1105.46L1053.39 909.058Z" fill="black"/>
<path d="M1221.52 841.945L1198.96 834.05C1185.09 829.191 1166.95 825.547 1166.95 807.782C1166.95 793.055 1178.75 783.641 1199.25 783.641C1221.82 783.641 1238.19 795.332 1241.14 819.17H1266.36C1262.38 781.06 1236.86 760.866 1200.28 760.866C1163.71 760.866 1141.88 779.542 1141.88 808.542C1141.88 839.668 1166.36 847.259 1190.99 855.762L1214.74 864.113C1232 870.338 1244.24 873.83 1244.24 889.924C1244.24 906.93 1233.03 916.495 1209.58 916.495C1184.21 916.495 1164.59 904.348 1162.82 881.877H1137.3C1139.52 918.014 1168.72 939.574 1208.25 939.574C1248.81 939.574 1270.05 921.354 1270.05 891.442C1270.05 863.05 1251.91 852.118 1221.52 841.945Z" fill="black"/>
<path d="M1307.08 753.275V764.815H1276.4V787.438H1307.08V935.931H1333.04V787.286H1387.02V764.815H1333.04V728.83H1391.44V706.207H1354.27C1323.6 706.207 1307.08 722.605 1307.08 753.275Z" fill="black"/>
<path d="M1535.99 822.207C1535.99 786.071 1509.74 760.866 1468.59 760.866C1428.91 760.866 1399.56 784.4 1396.46 818.108H1422.27C1424.93 797.762 1443.81 783.793 1468 783.793C1493.07 783.793 1510.32 798.976 1510.77 820.688C1510.32 834.505 1488.35 834.353 1463.13 836.783C1429.8 840.275 1392.77 847.867 1392.77 887.344C1392.77 918.469 1416.97 938.511 1454.58 938.511C1483.48 938.511 1502.21 926.365 1511.95 906.626V911.637C1511.95 927.579 1521.39 935.778 1539.24 935.778H1553.99V913.914H1536.14V822.207H1535.99ZM1510.63 866.694C1510.63 895.238 1489.09 915.584 1458.27 915.584C1434.37 915.584 1418.58 904.348 1418.58 886.584C1418.58 864.72 1441.6 861.38 1464.46 858.647C1484.81 856.521 1503.39 854.547 1510.63 844.527V866.694Z" fill="black"/>
<path d="M1643.22 784.097C1671.24 784.097 1690.27 802.013 1694.69 830.406H1720.06C1715.34 786.678 1685.55 760.866 1643.96 760.866C1598.68 760.866 1561.95 791.688 1561.95 849.385C1561.95 898.73 1590.86 939.574 1644.84 939.574C1687.9 939.574 1715.34 913.307 1720.06 868.971H1694.69C1689.97 898.73 1671.69 916.192 1644.99 916.192C1614.01 916.192 1588.35 892.961 1588.35 849.385C1588.35 808.998 1610.32 784.097 1643.22 784.097Z" fill="black"/>
<path d="M1781.86 706.207H1755.61V764.815H1724.93V787.438H1755.61V887.192C1755.61 918.774 1772.87 935.779 1805.31 935.779H1823.75V913.156H1781.86V787.438H1826.7V764.815H1781.86V706.207Z" fill="black"/>
<path d="M1920.07 841.945L1897.5 834.05C1883.78 829.191 1865.49 825.547 1865.49 807.782C1865.49 793.055 1877.59 783.641 1897.94 783.641C1920.36 783.641 1936.73 795.332 1939.54 819.17H1964.9C1960.77 781.06 1935.55 760.866 1898.82 760.866C1862.24 760.866 1840.42 779.542 1840.42 808.542C1840.42 839.668 1864.9 847.259 1889.53 855.762L1913.72 864.113C1930.98 870.338 1943.07 873.83 1943.07 889.924C1943.07 906.93 1931.87 916.495 1908.41 916.495C1883.34 916.495 1863.58 904.348 1861.66 881.877H1836.29C1838.35 918.014 1867.71 939.574 1907.09 939.574C1947.65 939.574 1968.88 921.354 1968.88 891.442C1968.59 863.05 1950.45 852.118 1920.07 841.945Z" fill="black"/>
<path d="M2002.52 748.114C2004.73 747.355 2006.2 745.532 2006.2 743.103C2006.2 739.915 2003.55 737.485 1999.71 737.485H1990.27V756.161H1994.25V750.239H1998.97C1999.86 750.239 2000.45 750.695 2000.74 751.454L2002.07 756.161H2006.64L2004.87 750.391C2004.58 749.025 2003.69 748.417 2002.52 748.114ZM1999.86 746.292H1994.25V741.433H1999.86C2001.18 741.433 2001.92 742.648 2001.92 743.862C2002.07 745.077 2001.34 746.292 1999.86 746.292Z" fill="black"/>
<path d="M1997.63 765.273C1987.75 765.273 1979.64 756.922 1979.64 746.749C1979.64 736.576 1987.75 728.226 1997.63 728.226C2007.51 728.226 2015.63 736.576 2015.63 746.749C2015.63 756.922 2007.51 765.273 1997.63 765.273ZM1997.63 731.566C1989.52 731.566 1982.88 738.398 1982.88 746.749C1982.88 755.1 1989.52 761.933 1997.63 761.933C2005.75 761.933 2012.38 755.1 2012.38 746.749C2012.38 738.398 2005.9 731.566 1997.63 731.566Z" fill="black"/>
</g>
</g>
<defs>
<clipPath id="clip0_717_2168">
<rect width="1474.94" height="294.253" fill="white" transform="translate(540.695 706.207)"/>
</clipPath>
</defs>
</svg>
