<svg width="2560" height="1707" viewBox="0 0 2560 1707" fill="none" xmlns="http://www.w3.org/2000/svg">
<rect width="2560" height="1706.67" fill="white"/>
<g clip-path="url(#clip0_717_2405)">
<path d="M537.008 739.311H624.54C669.279 739.311 698.157 765.521 698.157 805.73C698.157 845.939 669.279 872.15 624.54 872.15H566.933V968.354H537.008V739.311ZM623.493 845.344C650.725 845.344 667.184 830.6 667.184 805.73C667.184 780.86 650.725 765.819 623.493 765.819H566.933V845.344H623.493Z" fill="#010101"/>
<path d="M856.312 968.503H828.78V937.825C817.408 957.185 797.508 971.183 772.52 971.183C738.405 971.183 714.016 948.249 714.016 913.55V805.283H741.697V908.189C741.697 930.23 755.612 946.015 778.804 946.015C809.328 946.015 828.93 919.805 828.93 876.766V805.283H856.611V968.503H856.312Z" fill="#010101"/>
<path d="M962.994 828.367C936.958 828.367 915.861 853.237 915.861 906.402V968.503H888.18V805.284H915.861V838.345C925.287 817.644 946.684 802.752 966.884 802.752C973.767 802.752 980.201 803.794 985.737 805.73L984.091 832.239C977.956 829.558 970.176 828.367 962.994 828.367Z" fill="#010101"/>
<path d="M1448.54 828.367C1422.51 828.367 1401.41 853.237 1401.41 906.402V968.503H1373.73V805.284H1401.41V838.345C1410.83 817.644 1432.23 802.752 1452.43 802.752C1459.31 802.752 1465.75 803.794 1471.28 805.73L1469.64 832.239C1463.5 829.558 1455.72 828.367 1448.54 828.367Z" fill="#010101"/>
<path d="M1143.15 892.106H1013.72C1015.67 925.167 1036.46 946.76 1066.09 946.76C1091.08 946.76 1108.43 935.144 1113.22 914.742L1139.26 920.848C1131.18 952.568 1103.8 971.035 1066.09 971.035C1017.01 971.035 986.039 933.208 986.039 886.893C986.039 840.578 1015.96 802.752 1065.34 802.752C1113.82 802.752 1143.75 837.451 1143.75 879.447C1143.75 883.319 1143.45 889.127 1143.15 892.106ZM1114.57 869.172C1111.88 844.153 1094.37 825.686 1065.34 825.686C1039.61 825.686 1020.75 841.919 1015.22 869.023H1114.57V869.172Z" fill="#010101"/>
<path d="M1145.7 805.283H1173.97L1219.46 936.335L1265.25 805.283H1293.83L1233.68 968.354H1205.4L1145.7 805.283Z" fill="#010101"/>
<path d="M1314.33 805.283H1342.01V968.354H1314.33V805.283Z" fill="#010101"/>
<path d="M1543.25 971.035C1515.27 971.035 1494.77 955.547 1494.77 919.508V829.559H1522.45V805.284H1494.77V755.842H1522.45V805.433H1566.45V829.708H1522.6V920.7C1522.6 937.826 1532.33 946.314 1546.69 946.314C1553.13 946.314 1560.61 945.272 1567.19 942.144L1569.14 967.461C1560.91 970.142 1552.08 971.035 1543.25 971.035Z" fill="#010101"/>
<path d="M1732.23 968.503H1704.55V937.825C1693.18 957.185 1673.28 971.183 1648.29 971.183C1614.18 971.183 1589.79 948.249 1589.79 913.55V805.283H1617.47V908.189C1617.47 930.23 1631.39 946.015 1654.58 946.015C1685.1 946.015 1704.7 919.805 1704.7 876.766V805.283H1732.38V968.503H1732.23Z" fill="#010101"/>
<path d="M1895.78 863.958V968.502H1868.4V940.654C1858.97 959.418 1837.57 971.034 1813.78 971.034C1780.87 971.034 1758.42 950.929 1758.42 922.783C1758.42 891.36 1784.16 874.234 1836.53 869.022L1868.4 865.448V862.171C1868.4 839.833 1852.39 825.536 1828.45 825.536C1806 825.536 1790.14 838.79 1787.75 860.831L1762.01 855.916C1766.95 823.6 1793.88 802.453 1828.3 802.453C1868.25 802.751 1895.78 826.132 1895.78 863.958ZM1868.55 894.636V886.892L1836.68 890.467C1803.46 894.041 1786.25 905.359 1786.25 922.485C1786.25 937.675 1799.27 948.398 1818.12 948.398C1849.99 948.398 1868.55 927.399 1868.55 894.636Z" fill="#010101"/>
<path d="M1927.65 739.311H1955.33V968.503H1927.65V739.311Z" fill="#010101"/>
<path d="M1308.79 758.671C1308.79 747.65 1316.87 739.311 1327.94 739.311C1339.31 739.311 1347.84 747.799 1347.84 758.671C1347.84 769.393 1339.31 777.733 1327.94 777.733C1316.87 777.882 1308.79 769.393 1308.79 758.671Z" fill="#010101"/>
<path d="M2003.63 773.741L1997.44 763.407H1992.85V773.741H1988.76V749.297H1997.94C2002.63 749.297 2005.73 752.079 2005.73 756.352C2005.73 759.233 2004.23 761.618 2001.64 762.711L2008.43 773.741H2003.63ZM1992.85 759.73H1997.34C2000.04 759.73 2001.64 758.438 2001.64 756.252C2001.64 754.066 2000.14 752.775 1997.34 752.775H1992.85V759.73Z" fill="#010101"/>
<path d="M1997.14 743.434C2007.62 743.434 2016.11 751.88 2016.11 762.313C2016.11 772.746 2007.62 781.192 1997.14 781.192C1986.66 781.192 1978.17 772.746 1978.17 762.313C1978.17 751.88 1986.66 743.434 1997.14 743.434ZM1997.14 739.459C1984.46 739.459 1974.18 749.694 1974.18 762.313C1974.18 774.932 1984.46 785.167 1997.14 785.167C2009.82 785.167 2020.1 774.932 2020.1 762.313C2020.2 749.694 2009.82 739.459 1997.14 739.459Z" fill="#010101"/>
</g>
<defs>
<clipPath id="clip0_717_2405">
<rect width="1482.3" height="231.724" fill="white" transform="translate(537.008 739.311)"/>
</clipPath>
</defs>
</svg>
