<svg width="2560" height="1707" viewBox="0 0 2560 1707" fill="none" xmlns="http://www.w3.org/2000/svg">
<rect y="0.333984" width="2560" height="1706.67" fill="white"/>
<g clip-path="url(#clip0_717_2123)">
<path d="M512.208 758.193H488.802L415.633 946.771H438.225L455.779 899.943H544.468L544.62 900.312L562.938 946.771H585.377L512.208 758.193ZM462.292 881.243L462.547 880.558L500.352 779.158L538.412 881.243H462.292Z" fill="black"/>
<path d="M629.701 921.277L589.503 809.763H566.25L619.066 946.771H640.284L693.456 809.763H670.101L629.701 921.277Z" fill="black"/>
<path d="M817.508 877.029C817.508 856.38 812.063 839.471 801.276 826.777C790.54 814.082 775.886 807.708 757.772 807.708C738.792 807.708 723.579 814.345 712.537 827.514C701.496 840.683 695.898 857.697 695.898 878.03C695.898 897.888 701.699 914.639 713.046 927.861C724.342 941.029 739.505 947.825 758.026 947.983C766.829 947.983 774.868 946.666 781.992 944.032C789.064 941.398 794.763 937.764 798.936 933.286C803.057 928.756 806.365 924.173 808.756 919.591C810.995 915.166 812.47 910.741 813.132 906.316H794.763C792.423 913.638 787.945 919.591 781.534 923.963C775.275 928.229 767.338 930.389 757.975 930.389H756.958C746.577 930.231 737.317 926.122 729.277 918.221C721.289 910.32 716.964 899.258 716.506 885.352L716.455 884.772H817.05C817.355 881.032 817.508 878.451 817.508 877.029ZM716.913 868.443L716.964 867.863C718.389 855.116 722.663 844.844 729.684 837.312C736.706 829.726 746.17 825.881 757.772 825.881C769.22 825.881 778.532 829.726 785.35 837.312C792.168 844.844 796.239 855.116 797.511 867.863L797.562 868.443H716.913Z" fill="black"/>
<path d="M904.003 807.181C895.15 807.181 886.5 809.235 878.409 813.238C870.268 817.242 863.806 822.667 859.227 829.304L858.311 830.621V809.762H837.602V946.77H859.023V860.857C859.023 851.112 862.941 842.895 870.726 836.521C878.409 830.094 887.67 826.881 898.152 826.881C907.87 826.881 915.757 829.884 921.609 835.836C927.409 841.841 930.361 849.848 930.361 859.751V946.77H951.884V857.538C951.884 842.262 947.508 829.936 938.807 820.876C930.157 811.816 918.403 807.181 904.003 807.181Z" fill="black"/>
<path d="M1025.41 928.072H1039.55V946.982H1025.41C1012.69 946.982 1002.76 944.296 995.894 939.028C989.076 933.76 985.616 923.857 985.616 909.635V827.145H964.602V809.763H985.616V758.193H1006.27V809.763H1032.78V827.198L1006.33 827.145L1005.82 827.093V907.054C1005.82 914.06 1007.14 919.327 1009.73 922.804C1012.38 926.281 1017.62 928.072 1025.41 928.072Z" fill="black"/>
<path d="M1082.04 809.763H1060.52V946.771H1082.04V809.763Z" fill="black"/>
<path d="M1157.61 866.071C1147.07 864.122 1138.93 861.541 1133.44 858.486C1127.84 855.378 1124.99 850.269 1124.99 843.315C1124.99 836.731 1127.79 831.727 1133.34 828.514C1138.73 825.3 1145.34 823.826 1152.87 824.142C1158.78 824.51 1164.63 826.354 1170.28 829.673C1175.82 832.938 1179.33 838.153 1180.66 845.159H1198.87C1197.55 832.78 1192.61 823.246 1184.17 816.714C1175.62 810.077 1164.27 806.706 1150.43 806.706C1137.25 806.706 1125.91 810.341 1116.65 817.505C1107.44 824.668 1102.75 834.308 1102.75 846.16C1102.75 857.222 1106.67 865.492 1114.31 870.707C1122.04 876.08 1132.52 880.136 1145.39 882.822C1156.33 884.771 1164.83 887.668 1170.68 891.355C1176.69 895.095 1179.69 900.679 1179.69 907.895C1179.69 914.849 1176.99 920.696 1171.7 925.173C1166.41 929.598 1159.49 931.968 1151.09 932.126C1142.7 932.284 1135.12 929.703 1128.55 924.436C1122.09 919.273 1118.27 913.321 1117.21 906.842H1098.43C1099.4 917.377 1104.38 927.069 1113.19 935.708C1122.14 944.505 1135.01 948.982 1151.4 948.982C1165.85 948.982 1177.96 944.926 1187.47 936.867C1196.89 928.86 1201.67 918.589 1201.67 906.315C1201.67 885.456 1186.86 871.918 1157.61 866.071Z" fill="black"/>
<path d="M1071.1 758.035C1063.77 758.035 1057.82 764.198 1057.82 771.783C1057.82 779.369 1063.77 785.532 1071.1 785.532C1078.43 785.532 1084.38 779.369 1084.38 771.783C1084.38 764.198 1078.43 758.035 1071.1 758.035Z" fill="black"/>
<path d="M1398.43 934.287C1396.29 933.023 1394.92 930.758 1394.26 927.545L1359.35 758.193H1333.45L1339.3 783.688L1252.85 927.545C1250.92 930.758 1248.68 932.97 1246.14 934.129C1243.64 935.341 1240.23 936.236 1236.01 936.921L1234.08 946.771H1289.03L1290.71 936.921C1283.23 936.605 1277.84 935.815 1274.48 934.656C1271.12 933.497 1269.49 931.285 1269.49 928.072C1269.49 925.016 1271.12 920.908 1274.38 915.693L1287.45 893.622H1362.66L1367.19 915.956C1367.49 919.327 1367.64 921.592 1367.64 922.751C1367.64 926.807 1366.37 929.862 1363.73 931.969C1361.13 934.077 1358.33 935.393 1355.33 935.92C1352.33 936.394 1347.95 936.763 1342.25 936.921L1340.52 946.771H1405.76L1407.49 936.921C1403.57 936.394 1400.57 935.551 1398.43 934.287ZM1294.78 881.243L1343.98 798.859L1360.22 881.243H1294.78Z" fill="black"/>
<path d="M1518.1 932.391C1515.81 932.391 1514.69 931.127 1514.69 928.598C1514.69 927.545 1515.36 923.857 1516.63 917.431L1553.26 758.193H1547.67L1509.1 768.834L1507.83 773.891L1525.94 781.739L1517.39 818.823C1511.34 813.134 1503.81 810.237 1494.65 810.237C1482.13 810.237 1469.87 814.819 1457.91 823.88C1445.95 832.992 1436.13 845.424 1428.5 861.174C1420.82 876.976 1417 893.674 1417 911.373C1417 923.383 1419.44 932.654 1424.33 939.344C1429.21 945.981 1436.03 949.3 1444.83 949.3C1454.6 949.3 1464.47 943.663 1474.5 932.391C1484.52 921.066 1493.43 906.738 1501.26 889.408H1502.94C1497.09 909.424 1494.19 924.121 1494.19 933.392C1494.19 938.08 1495.36 941.925 1497.7 944.875C1500.09 947.825 1503.45 949.3 1507.83 949.3C1514.19 949.3 1520.29 946.982 1526.19 942.347C1532.05 937.711 1538.56 929.862 1545.73 918.695L1540.59 913.428C1530.98 926.07 1523.5 932.391 1518.1 932.391ZM1486.86 903.419C1474.65 923.067 1463.66 932.865 1453.89 932.865C1449.16 932.865 1445.6 930.705 1443.15 926.439C1440.71 922.119 1439.49 916.43 1439.49 909.372C1439.64 895.36 1442.09 881.612 1446.77 868.127C1451.5 854.642 1458.21 843.369 1466.97 834.257C1475.67 825.144 1485.23 820.614 1495.66 820.614C1504.11 820.614 1510.27 824.248 1514.19 831.465C1508.18 859.804 1499.07 883.771 1486.86 903.419Z" fill="black"/>
<path d="M1651.37 807.181C1643.02 807.181 1635.9 811.079 1629.89 818.822V822.72C1645.06 822.72 1652.59 828.83 1652.59 841.051C1652.59 854.852 1646.08 869.39 1633.1 884.719L1600.89 923.225L1591.63 807.233H1588.37L1554.94 816.294L1553.47 821.719L1571.68 828.198L1582.93 949.404H1592.65L1641.55 891.251C1652.38 878.345 1660.17 867.178 1665 857.802C1669.84 848.426 1672.23 839.313 1672.23 830.516C1672.23 823.984 1670.5 818.453 1667.09 813.976C1663.78 809.446 1658.54 807.181 1651.37 807.181Z" fill="black"/>
<path d="M1704.43 932.339C1702.14 932.339 1701.02 931.075 1701.02 928.546C1701.02 926.861 1701.74 923.173 1703.21 917.432L1728.6 810.237H1722.5L1684.13 818.823L1682.66 824.144L1701.23 831.992L1682.4 910.373C1680.11 920.329 1678.99 927.545 1678.99 932.128C1678.99 937.343 1680.37 941.504 1683.16 944.665C1685.91 947.773 1689.58 949.353 1694.16 949.353C1700.52 949.353 1706.57 947.088 1712.37 942.505C1718.17 937.975 1724.68 930.021 1732.01 918.749L1727.13 913.428C1717.26 926.018 1709.67 932.339 1704.43 932.339Z" fill="black"/>
<path d="M1823.76 813.502C1818.11 809.288 1810.53 807.181 1801.07 807.181C1788.91 807.181 1778.73 810.973 1770.49 818.559C1762.24 826.144 1758.12 835.362 1758.12 846.213C1758.12 852.745 1760.51 859.698 1765.25 867.02C1769.98 874.342 1775.17 880.61 1780.71 885.772C1786.31 890.935 1791.45 896.518 1796.18 902.576C1800.91 908.581 1803.31 913.848 1803.31 918.326C1803.31 931.073 1796.79 937.447 1783.82 937.447C1769.82 937.447 1758.94 926.701 1751.1 905.157H1749.12C1741.79 908.581 1738.12 914.217 1738.12 921.96C1738.12 929.704 1741.64 936.235 1748.61 941.45C1755.58 946.718 1764.74 949.352 1776.08 949.352C1788.04 949.352 1798.47 945.506 1807.27 937.868C1816.08 930.178 1820.5 920.169 1820.5 907.791C1820.5 902.628 1818.93 897.256 1815.77 891.619C1812.62 886.036 1808.75 880.768 1804.17 875.869C1799.59 870.971 1795.01 866.282 1790.43 861.805C1785.85 857.328 1781.99 852.903 1778.83 848.478C1775.68 844.106 1774.1 840.261 1774.1 836.995C1774.1 825.775 1779.85 820.191 1791.3 820.191C1802.29 820.191 1811.5 828.04 1819.03 843.685H1821.52C1828.7 840.05 1832.26 835.573 1832.26 830.252C1832.26 823.299 1829.41 817.716 1823.76 813.502Z" fill="black"/>
<path d="M1936.31 820.876C1928.58 811.763 1918.15 807.181 1904.97 807.181C1891.99 807.181 1880.14 811.763 1869.3 820.876C1858.46 830.042 1850.27 841.42 1844.57 855.115C1838.92 868.811 1836.12 882.928 1836.12 897.361C1836.12 913.743 1839.99 926.49 1847.73 935.603C1855.46 944.769 1865.89 949.299 1879.02 949.299C1891.99 949.299 1903.9 944.769 1914.74 935.603C1925.53 926.49 1933.77 915.06 1939.42 901.364C1945.12 887.669 1947.91 873.604 1947.91 859.119C1947.91 842.789 1944.05 830.042 1936.31 820.876ZM1919.11 891.303C1915.5 904.314 1910.21 915.534 1903.24 924.91C1896.27 934.286 1888.43 938.974 1879.78 938.974C1873.47 938.974 1868.49 935.867 1864.92 929.651C1861.36 923.488 1859.58 914.796 1859.58 903.577C1859.58 890.987 1861.36 878.24 1864.92 865.229C1868.49 852.218 1873.78 840.998 1880.8 831.622C1887.77 822.246 1895.61 817.558 1904.26 817.558C1910.57 817.558 1915.5 820.613 1919.11 826.829C1922.68 833.044 1924.46 841.736 1924.46 852.956C1924.46 865.492 1922.68 878.292 1919.11 891.303Z" fill="black"/>
<path d="M2066.36 822.931C2066.36 818.611 2065.24 814.924 2063 811.816C2060.77 808.708 2057.2 807.181 2052.37 807.181C2044.23 807.181 2035.17 814.45 2025.3 829.041C2015.38 843.579 2003.52 865.545 1989.73 894.833H1988L2001.23 850.111L2011.71 807.181H2005.46L1967.75 815.977L1966.28 821.403L1985.26 829.41L1957.02 946.77H1979.76C1984.59 926.806 1991.06 907.843 1999.25 889.881C2007.39 871.971 2015.23 858.276 2022.71 848.794C2030.18 839.313 2036.09 834.572 2040.41 834.572C2045.09 834.572 2047.38 837.785 2047.38 844.159H2051.15C2061.27 839.155 2066.36 832.096 2066.36 822.931Z" fill="black"/>
<path d="M2135.92 813.502C2130.28 809.288 2122.69 807.181 2113.23 807.181C2101.07 807.181 2090.89 810.973 2082.65 818.559C2074.41 826.144 2070.29 835.362 2070.29 846.213C2070.29 852.745 2072.68 859.698 2077.41 867.02C2082.14 874.342 2087.33 880.61 2092.88 885.772C2098.47 890.935 2103.61 896.518 2108.35 902.576C2113.08 908.581 2115.47 913.848 2115.47 918.326C2115.47 931.073 2108.96 937.447 2095.98 937.447C2081.99 937.447 2071.1 926.701 2063.26 905.157H2061.28C2053.95 908.581 2050.29 914.217 2050.29 921.96C2050.29 929.704 2053.8 936.235 2060.77 941.45C2067.74 946.718 2076.9 949.352 2088.25 949.352C2100.2 949.352 2110.64 945.506 2119.44 937.868C2128.24 930.178 2132.67 920.169 2132.67 907.791C2132.67 902.628 2131.09 897.256 2127.94 891.619C2124.78 886.036 2120.91 880.768 2116.33 875.869C2111.76 870.971 2107.18 866.282 2102.6 861.805C2098.02 857.328 2094.15 852.903 2091 848.478C2087.84 844.106 2086.26 840.261 2086.26 836.995C2086.26 825.775 2092.01 820.191 2103.46 820.191C2114.45 820.191 2123.66 828.04 2131.19 843.685H2133.69C2140.86 840.05 2144.42 835.573 2144.42 830.252C2144.37 823.299 2141.57 817.716 2135.92 813.502Z" fill="black"/>
<path d="M1723.41 758.035C1716.09 758.035 1710.13 764.198 1710.13 771.783C1710.13 779.369 1716.09 785.532 1723.41 785.532C1730.74 785.532 1736.69 779.369 1736.69 771.783C1736.69 764.198 1730.74 758.035 1723.41 758.035Z" fill="black"/>
</g>
<defs>
<clipPath id="clip0_717_2123">
<rect width="1728.74" height="191.264" fill="white" transform="translate(415.633 758.035)"/>
</clipPath>
</defs>
</svg>
