<svg width="2560" height="1708" viewBox="0 0 2560 1708" fill="none" xmlns="http://www.w3.org/2000/svg">
<rect y="0.667969" width="2560" height="1706.67" fill="white"/>
<path d="M725.156 695.283V948.947H696.844V695.283H725.156Z" fill="black"/>
<path d="M1824.49 764.197V792.509H1823.91C1784.45 786.217 1757.28 813.671 1757.28 852.564V948.94H1728.97V767.914H1757.28L1750.7 794.225L1756.14 796.512C1770.15 772.204 1781.88 763.053 1807.9 763.053C1814.76 763.053 1819.62 763.339 1824.49 764.197Z" fill="black"/>
<path d="M1868.2 695.279V845.705L1951.14 767.918H1986.6L1915.96 834.837L1994.03 948.657H1960.29L1896.23 851.424L1868.2 877.448V948.657H1839.89V695.279H1868.2Z" fill="black"/>
<path d="M1477 763.056C1449.83 763.056 1430.95 777.355 1418.37 794.227H1417.8C1410.36 773.923 1395.49 763.056 1369.47 763.056C1342.59 763.056 1329.72 771.635 1317.71 792.226L1315.42 796.515L1309.98 794.227L1316.56 767.917H1288.25V948.656H1316.56V835.98C1316.56 807.954 1334.29 787.65 1362.6 787.65C1390.92 787.65 1395.49 805.953 1395.49 829.403V948.656H1423.8V835.98C1423.8 807.954 1441.54 787.65 1469.85 787.65C1498.16 787.65 1502.73 805.953 1502.73 829.403V948.656H1531.05V822.539C1531.33 784.79 1513.6 763.056 1477 763.056Z" fill="black"/>
<path d="M1029.69 763.056C998.802 763.056 982.501 772.208 970.204 793.37L968.488 796.516L963.055 794.228L969.632 767.918V695.279H941.32V948.943H969.632V835.981C969.632 807.955 990.795 787.651 1022.82 787.651C1051.14 787.651 1062.29 805.953 1062.29 829.404V948.657H1090.6V822.54C1090.32 781.073 1062.86 763.056 1029.69 763.056Z" fill="black"/>
<path d="M1256.78 908.047V820.252C1256.78 776.497 1225.9 763.056 1191.58 763.056C1138.96 763.056 1117.51 789.366 1115.8 823.969H1144.11C1145.82 797.659 1157.26 787.936 1191.58 787.936C1220.75 787.936 1228.47 799.947 1228.47 814.246C1228.47 832.263 1214.74 836.266 1184.14 841.986C1137.24 850.851 1106.93 861.433 1106.93 902.614C1106.93 933.214 1130.09 954.09 1166.41 954.09C1195.87 954.09 1215.03 944.367 1227.33 923.49L1229.33 919.773L1234.76 922.06C1229.9 942.079 1243.63 950.944 1260.5 950.944C1265.93 950.944 1269.65 950.658 1277.09 948.085V928.352C1259.36 930.068 1256.78 922.346 1256.78 908.047ZM1228.47 878.877C1228.47 913.767 1203.02 928.924 1169.27 928.924C1145.82 928.924 1135.24 918.629 1135.24 900.898C1135.24 879.163 1151.54 870.298 1186.72 862.863C1205.88 858.859 1223.32 853.997 1228.47 848.564V878.877Z" fill="black"/>
<path d="M1697.49 908.051V820.256C1697.49 776.501 1666.61 763.06 1632.29 763.06C1579.67 763.06 1558.22 789.37 1556.51 823.973H1584.82C1586.53 797.663 1597.97 787.94 1632.29 787.94C1661.46 787.94 1669.18 799.951 1669.18 814.25C1669.18 832.267 1655.45 836.27 1624.86 841.99C1577.95 850.855 1547.64 861.437 1547.64 902.618C1547.64 933.218 1570.81 954.094 1607.12 954.094C1636.58 954.094 1655.74 944.371 1668.04 923.494L1670.04 919.776L1675.47 922.064C1670.61 942.083 1684.34 950.948 1701.21 950.948C1706.65 950.948 1710.36 950.662 1717.8 948.088V928.356C1700.07 930.072 1697.49 922.35 1697.49 908.051ZM1669.18 878.881C1669.18 913.771 1643.73 928.928 1609.98 928.928C1586.53 928.928 1575.95 918.633 1575.95 900.902C1575.95 879.167 1592.25 870.302 1627.43 862.867C1646.59 858.863 1664.03 854.001 1669.18 848.568V878.881V878.881Z" fill="black"/>
<path d="M841.225 763.06C811.483 763.06 796.04 772.211 783.743 793.373L782.027 796.233L776.594 793.945L783.171 767.635H754.859V1009.86H783.171V945.515L776.594 921.778L782.027 919.491L786.031 926.068C798.328 944.657 813.199 953.808 841.225 953.808C885.838 953.808 922.158 918.061 922.158 858.291C921.872 798.807 885.838 763.06 841.225 763.06ZM837.508 928.928C803.762 928.928 782.885 900.902 782.885 858.291C782.885 815.68 803.762 787.654 837.508 787.654C874.685 787.654 893.56 822.829 893.56 858.291C893.56 893.752 874.685 928.928 837.508 928.928Z" fill="black"/>
<path d="M2011.86 703.032H1994.02V695.279H2038.99V703.032H2021.16V750.714H2011.86V703.032Z" fill="black"/>
<path d="M2045.17 695.279H2057.19L2072.7 737.921L2088.2 695.279H2100.22V751.101H2091.3V708.847L2076.57 751.101H2069.21L2054.48 708.847V751.101H2045.56V695.279H2045.17Z" fill="black"/>
<path d="M683.95 948.947L589.863 695.283H554.116L459.742 948.947H492.916L515.508 885.46H628.184L650.777 948.947H683.95ZM526.375 857.148L565.269 743.9L569.272 716.16H575.278L579.282 743.9L618.175 857.148H526.375Z" fill="black"/>
</svg>
