<svg width="2560" height="1707" viewBox="0 0 2560 1707" fill="none" xmlns="http://www.w3.org/2000/svg">
<rect y="0.000976562" width="2560" height="1706.67" fill="white"/>
<g clip-path="url(#clip0_717_2363)">
<path d="M1493.79 599.817C1499.86 603.403 1507.03 605.058 1515.03 605.058C1523.03 605.058 1529.93 603.403 1536 599.817C1542.07 596.231 1547.03 591.265 1550.34 585.196C1553.93 578.852 1555.58 571.955 1555.58 563.955C1555.58 555.955 1553.93 549.058 1550.34 542.714C1546.76 536.369 1542.07 531.403 1536 527.817C1529.93 524.231 1522.76 522.3 1515.03 522.3C1507.03 522.3 1499.86 524.231 1493.79 527.817C1487.72 531.403 1482.76 536.369 1479.17 542.714C1475.58 549.058 1473.93 555.955 1473.93 563.955C1473.93 571.955 1475.58 578.852 1479.17 585.196C1482.76 591.265 1487.72 596.231 1493.79 599.817ZM1491.03 539.403C1497.1 533.058 1505.1 530.024 1515.03 530.024C1524.96 530.024 1532.69 533.058 1538.76 539.403C1544.83 545.748 1547.86 554.024 1547.86 563.955C1547.86 573.886 1544.83 582.162 1538.76 588.507C1532.69 594.852 1524.96 597.886 1515.03 597.886C1504.83 597.886 1496.83 594.852 1491.03 588.507C1484.96 582.162 1481.93 573.886 1481.93 563.955C1481.93 553.748 1484.96 545.748 1491.03 539.403Z" fill="black"/>
<path d="M1507.86 567.817H1512L1522.48 584.92L1533.79 584.644L1522.21 567.541C1525.24 566.713 1527.73 565.334 1529.66 563.127C1531.59 560.92 1532.42 558.162 1532.42 554.851C1532.42 550.713 1531.04 547.403 1528.55 544.92C1525.79 542.437 1522.21 541.334 1517.79 541.334H1498.48V585.748H1508.14V567.817H1507.86ZM1507.86 549.61H1516.97C1518.9 549.61 1520.28 550.162 1521.38 550.989C1522.48 551.817 1523.04 553.196 1523.04 554.851C1523.04 556.782 1522.48 558.162 1521.38 558.989C1520.28 559.817 1518.62 560.368 1516.97 560.368H1507.86V549.61Z" fill="black"/>
<path d="M1506.21 720.92L1467.31 682.024L1307.59 841.748V522.3H1252.42V841.748L1092.69 682.024L1053.8 720.92L1213.52 880.92H1004.14V936.093H1555.86V880.92H1346.49L1506.21 720.92Z" fill="black"/>
<path d="M1096 1064.92C1146.76 1064.92 1187.86 1023.82 1187.86 973.059H1004.14C1004.14 1023.54 1045.24 1064.92 1096 1064.92Z" fill="black"/>
<path d="M1280 1064.92C1330.76 1064.92 1371.86 1023.82 1371.86 973.058H1188.14C1188.14 1023.54 1229.24 1064.92 1280 1064.92Z" fill="black"/>
<path d="M1464.01 1064.92C1514.76 1064.92 1555.87 1023.82 1555.87 973.058H1371.87C1371.87 1023.54 1413.25 1064.92 1464.01 1064.92Z" fill="black"/>
<path d="M1280 1184.37C1330.76 1184.37 1371.86 1143.26 1371.86 1092.51H1188.14C1188.14 1143.26 1229.24 1184.37 1280 1184.37Z" fill="black"/>
</g>
<defs>
<clipPath id="clip0_717_2363">
<rect width="551.724" height="662.069" fill="white" transform="translate(1004.14 522.3)"/>
</clipPath>
</defs>
</svg>
