<svg width="2560" height="1707" viewBox="0 0 2560 1707" fill="none" xmlns="http://www.w3.org/2000/svg">
<rect y="0.00195312" width="2560" height="1706.67" fill="white"/>
<g clip-path="url(#clip0_717_2042)">
<path d="M1289.96 470.807H1268.88V710.11H1289.96V470.807Z" fill="#010101"/>
<path d="M1217.91 564.772L1244.27 714.502L1264.92 710.55L1238.56 561.26L1228.02 563.016L1232.41 562.138L1217.47 476.516L1208.69 477.833L1224.06 563.455L1217.91 564.772Z" fill="#010101"/>
<path d="M1194.63 621.854L1185.4 625.367L1220.99 722.844L1240.76 715.819L1205.17 617.902L1199.46 620.098L1153.33 493.201L1144.98 496.275L1191.12 623.171L1194.63 621.854Z" fill="#010101"/>
<path d="M1171.34 665.762L1162.12 671.031L1199.46 735.578L1217.91 725.039L1180.57 660.493L1175.3 663.567L1093.14 520.863L1085.67 525.254L1167.83 667.958L1171.34 665.762Z" fill="#010101"/>
<path d="M1144.54 708.353L1180.57 751.383L1196.83 737.771L1160.8 694.741L1152.45 701.766L1155.97 698.693L1038.66 559.062L1031.63 564.332L1149.38 704.401L1144.54 708.353Z" fill="#010101"/>
<path d="M1136.63 732.943L1129.6 741.286L1164.75 770.705L1178.37 754.458L1143.22 725.039L1139.27 729.869L991.211 605.607L985.5 612.194L1133.56 736.456L1136.63 732.943Z" fill="#010101"/>
<path d="M1116.86 771.583L1152.45 792.22L1162.99 773.778L1127.41 753.141L1122.13 762.362L1124.33 758.41L952.987 659.615L948.594 667.08L1119.94 766.314L1116.86 771.583Z" fill="#010101"/>
<path d="M1104.56 801.001L1144.1 815.491L1151.57 795.732L1112.03 781.242L1108.08 791.78L1109.84 786.95L924.872 719.77L921.797 728.112L1106.76 795.293L1104.56 801.001Z" fill="#010101"/>
<path d="M1093.14 831.738L1140.15 840.08L1143.66 819.004L1096.65 810.661L1094.9 820.76L1095.33 816.809L907.296 783.877L905.539 792.22L1094.02 825.59L1093.14 831.738Z" fill="#010101"/>
<path d="M1080.84 864.668H1140.15V843.592H1080.84V849.739H901.148V858.521H1080.84V864.668Z" fill="#010101"/>
<path d="M1065.9 891.892L1068.1 902.431L1144.54 889.258L1141.03 868.182L1064.14 881.793L1065.46 887.941L906.859 916.042L908.177 924.385L1066.78 896.722L1065.9 891.892Z" fill="#010101"/>
<path d="M1051.4 937.997L1055.36 948.096L1153.33 912.53L1146.3 892.332L1047.89 928.337L1050.09 934.045L923.555 980.15L926.63 988.053L1053.16 942.388L1051.4 937.997Z" fill="#010101"/>
<path d="M1043.06 992.444L1048.33 1001.66L1166.07 933.606L1155.09 915.604L1037.78 983.223L1040.86 988.492L951.234 1040.3L955.628 1047.77L1045.25 996.396L1043.06 992.444Z" fill="#010101"/>
<path d="M1056.67 1057.43L1181.89 952.488L1168.27 936.242L1043.05 1041.62L1050.08 1049.53L1047.01 1046.01L989.016 1094.75L994.727 1101.34L1052.72 1053.04L1056.67 1057.43Z" fill="#010101"/>
<path d="M1201.22 968.293L1184.96 954.682L1063.7 1099.14L1068.53 1103.09L1036.02 1141.73L1042.61 1147.44L1075.12 1108.8L1072.05 1106.17L1079.96 1112.75L1201.22 968.293Z" fill="#010101"/>
<path d="M1222.74 980.589L1204.29 970.051L1099.73 1151.39L1108.51 1156.66L1105 1154.47L1090.06 1180.37L1097.53 1184.77L1112.47 1158.86L1117.74 1161.93L1222.74 980.589Z" fill="#010101"/>
<path d="M1246.03 988.932L1225.82 981.906L1148.94 1193.55L1159.04 1197.06L1154.65 1195.3L1150.26 1208.48L1158.16 1211.55L1163 1198.38L1168.71 1200.57L1246.03 988.932Z" fill="#010101"/>
<path d="M1208.69 1220.77L1219.23 1222.53L1214.84 1222.09L1213.96 1226.04L1222.75 1227.36L1223.63 1223.41L1229.78 1224.28L1270.2 993.323L1249.55 989.371L1208.69 1220.77Z" fill="#010101"/>
<path d="M1274.15 1232.19H1280.3H1289.09H1295.24V992.883H1274.15V1232.19Z" fill="#010101"/>
<path d="M1319.4 988.492L1298.75 992.444L1339.61 1222.97L1345.76 1222.09L1346.2 1226.48L1354.99 1225.16L1354.11 1220.33L1349.71 1221.21L1360.26 1219.45L1319.4 988.492Z" fill="#010101"/>
<path d="M1342.68 980.148L1322.91 987.174L1399.8 1197.5L1405.51 1195.74L1410.34 1209.79L1418.69 1206.72L1413.42 1192.67L1408.59 1194.42L1419.57 1190.47L1342.68 980.148Z" fill="#010101"/>
<path d="M1459.11 1152.71L1468.33 1147.44L1364.21 967.416L1345.76 977.954L1449.88 1157.98L1455.15 1154.91L1470.97 1181.69L1478.44 1177.74L1462.62 1150.52L1459.11 1152.71Z" fill="#010101"/>
<path d="M1503.05 1093.87L1383.11 951.607L1366.85 965.219L1486.79 1107.48L1494.7 1100.9L1491.19 1103.53L1525.45 1143.93L1532.04 1138.66L1498.21 1097.82L1503.05 1093.87Z" fill="#010101"/>
<path d="M1515.35 1043.82L1521.94 1035.47L1398.92 932.289L1385.3 948.535L1508.32 1051.72L1512.27 1046.89L1572.46 1097.39L1578.18 1090.8L1517.99 1040.3L1515.35 1043.82Z" fill="#010101"/>
<path d="M1525.89 977.076L1411.22 910.773L1400.68 929.215L1515.35 995.518L1520.62 986.297L1518.42 989.809L1610.69 1043.38L1615.08 1035.47L1522.82 982.345L1525.89 977.076Z" fill="#010101"/>
<path d="M1514.03 921.751L1419.57 887.502L1412.54 907.261L1507 941.949L1510.51 931.85L1509.19 935.802L1639.24 983.223L1642.31 974.881L1511.83 927.898L1514.03 921.751Z" fill="#010101"/>
<path d="M1497.33 876.087L1423.52 862.914L1420.01 883.99L1493.82 896.724L1495.57 886.625L1494.7 890.577L1656.81 919.117L1658.13 910.775L1496.45 882.234L1497.33 876.087Z" fill="#010101"/>
<path d="M1481.08 844.471V838.324H1423.52V859.4H1481.08V853.253H1662.53V844.471H1481.08Z" fill="#010101"/>
<path d="M1467.02 816.369L1464.82 805.831L1419.13 813.734L1422.65 834.811L1468.78 826.468L1467.46 820.321L1657.26 786.95L1655.5 778.607L1466.14 811.978L1467.02 816.369Z" fill="#010101"/>
<path d="M1453.4 786.511L1449.45 776.412L1410.34 790.463L1417.81 810.661L1456.91 796.171L1454.72 790.463L1640.12 722.843L1637.48 714.939L1451.64 782.12L1453.4 786.511Z" fill="#010101"/>
<path d="M1439.35 757.53L1434.07 748.309L1398.05 769.386L1408.59 787.388L1444.62 766.751L1441.54 761.482L1612.45 662.687L1608.05 655.223L1437.15 753.578L1439.35 757.53Z" fill="#010101"/>
<path d="M1418.25 720.208L1381.79 750.505L1395.41 766.752L1431.43 736.454L1424.84 728.112L1427.48 731.624L1574.66 608.241L1568.95 601.654L1422.21 725.038L1418.25 720.208Z" fill="#010101"/>
<path d="M1408.59 696.498L1400.68 689.473L1362.9 734.699L1379.15 748.311L1416.94 703.085L1412.1 699.133L1528.09 561.259L1521.5 555.551L1405.08 693.864L1408.59 696.498Z" fill="#010101"/>
<path d="M1380.47 654.785L1341.37 722.405L1359.82 732.943L1398.48 665.323L1389.69 660.054L1393.21 662.25L1473.61 522.619L1466.14 518.229L1385.74 657.859L1380.47 654.785Z" fill="#010101"/>
<path d="M1318.09 714.061L1337.86 721.087L1375.2 619.218L1364.22 615.266L1369.05 617.023L1413.86 494.517L1405.51 491.443L1361.14 613.949L1354.99 611.754L1318.09 714.061Z" fill="#010101"/>
<path d="M1341.8 557.746L1331.26 555.551L1335.65 556.429L1349.71 476.954L1340.93 475.637L1327.31 555.112L1321.16 553.794L1293.48 709.671L1314.13 713.623L1341.8 557.746Z" fill="#010101"/>
</g>
<defs>
<clipPath id="clip0_717_2042">
<rect width="761.379" height="761.379" fill="white" transform="translate(901.148 470.807)"/>
</clipPath>
</defs>
</svg>
