<svg width="2560" height="1707" viewBox="0 0 2560 1707" fill="none" xmlns="http://www.w3.org/2000/svg">
<rect y="0.00195312" width="2560" height="1706.67" fill="white"/>
<g clip-path="url(#clip0_717_2082)">
<path d="M728.965 883.043H598.847L573.217 950.382H540.688L640.248 686.969H688.55L788.11 950.382H754.595L728.965 883.043ZM719.108 856.306L663.906 710.735L608.704 856.306H719.108Z" fill="#010101"/>
<path d="M991.177 752.326V950.381C991.177 1002.87 965.547 1033.56 893.588 1033.56C834.443 1033.56 803.885 1007.82 799.942 962.265H831.486C833.457 988.012 850.215 1007.82 894.573 1007.82C940.903 1007.82 960.618 991.973 960.618 949.391V906.809C946.818 932.556 923.16 945.43 887.673 945.43C825.571 945.43 796.984 906.809 796.984 845.412C796.984 785.005 826.557 746.385 887.673 746.385C923.16 746.385 947.804 760.249 960.618 785.996V752.326H991.177ZM959.633 846.402C959.633 792.928 935.975 772.132 893.588 772.132C848.243 772.132 827.543 792.928 827.543 846.402C827.543 899.877 849.229 921.663 893.588 921.663C935.975 920.673 959.633 899.877 959.633 846.402Z" fill="#010101"/>
<path d="M1019.76 897.897C1019.76 866.208 1037.5 845.412 1079.89 838.48L1130.16 830.558C1150.86 826.597 1159.73 821.646 1159.73 806.792C1159.73 786.986 1149.88 771.142 1111.43 771.142C1072.99 771.142 1058.2 788.967 1056.23 814.714H1024.69C1025.67 773.122 1055.24 745.395 1109.46 745.395C1163.68 745.395 1188.32 770.151 1188.32 805.801V900.868C1188.32 914.731 1188.32 930.576 1190.29 950.381H1161.71C1159.73 933.547 1158.75 918.692 1158.75 903.838C1150.86 927.605 1130.16 955.333 1084.82 955.333C1047.36 955.333 1019.76 935.527 1019.76 897.897ZM1159.73 856.305V839.471C1149.88 846.402 1139.03 849.373 1124.25 853.334L1091.72 860.266C1065.1 866.208 1052.29 876.111 1052.29 897.897C1052.29 920.673 1068.06 931.566 1091.72 931.566C1138.05 930.576 1159.73 893.936 1159.73 856.305Z" fill="#010101"/>
<path d="M1307.6 746.387C1366.74 746.387 1396.32 779.066 1399.27 825.609H1369.7C1364.77 792.93 1345.06 772.134 1308.58 772.134C1267.18 772.134 1240.57 794.91 1240.57 851.356C1240.57 908.792 1266.2 930.578 1307.6 930.578C1347.03 930.578 1367.73 907.801 1371.67 874.132H1401.24C1399.27 919.685 1366.74 956.325 1307.6 956.325C1242.54 956.325 1209.02 911.762 1209.02 851.356C1209.02 790.949 1243.52 746.387 1307.6 746.387Z" fill="#010101"/>
<path d="M1597.41 823.627V950.382H1565.87V827.588C1565.87 785.006 1547.14 772.133 1518.55 772.133C1475.18 772.133 1451.52 805.802 1451.52 874.131V950.382H1419.98V673.105H1451.52V803.822C1463.35 768.172 1487.99 745.395 1527.42 745.395C1576.71 746.386 1597.41 773.123 1597.41 823.627Z" fill="#010101"/>
<path d="M1777.8 888.985H1806.39C1802.45 918.693 1779.77 956.324 1714.71 956.324C1646.7 956.324 1617.12 910.771 1617.12 850.364C1617.12 790.948 1649.65 745.395 1714.71 745.395C1773.86 745.395 1807.37 785.996 1807.37 843.432C1807.37 848.384 1807.37 852.345 1806.39 857.296H1647.68C1649.65 911.761 1676.27 931.567 1715.7 931.567C1754.14 932.557 1771.89 913.742 1777.8 888.985ZM1648.67 834.52H1775.83C1773.86 788.967 1751.19 770.152 1714.71 770.152C1677.26 770.152 1652.61 787.977 1648.67 834.52ZM1670.36 728.561L1664.44 716.677L1747.24 680.037L1757.1 703.804L1670.36 728.561Z" fill="#010101"/>
<path d="M1813.29 915.723H1854.69V950.382H1813.29V915.723Z" fill="#010101"/>
<path d="M2019.31 771.142H2001.57V704.793L1979.88 771.142H1959.18L1938.48 703.803V771.142H1920.74V706.774H1901.02V771.142H1883.28V706.774H1857.65V692.91H1952.28L1971.01 754.307L1989.74 692.91H2020.3V771.142H2019.31Z" fill="#010101"/>
</g>
<defs>
<clipPath id="clip0_717_2082">
<rect width="1478.62" height="360.46" fill="white" transform="translate(540.688 673.105)"/>
</clipPath>
</defs>
</svg>
