<svg width="2560" height="1708" viewBox="0 0 2560 1708" fill="none" xmlns="http://www.w3.org/2000/svg">
<rect y="0.667969" width="2560" height="1706.67" fill="white"/>
<g clip-path="url(#clip0_717_2675)">
<path d="M1025.9 1108.09L974.711 1159.27H1025.9H1076.54H1077.49H1128.27L1179.47 1159.29L1128.27 1108.09V545.059H1077.49H974.723L1025.9 596.231V1108.09Z" fill="black"/>
<path d="M1230.65 703.189L1230.64 1108.09L1179.47 1159.28H1230.64H1281.3H1282.23H1333.03H1384.2L1333.03 1108.07V703.189H1230.65Z" fill="black"/>
<path d="M1537.78 1108.13L1588.96 1159.28H1537.78H1487.12H1486.18H1435.39H1384.22L1435.39 1108.1V545.061H1486.18H1588.95L1537.78 596.233V1108.13Z" fill="black"/>
<path d="M1281.83 647.404C1310.1 647.404 1333.01 624.488 1333.01 596.22C1333.01 567.951 1310.1 545.035 1281.83 545.035C1253.56 545.035 1230.64 567.951 1230.64 596.22C1230.64 624.488 1253.56 647.404 1281.83 647.404Z" fill="black"/>
</g>
<defs>
<clipPath id="clip0_717_2675">
<rect width="614.253" height="614.253" fill="white" transform="translate(974.711 545.035)"/>
</clipPath>
</defs>
</svg>
