<svg width="2560" height="1708" viewBox="0 0 2560 1708" fill="none" xmlns="http://www.w3.org/2000/svg">
<rect y="0.334961" width="2560" height="1706.67" fill="white"/>
<path d="M331.039 828.922H370.657V906.02H389.831V828.922H429.315V812.953H331.039V828.922Z" fill="black"/>
<path d="M533.119 859.863C535.853 857.942 537.99 855.444 539.53 852.388C541.07 849.313 541.84 845.585 541.84 841.166C541.84 834.651 540.358 829.29 537.374 825.12C534.39 820.95 530.232 817.875 524.918 815.915C519.586 813.955 513.31 812.975 506.11 812.975H442.852V906.022H462.006V871.643H498.179C504.224 871.643 508.863 872.028 512.078 872.796C515.293 873.565 517.526 874.929 518.777 876.889C520.029 878.85 520.645 881.617 520.645 885.153V906.022H539.799V883.865C539.799 878.696 538.721 874.776 536.565 872.143C534.409 869.51 531.156 867.685 526.843 866.685C524.418 866.128 521.549 865.705 518.373 865.436C520.202 865.11 521.973 864.725 523.686 864.245C527.228 863.226 530.386 861.766 533.119 859.863ZM518.431 852.811C515.601 855.405 511.5 856.693 506.11 856.693H462.025V829.366H506.11C511.481 829.366 515.601 830.462 518.431 832.672C521.261 834.882 522.685 838.091 522.685 842.319C522.685 846.719 521.261 850.217 518.431 852.811Z" fill="black"/>
<path d="M596.585 812.957L552.789 906.024H573.542L582.744 885.75H631.41L640.689 906.024H661.576L617.337 812.957H596.585ZM589.982 869.781L606.98 832.289L624.114 869.781H589.982Z" fill="black"/>
<path d="M758.756 820.584C755.349 817.99 751.364 816.069 746.801 814.839C742.239 813.59 737.368 812.975 732.17 812.975H674.398V906.022H693.553V875.813H732.17C737.368 875.813 742.239 875.256 746.801 874.161C751.364 873.065 755.349 871.278 758.756 868.838C762.163 866.397 764.82 863.207 766.745 859.268C768.67 855.328 769.633 850.601 769.633 845.028C769.633 839.378 768.67 834.536 766.745 830.5C764.839 826.484 762.163 823.179 758.756 820.584ZM746.012 856.481C743.028 859.21 739.005 860.574 733.903 860.574H693.553V829.366H733.903C739.005 829.366 743.028 830.712 746.012 833.383C748.996 836.073 750.478 839.955 750.478 845.028C750.478 849.928 748.977 853.733 746.012 856.481Z" fill="black"/>
<path d="M871.287 820.584C867.88 817.99 863.895 816.069 859.332 814.839C854.77 813.59 849.899 812.975 844.702 812.975H786.93V906.022H806.084V875.813H844.702C849.899 875.813 854.77 875.256 859.332 874.161C863.895 873.065 867.88 871.278 871.287 868.838C874.695 866.397 877.351 863.207 879.276 859.268C881.202 855.328 882.164 850.601 882.164 845.028C882.164 839.378 881.202 834.536 879.276 830.5C877.351 826.484 874.695 823.179 871.287 820.584ZM858.543 856.481C855.559 859.21 851.536 860.574 846.434 860.574H806.084V829.366H846.434C851.536 829.366 855.559 830.712 858.543 833.383C861.527 836.073 863.009 839.955 863.009 845.028C863.009 849.928 861.508 853.733 858.543 856.481Z" fill="black"/>
<path d="M918.916 867.183H977.708V852.078H918.916V828.922H990.664V812.953H899.742V906.02H990.818V890.051H918.916V867.183Z" fill="black"/>
<path d="M1106.43 826.851C1102.25 822.585 1096.65 819.202 1089.64 816.704C1082.64 814.206 1073.9 812.957 1063.42 812.957H1010.12V906.024H1063.42C1073.41 906.024 1081.88 904.755 1088.85 902.219C1095.82 899.682 1101.44 896.223 1105.72 891.861C1109.99 887.499 1113.11 882.483 1115.07 876.833C1117.04 871.184 1118.02 865.284 1118.02 859.135C1118.02 853.005 1117.13 847.144 1115.34 841.59C1113.59 836.036 1110.61 831.117 1106.43 826.851ZM1096.86 870.492C1095.71 874.143 1093.78 877.391 1091.11 880.273C1088.41 883.156 1084.79 885.423 1080.23 887.114C1075.67 888.786 1069.93 889.632 1063.02 889.632H1029.31V829.368H1063.02C1069.93 829.368 1075.67 830.175 1080.23 831.809C1084.79 833.442 1088.41 835.652 1091.11 838.419C1093.8 841.206 1095.71 844.357 1096.86 847.912C1098.02 851.467 1098.59 855.195 1098.59 859.135C1098.58 863.074 1098 866.86 1096.86 870.492Z" fill="black"/>
<path d="M1517.9 845.028C1517.9 839.378 1516.94 834.536 1515.01 830.5C1513.09 826.465 1510.41 823.159 1507.01 820.584C1503.6 817.99 1499.61 816.069 1495.05 814.839C1490.49 813.59 1485.62 812.975 1480.42 812.975H1422.65V906.022H1441.8V875.813H1480.42C1485.62 875.813 1490.49 875.256 1495.05 874.161C1499.61 873.065 1503.6 871.278 1507.01 868.838C1510.41 866.397 1513.07 863.207 1515.01 859.268C1516.94 855.348 1517.9 850.601 1517.9 845.028ZM1494.26 856.481C1491.28 859.21 1487.25 860.574 1482.15 860.574H1441.8V829.366H1482.15C1487.24 829.366 1491.28 830.712 1494.26 833.383C1497.25 836.073 1498.73 839.955 1498.73 845.028C1498.73 849.928 1497.25 853.733 1494.26 856.481Z" fill="black"/>
<path d="M1558.69 812.957L1514.89 906.024H1535.64L1544.85 885.75H1593.53L1602.81 906.024H1623.7L1579.46 812.957H1558.69ZM1552.06 869.781L1569.06 832.289L1586.2 869.781H1552.06Z" fill="black"/>
<path d="M1727.08 859.863C1729.81 857.942 1731.95 855.444 1733.49 852.388C1735.03 849.313 1735.8 845.585 1735.8 841.166C1735.8 834.651 1734.31 829.29 1731.33 825.12C1728.35 820.95 1724.19 817.875 1718.86 815.915C1713.52 813.955 1707.27 812.975 1700.05 812.975H1636.79V906.022H1655.94V871.643H1692.12C1698.16 871.643 1702.8 872.028 1706.02 872.796C1709.23 873.565 1711.46 874.929 1712.71 876.889C1713.97 878.85 1714.58 881.617 1714.58 885.153V906.022H1733.76V883.865C1733.76 878.696 1732.68 874.776 1730.5 872.143C1728.35 869.51 1725.09 867.685 1720.78 866.685C1718.36 866.128 1715.49 865.705 1712.31 865.436C1714.14 865.11 1715.91 864.725 1717.62 864.245C1721.19 863.226 1724.34 861.766 1727.08 859.863ZM1712.37 852.811C1709.54 855.405 1705.44 856.693 1700.05 856.693H1655.96V829.366H1700.05C1705.42 829.366 1709.54 830.462 1712.37 832.672C1715.2 834.882 1716.62 838.091 1716.62 842.319C1716.62 846.719 1715.22 850.217 1712.37 852.811Z" fill="black"/>
<path d="M1790.54 812.953L1746.73 906.02H1767.48L1776.68 885.746H1825.35L1834.63 906.02H1855.53L1811.29 812.953H1790.54ZM1783.92 869.777L1800.92 832.285L1818.05 869.777H1783.92Z" fill="black"/>
<path d="M1964.94 826.851C1960.76 822.585 1955.16 819.202 1948.15 816.704C1941.12 814.206 1932.38 812.957 1921.93 812.957H1868.62V906.024H1921.93C1931.92 906.024 1940.39 904.755 1947.36 902.219C1954.33 899.682 1959.95 896.223 1964.23 891.861C1968.5 887.499 1971.62 882.483 1973.58 876.833C1975.54 871.184 1976.53 865.284 1976.53 859.135C1976.53 853.005 1975.64 847.144 1973.87 841.59C1972.1 836.036 1969.11 831.117 1964.94 826.851ZM1955.37 870.492C1954.21 874.143 1952.29 877.391 1949.59 880.273C1946.9 883.156 1943.28 885.423 1938.72 887.114C1934.16 888.786 1928.42 889.632 1921.51 889.632H1887.8V829.368H1921.51C1928.42 829.368 1934.16 830.175 1938.72 831.809C1943.28 833.442 1946.92 835.652 1949.59 838.419C1952.29 841.206 1954.21 844.357 1955.37 847.912C1956.52 851.467 1957.1 855.195 1957.1 859.135C1957.08 863.074 1956.51 866.86 1955.37 870.492Z" fill="black"/>
<path d="M2014.01 812.953H1994.84V906.02H2014.01V812.953Z" fill="black"/>
<path d="M2111.46 860.65C2108.25 858.594 2104.4 856.903 2099.93 855.615C2095.46 854.328 2090.48 853.29 2085.01 852.521C2079.14 851.657 2074.25 850.792 2070.3 849.927C2066.36 849.062 2063.24 848.159 2060.95 847.198C2058.64 846.238 2057 845.104 2056.06 843.816C2055.09 842.529 2054.61 841.011 2054.61 839.281C2054.61 834.88 2056.61 831.748 2060.6 829.942C2064.58 828.116 2069.65 827.213 2075.81 827.213C2082.43 827.213 2087.94 828.462 2092.31 830.96C2096.68 833.458 2099.06 837.532 2099.43 843.182H2118.16C2118.35 833.209 2114.81 825.368 2107.57 819.661C2100.31 813.953 2089.98 811.109 2076.52 811.109C2067.59 811.109 2060.04 812.262 2053.9 814.568C2047.76 816.874 2043.12 820.084 2040 824.215C2036.88 828.347 2035.32 833.132 2035.32 838.609C2035.32 843.028 2036.34 846.833 2038.42 850.043C2040.48 853.252 2043.31 855.961 2046.93 858.171C2050.53 860.381 2054.69 862.168 2059.41 863.571C2064.1 864.955 2069.11 866.05 2074.38 866.8C2081.1 867.76 2086.53 868.702 2090.67 869.605C2094.81 870.508 2097.83 871.661 2099.76 873.064C2101.68 874.448 2102.64 876.446 2102.64 879.041C2102.64 881.731 2101.87 884.037 2100.33 885.939C2098.79 887.861 2096.44 889.341 2093.27 890.398C2090.09 891.455 2086.07 891.973 2081.16 891.973C2075.79 891.973 2070.94 891.224 2066.61 889.744C2062.27 888.265 2058.79 886.208 2056.15 883.557C2053.52 880.924 2051.99 877.964 2051.61 874.717H2032.15C2031.95 877.119 2032.38 879.809 2033.38 882.769C2034.38 885.747 2036.09 888.707 2038.5 891.685C2040.91 894.664 2044.02 897.393 2047.86 899.891C2051.71 902.389 2056.27 904.368 2061.54 905.867C2066.84 907.347 2072.94 908.096 2079.85 908.096C2089.55 908.096 2097.45 906.943 2103.55 904.637C2109.65 902.331 2114.16 899.103 2117.1 894.933C2120.03 890.763 2121.49 885.843 2121.49 880.194C2121.49 875.601 2120.62 871.7 2118.89 868.548C2117.16 865.32 2114.68 862.706 2111.46 860.65Z" fill="black"/>
<path d="M2157.06 890.051V867.183H2215.85V852.078H2157.06V828.922H2228.83V812.953H2137.91V906.02H2228.96V890.051H2157.06Z" fill="black"/>
<path d="M1238.44 817.739C1239.79 819.392 1241.31 820.987 1242.97 822.486C1244.62 824.004 1245.76 825.042 1246.35 825.638C1248.45 827.444 1250.88 827.828 1253.59 826.771C1256.31 825.714 1258.87 824.062 1261.27 821.813C1263.68 819.565 1265.8 817.009 1267.61 814.146C1269.42 811.283 1270.61 808.957 1271.23 807.151C1271.82 805.652 1271.3 803.846 1269.65 801.732C1267.99 799.637 1266.03 797.677 1263.78 795.871C1261.52 794.064 1259.17 792.719 1256.77 791.816C1254.36 790.913 1252.84 790.913 1252.24 791.816L1235.52 808.977C1234.61 809.88 1234.53 811.167 1235.28 812.82C1236.02 814.434 1237.07 816.087 1238.44 817.739Z" fill="black"/>
<path d="M1374.87 873.486C1374.43 872.89 1372.54 873.639 1369.21 875.734C1365.88 877.54 1362.05 879.731 1357.68 882.287C1353.31 884.843 1348.63 887.245 1343.67 889.512C1338.7 891.761 1333.79 893.875 1328.96 895.835C1324.13 897.795 1319.91 899.082 1316.29 899.678L1327.15 887.495L1348.86 861.763C1353.08 857.247 1357.45 852.885 1361.97 848.677C1363.17 847.485 1364.38 846.428 1365.59 845.506C1366.79 844.603 1367.69 843.411 1368.31 841.893C1369.21 839.799 1368.23 837.089 1365.36 833.765C1362.49 830.459 1360.32 828.192 1358.8 827C1356.37 824.906 1353.66 823.099 1350.65 821.581H1350.21C1347.19 820.082 1344.63 820.082 1342.53 821.581L1313.13 839.645C1312.52 837.839 1311.48 836.032 1309.98 834.226C1308.46 832.419 1307.11 830.767 1305.91 829.268C1304.7 828.365 1302.81 826.789 1300.25 824.521C1297.69 822.273 1295.65 821.139 1294.15 821.139C1293.25 821.139 1291.13 822.657 1287.82 825.655C1284.49 828.672 1280.89 832.054 1276.96 835.802C1273.03 839.568 1269.41 843.181 1266.1 846.64C1262.79 850.099 1260.67 852.29 1259.77 853.193C1258.56 854.403 1256.38 856.652 1253.2 859.957C1250.05 863.282 1246.72 866.875 1243.25 870.795C1240.35 874.081 1237.77 877.233 1235.38 880.308C1234.26 880.942 1233.09 881.614 1231.86 882.306C1227.33 884.862 1222.6 887.264 1217.61 889.532C1212.64 891.78 1207.73 893.894 1202.92 895.854C1198.09 897.814 1193.87 899.102 1190.25 899.697L1201.11 887.514L1222.83 861.783L1236.4 848.235C1237.3 847.332 1238.29 846.505 1239.34 845.756C1240.4 845.006 1241.08 844.026 1241.38 842.816L1242.29 841.913C1242.89 840.414 1242.06 838.223 1239.81 835.36C1237.53 832.496 1235.8 830.479 1234.61 829.268C1233.7 828.365 1231.97 826.789 1229.41 824.521C1226.85 822.273 1224.81 821.139 1223.31 821.139C1222.4 821.139 1220.29 822.657 1216.97 825.655C1213.64 828.672 1210.04 832.054 1206.12 835.802C1202.19 839.568 1198.57 843.181 1195.26 846.64C1191.93 850.099 1189.83 852.29 1188.93 853.193C1187.71 854.403 1185.54 856.652 1182.36 859.957C1179.2 863.282 1175.87 866.875 1172.41 870.795C1168.94 874.716 1165.77 878.463 1162.92 882.076C1160.05 885.688 1158.62 888.09 1158.62 889.301C1158.62 891.415 1159.24 893.894 1160.43 896.757C1161.63 899.62 1162.84 901.946 1164.05 903.752C1164.65 905.27 1166.15 907.672 1168.58 910.978C1170.98 914.283 1173.26 915.935 1175.35 915.935C1180.17 917.742 1186.06 917.588 1192.99 915.474C1199.92 913.38 1206.85 910.439 1213.78 906.673C1219.84 903.387 1225.64 899.832 1231.24 896.085C1231.34 896.315 1231.41 896.527 1231.51 896.757C1232.86 899.62 1233.99 901.946 1234.9 903.752C1235.21 904.059 1235.88 905.04 1236.94 906.692C1238 908.345 1239.19 909.94 1240.56 911.439C1241.9 912.957 1243.19 914.225 1244.41 915.282C1245.6 916.339 1246.66 916.416 1247.56 915.513L1283.74 873.985L1312.67 855.922C1311.15 857.728 1308.9 860.207 1305.89 863.378C1302.87 866.529 1299.87 869.854 1296.85 873.313C1293.82 876.772 1291.11 880.019 1288.7 883.017C1286.28 886.034 1285.08 888.129 1285.08 889.339C1284.78 891.453 1285.32 893.932 1286.66 896.796C1288.01 899.659 1289.15 901.984 1290.05 903.79C1290.96 905.309 1292.61 907.711 1295.02 911.016C1297.42 914.321 1299.7 915.974 1301.79 915.974C1306.61 917.78 1312.5 917.626 1319.43 915.513C1326.36 913.418 1333.29 910.478 1340.22 906.711C1347.15 902.945 1353.71 898.89 1359.89 894.528C1366.07 890.166 1371.12 886.476 1375.04 883.459L1379.11 880.75C1379.7 879.251 1380.01 878.347 1380.01 878.04C1377.05 875.599 1375.31 874.101 1374.87 873.486Z" fill="black"/>
</svg>
