<svg width="378" height="396" viewBox="0 0 378 396" fill="none" xmlns="http://www.w3.org/2000/svg">
<g clip-path="url(#clip0_724_1305)">
<path d="M18 126H0V144H18V126Z" fill="#2D68CE"/>
<path d="M54 108H36V126H54V108Z" fill="#3273D0"/>
<path d="M54 90H36V108H54V90Z" fill="#2F6CCE"/>
<path d="M72 90H54V108H72V90Z" fill="#5C98BA"/>
<path d="M72 108H54V126H72V108Z" fill="#5693C9"/>
<path d="M18 144H0V162H18V144Z" fill="#275BCA"/>
<path d="M18 162H0V180H18V162Z" fill="#275BCA"/>
<path d="M18 180H0V198H18V180Z" fill="#285BCA"/>
<path d="M18 198H0V216H18V198Z" fill="#2759C9"/>
<path d="M18 216H0V234H18V216Z" fill="#2E64CD"/>
<path d="M18 234H0V252H18V234Z" fill="#2B5DC9"/>
<path d="M18 252H0V270H18V252Z" fill="#B8C7EA"/>
<path d="M54 288H36V306H54V288Z" fill="#2653C2"/>
<path d="M54 270H36V288H54V270Z" fill="#2C60CA"/>
<path d="M72 270H54V288H72V270Z" fill="#2C60C9"/>
<path d="M72 288H54V306H72V288Z" fill="#2959C5"/>
<path d="M90 288H72V306H90V288Z" fill="#2C5DC7"/>
<path d="M90 270H72V288H90V270Z" fill="#3066CB"/>
<path d="M36 90H18V108H36V90Z" fill="#2B64CC"/>
<path d="M72 72H54V90H72V72Z" fill="#2F6CCE"/>
<path d="M36 108H18V126H36V108Z" fill="#2B64CC"/>
<path d="M36 270H18V288H36V270Z" fill="#2552C2"/>
<path d="M36 288H18V306H36V288Z" fill="#9AACDF"/>
<path d="M72 306H54V324H72V306Z" fill="#264DB8"/>
<path d="M54 72H36V90H54V72Z" fill="#2A61CB"/>
<path d="M54 306H36V324H54V306Z" fill="#2D52BC"/>
<path d="M216 162H198V180H216V162Z" fill="#4287D4"/>
<path d="M216 180H198V198H216V180Z" fill="#4787C5"/>
<path d="M234 216H216V234H234V216Z" fill="#90BE6A"/>
<path d="M234 162H216V180H234V162Z" fill="#3F80CD"/>
<path d="M234 198H216V216H234V198Z" fill="#A6CC71"/>
<path d="M234 180H216V198H234V180Z" fill="#4787C5"/>
<path d="M252 126H234V144H252V126Z" fill="#3977D0"/>
<path d="M252 144H234V162H252V144Z" fill="#3977D0"/>
<path d="M252 180H234V198H252V180Z" fill="#6898AA"/>
<path d="M252 198H234V216H252V198Z" fill="#91B85E"/>
<path d="M252 234H234V252H252V234Z" fill="#8AAD50"/>
<path d="M252 216H234V234H252V216Z" fill="#89AF58"/>
<path d="M270 252H252V270H270V252Z" fill="#92A236"/>
<path d="M270 216H252V234H270V216Z" fill="#8DA942"/>
<path d="M270 234H252V252H270V234Z" fill="#85A23F"/>
<path d="M270 198H252V216H270V198Z" fill="#8BAB4D"/>
<path d="M270 180H252V198H270V180Z" fill="#3668C0"/>
<path d="M270 162H252V180H270V162Z" fill="#315DC6"/>
<path d="M270 144H252V162H270V144Z" fill="#305DC5"/>
<path d="M270 126H252V144H270V126Z" fill="#3367CB"/>
<path d="M288 126H270V144H288V126Z" fill="#2E5EC6"/>
<path d="M288 144H270V162H288V144Z" fill="#2C54C1"/>
<path d="M288 162H270V180H288V162Z" fill="#2D59C2"/>
<path d="M288 180H270V198H288V180Z" fill="#2F5BC0"/>
<path d="M288 198H270V216H288V198Z" fill="#51747F"/>
<path d="M288 216H270V234H288V216Z" fill="#839A35"/>
<path d="M288 234H270V252H288V234Z" fill="#81982E"/>
<path d="M288 252H270V270H288V252Z" fill="#92A236"/>
<path d="M306 252H288V270H306V252Z" fill="#8D922A"/>
<path d="M306 234H288V252H306V234Z" fill="#81982E"/>
<path d="M306 216H288V234H306V216Z" fill="#425F84"/>
<path d="M306 198H288V216H306V198Z" fill="#2849B0"/>
<path d="M306 180H288V198H306V180Z" fill="#2B51BA"/>
<path d="M306 162H288V180H306V162Z" fill="#2B4DBA"/>
<path d="M306 144H288V162H306V144Z" fill="#2A4CBA"/>
<path d="M306 126H288V144H306V126Z" fill="#2A4CBA"/>
<path d="M324 144H306V162H324V144Z" fill="#2747B3"/>
<path d="M324 126H306V144H324V126Z" fill="#2748B2"/>
<path d="M324 162H306V180H324V162Z" fill="#2748B2"/>
<path d="M324 180H306V198H324V180Z" fill="#2747B3"/>
<path d="M324 198H306V216H324V198Z" fill="#2640A5"/>
<path d="M324 234H306V252H324V234Z" fill="#8C8B23"/>
<path d="M324 216H306V234H324V216Z" fill="#2540A3"/>
<path d="M324 252H306V270H324V252Z" fill="#8C7D1E"/>
<path d="M342 252H324V270H342V252Z" fill="#25316C"/>
<path d="M342 234H324V252H342V234Z" fill="#253685"/>
<path d="M342 216H324V234H342V216Z" fill="#253685"/>
<path d="M342 198H324V216H342V198Z" fill="#253685"/>
<path d="M342 180H324V198H342V180Z" fill="#253685"/>
<path d="M342 162H324V180H342V162Z" fill="#253685"/>
<path d="M342 144H324V162H342V144Z" fill="#253685"/>
<path d="M342 126H324V144H342V126Z" fill="#253685"/>
<path d="M342 306H324V324H342V306Z" fill="#29356D"/>
<path d="M360 288H342V306H360V288Z" fill="#29356D"/>
<path d="M360 270H342V288H360V270Z" fill="#25316C"/>
<path d="M378 252H360V270H378V252Z" fill="#25316F"/>
<path d="M378 234H360V252H378V234Z" fill="#25316F"/>
<path d="M378 216H360V234H378V216Z" fill="#25316F"/>
<path d="M378 198H360V216H378V198Z" fill="#25316E"/>
<path d="M378 180H360V198H378V180Z" fill="#2B3743"/>
<path d="M378 162H360V180H378V162Z" fill="#393B34"/>
<path d="M378 144H360V162H378V144Z" fill="#3E3F23"/>
<path d="M378 126H360V144H378V126Z" fill="#37362D"/>
<path d="M360 108H342V126H360V108Z" fill="#252D64"/>
<path d="M360 90H342V108H360V90Z" fill="#242D50"/>
<path d="M342 72H324V90H342V72Z" fill="#242D50"/>
<path d="M270 108H252V126H270V108Z" fill="#2D5DC5"/>
<path d="M288 90H270V108H288V90Z" fill="#2850B9"/>
<path d="M288 108H270V126H288V108Z" fill="#2C57C0"/>
<path d="M306 108H288V126H306V108Z" fill="#2A4CBA"/>
<path d="M306 90H288V108H306V90Z" fill="#2850B9"/>
<path d="M324 72H306V90H324V72Z" fill="#263E97"/>
<path d="M324 90H306V108H324V90Z" fill="#263E97"/>
<path d="M324 108H306V126H324V108Z" fill="#263E97"/>
<path d="M342 108H324V126H342V108Z" fill="#253685"/>
<path d="M342 90H324V108H342V90Z" fill="#252D64"/>
<path d="M306 288H288V306H306V288Z" fill="#807E21"/>
<path d="M306 270H288V288H306V270Z" fill="#938026"/>
<path d="M324 270H306V288H324V270Z" fill="#7E6E19"/>
<path d="M324 288H306V306H324V288Z" fill="#273C93"/>
<path d="M342 288H324V306H342V288Z" fill="#25316C"/>
<path d="M342 270H324V288H342V270Z" fill="#273C93"/>
<path d="M234 0H216V18H234V0Z" fill="#8BA09F"/>
<path d="M252 0H234V18H252V0Z" fill="#4262A8"/>
<path d="M252 36H234V54H252V36Z" fill="#55759A"/>
<path d="M270 36H252V54H270V36Z" fill="#2646AA"/>
<path d="M288 36H270V54H288V36Z" fill="#2646AA"/>
<path d="M216 0H198V18H216V0Z" fill="#89AF68"/>
<path d="M198 0H180V18H198V0Z" fill="#9AAB68"/>
<path d="M180 0H162V18H180V0Z" fill="#9DB5B0"/>
<path d="M162 0H144V18H162V0Z" fill="#C0CCA0"/>
<path d="M144 0H126V18H144V0Z" fill="#7A8773"/>
<path d="M234 378H216V396H234V378Z" fill="#252D56"/>
<path d="M252 378H234V396H252V378Z" fill="#252D56"/>
<path d="M270 378H252V396H270V378Z" fill="#252D56"/>
<path d="M216 378H198V396H216V378Z" fill="#2D3E6F"/>
<path d="M198 378H180V396H198V378Z" fill="#253A91"/>
<path d="M180 378H162V396H180V378Z" fill="#253D98"/>
<path d="M162 378H144V396H162V378Z" fill="#263E9E"/>
<path d="M144 378H126V396H144V378Z" fill="#2F459C"/>
<path d="M108 36H90V54H108V36Z" fill="#A7C05C"/>
<path d="M126 36H108V54H126V36Z" fill="#86AA6C"/>
<path d="M144 36H126V54H144V36Z" fill="#9BBF72"/>
<path d="M288 18H270V36H288V18Z" fill="#445898"/>
<path d="M270 18H252V36H270V18Z" fill="#2646AA"/>
<path d="M252 18H234V36H252V18Z" fill="#4262A8"/>
<path d="M144 18H126V36H144V18Z" fill="#7A8773"/>
<path d="M126 18H108V36H126V18Z" fill="#7A8773"/>
<path d="M108 18H90V36H108V18Z" fill="#C0CCA0"/>
<path d="M90 54H72V72H90V54Z" fill="#9CC86A"/>
<path d="M288 54H270V72H288V54Z" fill="#2646AA"/>
<path d="M306 54H288V72H306V54Z" fill="#2646AA"/>
<path d="M306 36H288V54H306V36Z" fill="#283E8F"/>
<path d="M162 18H144V36H162V18Z" fill="#7A8773"/>
<path d="M162 36H144V54H162V36Z" fill="#7A8773"/>
<path d="M180 18H162V36H180V18Z" fill="#9DB5B0"/>
<path d="M180 36H162V54H180V36Z" fill="#2C5DC9"/>
<path d="M198 18H180V36H198V18Z" fill="#9AAB68"/>
<path d="M198 36H180V54H198V36Z" fill="#89AF68"/>
<path d="M216 18H198V36H216V18Z" fill="#89AF68"/>
<path d="M216 36H198V54H216V36Z" fill="#9AAB68"/>
<path d="M234 18H216V36H234V18Z" fill="#8BA09F"/>
<path d="M234 36H216V54H234V36Z" fill="#9AAB68"/>
<path d="M90 36H72V54H90V36Z" fill="#A7C05C"/>
<path d="M324 54H306V72H324V54Z" fill="#263881"/>
<path d="M72 54H54V72H72V54Z" fill="#2D62C9"/>
<path d="M108 54H90V72H108V54Z" fill="#C0E065"/>
<path d="M126 54H108V72H126V54Z" fill="#C0E065"/>
<path d="M144 54H126V72H144V54Z" fill="#84A36A"/>
<path d="M162 54H144V72H162V54Z" fill="#9BBF72"/>
<path d="M180 54H162V72H180V54Z" fill="#487AB4"/>
<path d="M198 54H180V72H198V54Z" fill="#89AF68"/>
<path d="M216 54H198V72H216V54Z" fill="#89AF68"/>
<path d="M234 54H216V72H234V54Z" fill="#7FA363"/>
<path d="M252 54H234V72H252V54Z" fill="#2646AA"/>
<path d="M270 54H252V72H270V54Z" fill="#2D5DC5"/>
<path d="M90 72H72V90H90V72Z" fill="#CAE580"/>
<path d="M108 72H90V90H108V72Z" fill="#DFF180"/>
<path d="M126 72H108V90H126V72Z" fill="#DFF180"/>
<path d="M144 72H126V90H144V72Z" fill="#88BD8B"/>
<path d="M162 72H144V90H162V72Z" fill="#C0E065"/>
<path d="M180 72H162V90H180V72Z" fill="#9BBF72"/>
<path d="M198 72H180V90H198V72Z" fill="#487AB4"/>
<path d="M216 72H198V90H216V72Z" fill="#9CC66E"/>
<path d="M234 72H216V90H234V72Z" fill="#97BF5E"/>
<path d="M252 72H234V90H252V72Z" fill="#62886B"/>
<path d="M270 72H252V90H270V72Z" fill="#2D5DC5"/>
<path d="M288 72H270V90H288V72Z" fill="#2642A3"/>
<path d="M306 72H288V90H306V72Z" fill="#284FB8"/>
<path d="M90 90H72V108H90V90Z" fill="#FEF990"/>
<path d="M108 90H90V108H108V90Z" fill="#CAE580"/>
<path d="M126 90H108V108H126V90Z" fill="#F3FB9C"/>
<path d="M144 90H126V108H144V90Z" fill="#E5FBA4"/>
<path d="M162 90H144V108H162V90Z" fill="#C9EF94"/>
<path d="M180 90H162V108H180V90Z" fill="#487AB4"/>
<path d="M198 90H180V108H198V90Z" fill="#C9EF94"/>
<path d="M216 90H198V108H216V90Z" fill="#9CC66E"/>
<path d="M234 90H216V108H234V90Z" fill="#97BF5E"/>
<path d="M252 90H234V108H252V90Z" fill="#4371AA"/>
<path d="M270 90H252V108H270V90Z" fill="#476F96"/>
<path d="M90 108H72V126H90V108Z" fill="#FAFAA3"/>
<path d="M108 108H90V126H108V108Z" fill="#FEF990"/>
<path d="M126 108H108V126H126V108Z" fill="#FAFDB5"/>
<path d="M144 108H126V126H144V108Z" fill="#C9F8B2"/>
<path d="M162 108H144V126H162V108Z" fill="#ACE8A5"/>
<path d="M180 108H162V126H180V108Z" fill="#9ED68F"/>
<path d="M198 108H180V126H198V108Z" fill="#C9EF94"/>
<path d="M215.797 108H197.797V126H215.797V108Z" fill="#8FBF8C"/>
<path d="M234 108H216V126H234V108Z" fill="#3167C8"/>
<path d="M252 108H234V126H252V108Z" fill="#3266CA"/>
<path d="M54 126H36V144H54V126Z" fill="#3273D0"/>
<path d="M90 126H72V144H90V126Z" fill="#5693C9"/>
<path d="M108 126H90V144H108V126Z" fill="#FAFAA3"/>
<path d="M126 126H108V144H126V126Z" fill="#E3FDBC"/>
<path d="M144 126H126V144H144V126Z" fill="#91CFC7"/>
<path d="M162 126H144V144H162V126Z" fill="#C9F8B2"/>
<path d="M180 126H162V144H180V126Z" fill="#52A1D7"/>
<path d="M198 126H180V144H198V126Z" fill="#529CCF"/>
<path d="M216 126H198V144H216V126Z" fill="#5FA4C7"/>
<path d="M234 126H216V144H234V126Z" fill="#3977D0"/>
<path d="M36 126H18V144H36V126Z" fill="#2D68CE"/>
<path d="M72 126H54V144H72V126Z" fill="#3C85D5"/>
<path d="M108 144H90V162H108V144Z" fill="#F1FEB8"/>
<path d="M126 144H108V162H126V144Z" fill="#ECFDC1"/>
<path d="M144 144H126V162H144V144Z" fill="#E3FDBC"/>
<path d="M162 144H144V162H162V144Z" fill="#91CFC7"/>
<path d="M180 144H162V162H180V144Z" fill="#5AAADB"/>
<path d="M198 144H180V162H198V144Z" fill="#4F9BD3"/>
<path d="M216 144H198V162H216V144Z" fill="#428AD4"/>
<path d="M234 144H216V162H234V144Z" fill="#3C7DD0"/>
<path d="M360 126H342V144H360V126Z" fill="#252D64"/>
<path d="M36 144H18V162H36V144Z" fill="#2E6BCF"/>
<path d="M126 162H108V180H126V162Z" fill="#A2E3D0"/>
<path d="M144 162H126V180H144V162Z" fill="#B2EDCD"/>
<path d="M162 162H144V180H162V162Z" fill="#BAFAC3"/>
<path d="M180 162H162V180H180V162Z" fill="#5AAADB"/>
<path d="M198 162H180V180H198V162Z" fill="#52A1D7"/>
<path d="M252 162H234V180H252V162Z" fill="#4B84BC"/>
<path d="M360 144H342V162H360V144Z" fill="#252D64"/>
<path d="M36 162H18V180H36V162Z" fill="#2D67CE"/>
<path d="M126 180H108V198H126V180Z" fill="#A2E3D0"/>
<path d="M162 180H144V198H162V180Z" fill="#BAFAC3"/>
<path d="M198 180H180V198H198V180Z" fill="#4287D4"/>
<path d="M360 162H342V180H360V162Z" fill="#252D64"/>
<path d="M36 180H18V198H36V180Z" fill="#2E6ACF"/>
<path d="M360 180H342V198H360V180Z" fill="#252E6B"/>
<path d="M36 198H18V216H36V198Z" fill="#2D67CE"/>
<path d="M360 216H342V234H360V216Z" fill="#252E6B"/>
<path d="M360 198H342V216H360V198Z" fill="#252E6B"/>
<path d="M36 216H18V234H36V216Z" fill="#2E64CD"/>
<path d="M72 144H54V162H72V144Z" fill="#3D8AD4"/>
<path d="M54 144H36V162H54V144Z" fill="#367BD3"/>
<path d="M72 162H54V180H72V162Z" fill="#3E8AD6"/>
<path d="M54 162H36V180H54V162Z" fill="#3677D2"/>
<path d="M72 180H54V198H72V180Z" fill="#3B81D4"/>
<path d="M54 180H36V198H54V180Z" fill="#3677D2"/>
<path d="M72 198H54V216H72V198Z" fill="#3B81D4"/>
<path d="M54 198H36V216H54V198Z" fill="#326CCE"/>
<path d="M54 216H36V234H54V216Z" fill="#2F66CB"/>
<path d="M72 216H54V234H72V216Z" fill="#3879D1"/>
<path d="M36 252H18V270H36V252Z" fill="#2B5DC9"/>
<path d="M36 234H18V252H36V234Z" fill="#2C61CB"/>
<path d="M54 234H36V252H54V234Z" fill="#2C60CA"/>
<path d="M54 252H36V270H54V252Z" fill="#2A5AC6"/>
<path d="M72 234H54V252H72V234Z" fill="#3068CC"/>
<path d="M360 252H342V270H360V252Z" fill="#25316C"/>
<path d="M360 234H342V252H360V234Z" fill="#25316C"/>
<path d="M72 252H54V270H72V252Z" fill="#2C60C9"/>
<path d="M90 144H72V162H90V144Z" fill="#98C0BD"/>
<path d="M108 162H90V180H108V162Z" fill="#B2EDCD"/>
<path d="M90 162H72V180H90V162Z" fill="#4F9BD2"/>
<path d="M108 180H90V198H108V180Z" fill="#53A4D9"/>
<path d="M90 180H72V198H90V180Z" fill="#4F9BD2"/>
<path d="M108 198H90V216H108V198Z" fill="#4E9FD7"/>
<path d="M90 198H72V216H90V198Z" fill="#4593D5"/>
<path d="M108 216H90V234H108V216Z" fill="#4896D5"/>
<path d="M90 216H72V234H90V216Z" fill="#3E83D4"/>
<path d="M90 234H72V252H90V234Z" fill="#3879D1"/>
<path d="M90 252H72V270H90V252Z" fill="#336FCF"/>
<path d="M126 306H108V324H126V306Z" fill="#274FBC"/>
<path d="M126 288H108V306H126V288Z" fill="#2E60C7"/>
<path d="M126 270H108V288H126V270Z" fill="#3874CF"/>
<path d="M126 252H108V270H126V252Z" fill="#3E83D4"/>
<path d="M126 234H108V252H126V234Z" fill="#3E83D4"/>
<path d="M126 216H108V234H126V216Z" fill="#4691D4"/>
<path d="M126 198H108V216H126V198Z" fill="#55A6D9"/>
<path d="M144 180H126V198H144V180Z" fill="#B2EDCD"/>
<path d="M144 198H126V216H144V198Z" fill="#B2EDCD"/>
<path d="M144 216H126V234H144V216Z" fill="#4691D5"/>
<path d="M144 234H126V252H144V234Z" fill="#3F83D3"/>
<path d="M144 270H126V288H144V270Z" fill="#2F60C6"/>
<path d="M144 252H126V270H144V252Z" fill="#3977CF"/>
<path d="M144 288H126V306H144V288Z" fill="#2F60C6"/>
<path d="M144 306H126V324H144V306Z" fill="#284FBC"/>
<path d="M144 324H126V342H144V324Z" fill="#2648B3"/>
<path d="M162 306H144V324H162V306Z" fill="#294FBA"/>
<path d="M162 288H144V306H162V288Z" fill="#2A55C1"/>
<path d="M162 270H144V288H162V270Z" fill="#3269CB"/>
<path d="M162 252H144V270H162V252Z" fill="#3774CD"/>
<path d="M162 234H144V252H162V234Z" fill="#3D81D1"/>
<path d="M162 216H144V234H162V216Z" fill="#4A92D3"/>
<path d="M162 198H144V216H162V198Z" fill="#4A95D4"/>
<path d="M180 180H162V198H180V180Z" fill="#9EE2BB"/>
<path d="M180 216H162V234H180V216Z" fill="#4184D2"/>
<path d="M180 198H162V216H180V198Z" fill="#4690D4"/>
<path d="M180 234H162V252H180V234Z" fill="#3C7BD0"/>
<path d="M180 252H162V270H180V252Z" fill="#3670CC"/>
<path d="M180 270H162V288H180V270Z" fill="#3166C8"/>
<path d="M180 288H162V306H180V288Z" fill="#2E5EC4"/>
<path d="M180 306H162V324H180V306Z" fill="#284DB8"/>
<path d="M180 324H162V342H180V324Z" fill="#284DB8"/>
<path d="M198 306H180V324H198V306Z" fill="#2A52BC"/>
<path d="M198 288H180V306H198V288Z" fill="#2D5AC1"/>
<path d="M198 270H180V288H198V270Z" fill="#3062C5"/>
<path d="M198 234H180V252H198V234Z" fill="#B1CC8D"/>
<path d="M198 252H180V270H198V252Z" fill="#346ACA"/>
<path d="M198 216H180V234H198V216Z" fill="#75ACA8"/>
<path d="M198 198H180V216H198V198Z" fill="#4183D0"/>
<path d="M216 198H198V216H216V198Z" fill="#9CD489"/>
<path d="M216 216H198V234H216V216Z" fill="#97CB7F"/>
<path d="M216 234H198V252H216V234Z" fill="#91C473"/>
<path d="M216 252H198V270H216V252Z" fill="#B4C55F"/>
<path d="M216 270H198V288H216V270Z" fill="#2D5CC4"/>
<path d="M216 288H198V306H216V288Z" fill="#2D56BF"/>
<path d="M216 306H198V324H216V306Z" fill="#2D56BF"/>
<path d="M216 324H198V342H216V324Z" fill="#506B72"/>
<path d="M234 306H216V324H234V306Z" fill="#AA9934"/>
<path d="M234 288H216V306H234V288Z" fill="#BAAB47"/>
<path d="M234 270H216V288H234V270Z" fill="#BDB250"/>
<path d="M234 252H216V270H234V252Z" fill="#8EB353"/>
<path d="M234 234H216V252H234V234Z" fill="#8DBA60"/>
<path d="M252 252H234V270H252V252Z" fill="#92AD45"/>
<path d="M252 270H234V288H252V270Z" fill="#A9AC38"/>
<path d="M252 288H234V306H252V288Z" fill="#A69F2C"/>
<path d="M252 306H234V324H252V306Z" fill="#99932B"/>
<path d="M252 324H234V342H252V324Z" fill="#646F4F"/>
<path d="M126 360H108V378H126V360Z" fill="#2F459C"/>
<path d="M108 360H90V378H108V360Z" fill="#2F459C"/>
<path d="M18 252H0V270H18V252Z" fill="#2C60CA"/>
<path d="M36 288H18V306H36V288Z" fill="#2552C2"/>
<path d="M72 324H54V342H72V324Z" fill="#284CB6"/>
<path d="M90 342H72V360H90V342Z" fill="#264DB8"/>
<path d="M126 342H108V360H126V342Z" fill="#2548B3"/>
<path d="M108 342H90V360H108V342Z" fill="#2647B0"/>
<path d="M126 324H108V342H126V324Z" fill="#2548B3"/>
<path d="M108 324H90V342H108V324Z" fill="#274FBB"/>
<path d="M90 324H72V342H90V324Z" fill="#264DB8"/>
<path d="M90 306H72V324H90V306Z" fill="#264DB8"/>
<path d="M108 234H90V252H108V234Z" fill="#4896D5"/>
<path d="M108 252H90V270H108V252Z" fill="#3C81D3"/>
<path d="M108 270H90V288H108V270Z" fill="#3675CF"/>
<path d="M108 288H90V306H108V288Z" fill="#3269CD"/>
<path d="M108 306H90V324H108V306Z" fill="#2957C3"/>
<path d="M144 342H126V360H144V342Z" fill="#2646B1"/>
<path d="M144 360H126V378H144V360Z" fill="#263E9E"/>
<path d="M162 324H144V342H162V324Z" fill="#294FBA"/>
<path d="M162 342H144V360H162V342Z" fill="#2646B1"/>
<path d="M162 360H144V378H162V360Z" fill="#253F9E"/>
<path d="M180 342H162V360H180V342Z" fill="#2646B1"/>
<path d="M180 360H162V378H180V360Z" fill="#253D98"/>
<path d="M198 324H180V342H198V324Z" fill="#284BB6"/>
<path d="M198 342H180V360H198V342Z" fill="#2646B1"/>
<path d="M198 360H180V378H198V360Z" fill="#253A91"/>
<path d="M216 342H198V360H216V342Z" fill="#647341"/>
<path d="M216 360H198V378H216V360Z" fill="#2D3E6F"/>
<path d="M234 324H216V342H234V324Z" fill="#9B8E23"/>
<path d="M234 342H216V360H234V342Z" fill="#31498D"/>
<path d="M234 360H216V378H234V360Z" fill="#263067"/>
<path d="M252 342H234V360H252V342Z" fill="#263988"/>
<path d="M252 360H234V378H252V360Z" fill="#252D56"/>
<path d="M270 360H252V378H270V360Z" fill="#252D56"/>
<path d="M288 360H270V378H288V360Z" fill="#252D56"/>
<path d="M270 324H252V342H270V324Z" fill="#273C93"/>
<path d="M270 342H252V360H270V342Z" fill="#252D56"/>
<path d="M288 342H270V360H288V342Z" fill="#253166"/>
<path d="M306 342H288V360H306V342Z" fill="#29356D"/>
<path d="M324 324H306V342H324V324Z" fill="#29356D"/>
<path d="M270 306H252V324H270V306Z" fill="#888C1C"/>
<path d="M270 288H252V306H270V288Z" fill="#949626"/>
<path d="M270 270H252V288H270V270Z" fill="#969E2F"/>
<path d="M288 270H270V288H288V270Z" fill="#969E2F"/>
<path d="M288 288H270V306H288V288Z" fill="#807E21"/>
<path d="M288 306H270V324H288V306Z" fill="#273C93"/>
<path d="M288 324H270V342H288V324Z" fill="#253069"/>
<path d="M306 324H288V342H306V324Z" fill="#25336F"/>
<path d="M306 306H288V324H306V306Z" fill="#273C93"/>
<path d="M324 306H306V324H324V306Z" fill="#25316D"/>
</g>
<defs>
<clipPath id="clip0_724_1305">
<rect width="378" height="396" fill="white"/>
</clipPath>
</defs>
</svg>
